<?xml version="1.0" encoding="UTF-8"?>
<svg width="24px" height="24px" viewBox="0 0 24 24" version="1.1" xmlns="http://www.w3.org/2000/svg" xmlns:xlink="http://www.w3.org/1999/xlink">
    <!-- Generator: Sketch 51.3 (57544) - http://www.bohemiancoding.com/sketch -->
    <title>Icon / Accordion / Expand - large</title>
    <desc>Created with Sketch.</desc>
    <defs>
        <path class="path-01" d="M11,11 L11,3.75052097 C11,3.33601969 11.3328986,3 11.75,3 C12.1642136,3 12.5,3.34350085 12.5,3.75052097 L12.5,11 L20.249479,11 C20.6639803,11 21,11.3328986 21,11.75 C21,12.1642136 20.6564991,12.5 20.249479,12.5 L12.5,12.5 L12.5,20.249479 C12.5,20.6639803 12.1671014,21 11.75,21 C11.3357864,21 11,20.6564991 11,20.249479 L11,12.5 L3.75052097,12.5 C3.33601969,12.5 3,12.1671014 3,11.75 C3,11.3357864 3.34350085,11 3.75052097,11 L11,11 Z" id="path-1"></path>
    </defs>
    <g id="Style-" stroke="none" stroke-width="1" fill="none" fill-rule="evenodd">
        <g id="Style_Icons" transform="translate(-355.000000, -1320.000000)">
            <g id="Accordion" transform="translate(165.000000, 1248.000000)">
                <g id="Icon-/-Accordion-/-Expand---large" transform="translate(190.000000, 72.000000)">
                    <mask id="mask-2" fill="white">
                        <use xlink:href="#path-1"></use>
                    </mask>
                    <use id="Combined-Shape" fill="#009BDF" xlink:href="#path-1"></use>
                    <g id="Color-/-Global-Grey---medium-dark" mask="url(#mask-2)" fill="#747981">
                        <rect id="color" x="0" y="0" width="24" height="24"></rect>
                    </g>
                </g>
            </g>
        </g>
    </g>
</svg>