<?xml version="1.0" encoding="UTF-8"?>
<svg width="137px" height="137px" viewBox="0 0 137 137" version="1.1" xmlns="http://www.w3.org/2000/svg" xmlns:xlink="http://www.w3.org/1999/xlink">
    <!-- Generator: Sketch 51.3 (57544) - http://www.bohemiancoding.com/sketch -->
    <title>Icon / Android / Android - Fingerprint Auth</title>
    <desc>Created with Sketch.</desc>
    <defs>
        <path d="M84.6654167,14.51625 C84.20875,14.51625 83.7520833,14.4020833 83.3525,14.17375 C72.3925,8.5225 62.9166667,6.125 51.5570833,6.125 C40.2545833,6.125 29.5229167,8.80791667 19.7616667,14.17375 C18.3916667,14.9158333 16.6791667,14.4020833 15.88,13.0320833 C15.1379167,11.6620833 15.6516667,9.8925 17.0216667,9.15041667 C27.6391667,3.385 39.2841667,0.416666667 51.5570833,0.416666667 C63.7158333,0.416666667 74.3333333,3.09958333 85.9783333,9.09333333 C87.4054167,9.83541667 87.9191667,11.5479167 87.1770833,12.9179167 C86.6633333,13.9454167 85.6929167,14.51625 84.6654167,14.51625 L84.6654167,14.51625 Z M2.97916667,44.485 C2.40833333,44.485 1.8375,44.31375 1.32375,43.97125 C0.0108333333,43.0579167 -0.274583333,41.2883333 0.63875,39.9754167 C6.29,31.98375 13.4825,25.7045833 22.045,21.3091667 C39.9691667,12.0616667 62.9166667,12.0045833 80.8979167,21.2520833 C89.4604167,25.6475 96.6529167,31.8695833 102.304167,39.8041667 C103.2175,41.06 102.932083,42.8866667 101.619167,43.8 C100.30625,44.7133333 98.5366667,44.4279167 97.6233333,43.115 C92.4858333,35.9225 85.9783333,30.27125 78.2720833,26.3325 C61.8891667,17.94125 40.9395833,17.94125 24.61375,26.3895833 C16.8504167,30.3854167 10.3429167,36.09375 5.20541667,43.28625 C4.74875,44.0854167 3.8925,44.485 2.97916667,44.485 L2.97916667,44.485 Z M38.65625,113.384583 C37.9141667,113.384583 37.1720833,113.099167 36.6583333,112.528333 C31.6920833,107.562083 29.0091667,104.365417 25.1845833,97.4583333 C21.2458333,90.4370833 19.1908333,81.8745833 19.1908333,72.6841667 C19.1908333,55.7304167 33.69,41.91625 51.5,41.91625 C69.31,41.91625 83.8091667,55.7304167 83.8091667,72.6841667 C83.8091667,74.2825 82.5533333,75.5383333 80.955,75.5383333 C79.3566667,75.5383333 78.1008333,74.2825 78.1008333,72.6841667 C78.1008333,58.87 66.1704167,47.6245833 51.5,47.6245833 C36.8295833,47.6245833 24.8991667,58.87 24.8991667,72.6841667 C24.8991667,80.9041667 26.7258333,88.49625 30.2079167,94.66125 C33.86125,101.225833 36.3729167,104.022917 40.7683333,108.475417 C41.8529167,109.617083 41.8529167,111.386667 40.7683333,112.528333 C40.1404167,113.099167 39.3983333,113.384583 38.65625,113.384583 Z M79.585,102.824167 C72.7920833,102.824167 66.7983333,101.111667 61.8891667,97.74375 C53.38375,91.9783333 48.3033333,82.6166667 48.3033333,72.6841667 C48.3033333,71.0858333 49.5591667,69.83 51.1575,69.83 C52.7558333,69.83 54.0116667,71.0858333 54.0116667,72.6841667 C54.0116667,80.7329167 58.1216667,88.325 65.0858333,93.0058333 C69.13875,95.7458333 73.8766667,97.05875 79.585,97.05875 C80.955,97.05875 83.2383333,96.8875 85.5216667,96.4879167 C87.0629167,96.2025 88.5470833,97.23 88.8325,98.8283333 C89.1179167,100.369583 88.0904167,101.85375 86.4920833,102.139167 C83.2383333,102.767083 80.3841667,102.824167 79.585,102.824167 L79.585,102.824167 Z M68.11125,114.583333 C67.8829167,114.583333 67.5975,114.52625 67.3691667,114.469167 C58.2929167,111.9575 52.35625,108.589583 46.1341667,102.481667 C38.1425,94.5470833 33.7470833,83.9866667 33.7470833,72.6841667 C33.7470833,63.4366667 41.6245833,55.9016667 51.32875,55.9016667 C61.0329167,55.9016667 68.9104167,63.4366667 68.9104167,72.6841667 C68.9104167,78.7920833 74.2191667,83.7583333 80.78375,83.7583333 C87.3483333,83.7583333 92.6570833,78.7920833 92.6570833,72.6841667 C92.6570833,51.16375 74.105,33.69625 51.2716667,33.69625 C35.06,33.69625 20.2183333,42.7154167 13.5395833,56.7008333 C11.3133333,61.3245833 10.1716667,66.7475 10.1716667,72.6841667 C10.1716667,77.1366667 10.57125,84.1579167 13.99625,93.29125 C14.5670833,94.7754167 13.825,96.4308333 12.3408333,96.9445833 C10.8566667,97.5154167 9.20125,96.71625 8.6875,95.2891667 C5.89041667,87.81125 4.52041667,80.3904167 4.52041667,72.6841667 C4.52041667,65.8341667 5.83333333,59.6120833 8.40208333,54.1891667 C15.9941667,38.2629167 32.83375,27.9308333 51.2716667,27.9308333 C77.2445833,27.9308333 98.3654167,47.9670833 98.3654167,72.6270833 C98.3654167,81.8745833 90.4879167,89.4095833 80.78375,89.4095833 C71.0795833,89.4095833 63.2020833,81.8745833 63.2020833,72.6270833 C63.2020833,66.5191667 57.8933333,61.5529167 51.32875,61.5529167 C44.7641667,61.5529167 39.4554167,66.5191667 39.4554167,72.6270833 C39.4554167,82.3883333 43.2229167,91.5216667 50.13,98.3716667 C55.5529167,103.7375 60.7475,106.705833 68.79625,108.932083 C70.3375,109.331667 71.19375,110.93 70.7941667,112.414167 C70.50875,113.727083 69.31,114.583333 68.11125,114.583333 L68.11125,114.583333 Z" id="path-1"></path>
    </defs>
    <g id="Style-" stroke="none" stroke-width="1" fill="none" fill-rule="evenodd">
        <g id="Style_Icons" transform="translate(-165.000000, -1800.000000)">
            <g id="Android" transform="translate(165.000000, 1720.000000)">
                <g id="Icon-/-Android-/-Android---Fingerprint-Auth" transform="translate(0.000000, 80.000000)">
                    <g id="icon-/-Android-/-Fingerprint-Authentication" transform="translate(17.000000, 11.000000)">
                        <g id="Group">
                            <mask id="mask-2" fill="white">
                                <use xlink:href="#path-1"></use>
                            </mask>
                            <use id="Shape" fill="#007C89" xlink:href="#path-1"></use>
                            <g id="Color-/-Global-White" mask="url(#mask-2)" fill="#009BDF">
                                <g transform="translate(-17.000000, -11.000000)" id="color">
                                    <rect x="0" y="0" width="138" height="138"></rect>
                                </g>
                            </g>
                        </g>
                    </g>
                </g>
            </g>
        </g>
    </g>
</svg>