<?xml version="1.0" encoding="UTF-8"?>
<svg width="25px" height="24px" viewBox="0 0 25 24" version="1.1" xmlns="http://www.w3.org/2000/svg" xmlns:xlink="http://www.w3.org/1999/xlink">
    <!-- Generator: Sketch 51.3 (57544) - http://www.bohemiancoding.com/sketch -->
    <title>Icon / Arrows / Angle Arrow - right</title>
    <desc>Created with Sketch.</desc>
    <defs>
        <path d="M13.8994949,4.89949494 L16.8994949,4.89949494 L16.8994949,17.4012497 C16.8994949,18.2287077 16.2336977,18.8994949 15.3994949,18.8994949 C14.5710678,18.8994949 13.8994949,18.2242458 13.8994949,17.4012497 L13.8994949,7.89949494 L4.39774018,7.89949494 C3.57028218,7.89949494 2.89949494,7.2336977 2.89949494,6.39949494 C2.89949494,5.57106781 3.57474404,4.89949494 4.39774018,4.89949494 L13.8994949,4.89949494 Z" id="path-1"></path>
    </defs>
    <g id="Style-" stroke="none" stroke-width="1" fill="none" fill-rule="evenodd">
        <g id="Style_Icons" transform="translate(-228.000000, -2032.000000)">
            <g id="Arrows" transform="translate(165.000000, 1960.000000)">
                <g id="Angle-Arrow" transform="translate(0.000000, 48.000000)">
                    <g id="Icon-/-Arrows-/-Angle-Arrow---right" transform="translate(63.000000, 24.000000)">
                        <rect id="frame" x="1" y="0" width="24" height="24"></rect>
                        <mask id="mask-2" fill="white">
                            <use xlink:href="#path-1"></use>
                        </mask>
                        <use id="Combined-Shape" fill="#D8D8D8" transform="translate(9.899495, 11.899495) scale(-1, 1) rotate(-135.000000) translate(-9.899495, -11.899495) " xlink:href="#path-1"></use>
                        <g id="Color-/-Global-Grey---medium-dark" mask="url(#mask-2)" fill="#747981">
                            <g transform="translate(1.000000, 0.000000)" id="color">
                                <rect x="0" y="0" width="24" height="24"></rect>
                            </g>
                        </g>
                    </g>
                </g>
            </g>
        </g>
    </g>
</svg>