<?xml version="1.0" encoding="UTF-8"?>
<svg width="24px" height="24px" viewBox="0 0 24 24" version="1.1" xmlns="http://www.w3.org/2000/svg" xmlns:xlink="http://www.w3.org/1999/xlink">
    <!-- Generator: Sketch 51.3 (57544) - http://www.bohemiancoding.com/sketch -->
    <title>Icon / Arrows / Arrow - right</title>
    <desc>Created with Sketch.</desc>
    <defs>
        <path class="path-01" d="M5.64213562,8.5 L21,8.5 L21,11.5 L5.84314575,11.5 L10.9613959,16.6182502 C11.5464971,17.2033513 11.5500255,18.1484593 10.9601551,18.7383297 C10.3743687,19.3241161 9.42202172,19.3215167 8.84007557,18.7395705 L2.12132034,12.0208153 L-1.56630264e-12,9.89949494 L8.84007557,1.05941937 C9.42517673,0.474318208 10.3702847,0.470789739 10.9601551,1.06066017 C11.5459415,1.64644661 11.5433421,2.59879356 10.9613959,3.18073971 L5.64213562,8.5 Z" id="path-1"></path>
    </defs>
    <g id="Style-" stroke="none" stroke-width="1" fill="none" fill-rule="evenodd">
        <g id="Style_Icons" transform="translate(-482.000000, -2032.000000)">
            <g id="Arrows" transform="translate(165.000000, 1960.000000)">
                <g id="Arrow" transform="translate(285.000000, 48.000000)">
                    <g id="Icon-/-Arrows-/-Arrow---right" transform="translate(32.000000, 24.000000)">
                        <g id="Group-2" transform="translate(2.000000, 2.000000)">
                            <mask id="mask-2" fill="white">
                                <use xlink:href="#path-1"></use>
                            </mask>
                            <use id="Combined-Shape" fill="#D8D8D8" transform="translate(10.500000, 9.898137) scale(-1, 1) translate(-10.500000, -9.898137) " xlink:href="#path-1"></use>
                            <g id="Color-/-Global-Grey---medium-dark" mask="url(#mask-2)" fill="#747981">
                                <g transform="translate(-2.000000, -2.000000)" id="color">
                                    <rect x="0" y="0" width="24" height="24"></rect>
                                </g>
                            </g>
                        </g>
                    </g>
                </g>
            </g>
        </g>
    </g>
</svg>