<?xml version="1.0" encoding="UTF-8"?>
<svg width="36px" height="32px" viewBox="0 0 36 32" version="1.1" xmlns="http://www.w3.org/2000/svg" xmlns:xlink="http://www.w3.org/1999/xlink">
    <!-- Generator: Sketch 51.3 (57544) - http://www.bohemiancoding.com/sketch -->
    <title>Icon / Calendar</title>
    <desc>Created with Sketch.</desc>
    <defs>
        <path d="M28,4.59962778 C28,4.60817727 27.9873749,4.62894033 27.9873749,4.63748982 L27.9873749,4.66069559 L27.9873749,4.73153426 C27.9873749,4.75107596 27.9898999,4.7693963 27.9873749,4.788938 C27.9848499,4.8084797 27.9835873,4.82313598 27.9785373,4.84634175 C27.9734872,4.86954752 27.9633871,4.90863092 27.9633871,4.91595906 L27.9633871,4.93794347 L25.5292632,14.2043736 C25.3871938,14.7458968 24.8834068,15.1251255 24.3058887,15.1252763 L8.97646316,15.1252763 C8.39894504,15.1251255 7.89515809,14.7458968 7.75308865,14.2043736 L7.50058617,13.2578225 L6.35548742,8.89880191 L5.3151772,4.94038618 L4.65867075,2.44271257 L1.2625124,2.44271257 C0.565246055,2.44271257 0,1.89589274 0,1.22135629 C0,0.546819836 0.565246055,0 1.2625124,0 L5.6409054,0 C6.21842352,0.000150756024 6.72221048,0.379379465 6.86427992,0.92090264 L7.52078636,3.41857625 L26.7715754,3.41857625 L26.8460637,3.41857625 L26.9054017,3.41857625 L26.9647398,3.42712574 L27.036703,3.44178202 L27.0594283,3.44178202 L27.0846785,3.44911015 L27.1591667,3.47109457 L27.2071422,3.48819356 L27.2727929,3.51506339 L27.3245559,3.53949052 L27.3788439,3.56758171 L27.4343944,3.60055833 L27.4785824,3.62987089 L27.5341329,3.67017564 L27.5732708,3.70193091 L27.6250338,3.74712109 L27.6629092,3.78376178 L27.7070971,3.83139467 L27.74371,3.8753635 L27.7790603,3.92177504 L27.8156732,3.97429336 L27.8434485,4.01826218 C27.8548111,4.03780389 27.8661737,4.05856694 27.8762738,4.07810864 L27.898999,4.12329883 C27.9078366,4.14406188 27.9179367,4.16971036 27.9255118,4.185588 C27.9330868,4.20146563 27.9381369,4.21490055 27.9444495,4.23444225 C27.950762,4.25398395 27.9583371,4.27596836 27.9633871,4.29428871 C27.9684372,4.31260905 27.9747498,4.33337211 27.9785373,4.35169245 C27.9823248,4.3700128 27.9861124,4.38344771 27.9898999,4.40665348 C27.9936874,4.42985925 28,4.4591718 28,4.47504944 L28,4.52390369 L28,4.59962778 Z M8.81991162,8.34186344 L8.82117414,8.34186344 L12.7223375,8.34186344 L12.5089729,5.84663255 L8.16466769,5.84663255 L8.81991162,8.34186344 Z M9.95617278,12.6691288 L13.0909911,12.6691288 L12.8776265,10.1738979 L9.30092885,10.1738979 L9.95617278,12.6691288 Z M18.2887546,12.6691288 L18.5046442,10.1738979 L14.7777076,10.1738979 L14.9910722,12.6691288 L18.2887546,12.6691288 Z M18.6586708,8.34186344 L18.8695103,5.84663255 L14.4052665,5.84663255 L14.6186311,8.34186344 L18.6586708,8.34186344 Z M23.3236541,12.6691288 L23.978898,10.1738979 L20.4022004,10.1738979 L20.1888358,12.6691288 L23.3236541,12.6691288 Z M24.4599152,8.34186344 L25.1164217,5.84663255 L20.7721165,5.84663255 L20.5587519,8.34186344 L24.4599152,8.34186344 Z M22.1583551,21 C21.0078657,21 20.0752097,20.0977473 20.0752097,18.9847621 C20.0752097,17.871777 21.0078657,16.9695243 22.1583551,16.9695243 C23.3088446,16.9695243 24.2415006,17.871777 24.2415006,18.9847621 C24.2401255,20.0943386 23.3128835,20.9946275 22.1659302,21 L22.1583551,21 Z M11.0558211,21 C9.90533162,21 8.97267562,20.0977473 8.97267562,18.9847621 C8.97267562,17.871777 9.90533162,16.9695243 11.0558211,16.9695243 C12.2063106,16.9695243 13.1389665,17.871777 13.1389665,18.9847621 C13.1375752,20.0971893 12.2057338,20.998654 11.0558211,21 Z" id="path-1"></path>
        <rect id="path-3" x="0" y="0" width="24" height="16" rx="4"></rect>
    </defs>
    <g id="Style-" stroke="none" stroke-width="1" fill="none" fill-rule="evenodd">
        <g id="Style_Icons" transform="translate(-604.000000, -2136.000000)">
            <g id="Cart" transform="translate(545.000000, 2088.000000)">
                <g id="Icon-/-Calendar" transform="translate(59.000000, 48.000000)">
                    <g id="icon" transform="translate(0.000000, 7.000000)">
                        <mask id="mask-2" fill="white">
                            <use xlink:href="#path-1"></use>
                        </mask>
                        <use id="Combined-Shape" fill="#FFFFFF" xlink:href="#path-1"></use>
                        <g id="Color-/-Global-White" mask="url(#mask-2)" fill="#FFFFFF">
                            <g transform="translate(0.000000, -3.500000)" id="color">
                                <rect x="0" y="0" width="28" height="28"></rect>
                            </g>
                        </g>
                    </g>
                    <g id="Indicator-/-Badge---ESI" transform="translate(12.000000, 0.000000)">
                        <g id="badge-bg">
                            <mask id="mask-4" fill="white">
                                <use xlink:href="#path-3"></use>
                            </mask>
                            <use id="Rectangle-4" fill="#F86C06" xlink:href="#path-3"></use>
                            <g id="Color-/-ESI-Orange---accent" mask="url(#mask-4)" fill="#F86C06">
                                <rect id="color" x="0" y="0" width="24" height="16"></rect>
                            </g>
                        </g>
                        <text id="Count-#" font-family="Rubik-Medium, Rubik" font-size="13" font-weight="400" line-spacing="16" fill="#FFFFFF">
                            <tspan x="7.762" y="12">0</tspan>
                        </text>
                    </g>
                </g>
            </g>
        </g>
    </g>
</svg>