<?xml version="1.0" encoding="UTF-8"?>
<svg width="32px" height="32px" viewBox="0 0 32 32" version="1.1" xmlns="http://www.w3.org/2000/svg" xmlns:xlink="http://www.w3.org/1999/xlink">
    <!-- Generator: Sketch 51.3 (57544) - http://www.bohemiancoding.com/sketch -->
    <title>Icon / Header / Header Back Arrow</title>
    <desc>Created with Sketch.</desc>
    <defs>
        <path d="M0,12.5 C0,11.6715729 0.666946292,11 1.50130749,11 L22.4986925,11 C23.3278417,11 24,11.6657972 24,12.5 C24,13.3284271 23.3330537,14 22.4986925,14 L1.50130749,14 C0.672158257,14 0,13.3342028 0,12.5 Z M0,20 C0,19.1715729 0.666946292,18.5 1.50130749,18.5 L22.4986925,18.5 C23.3278417,18.5 24,19.1657972 24,20 C24,20.8284271 23.3330537,21.5 22.4986925,21.5 L1.50130749,21.5 C0.672158257,21.5 0,20.8342028 0,20 Z M0,27.5 C0,26.6715729 0.666946292,26 1.50130749,26 L22.4986925,26 C23.3278417,26 24,26.6657972 24,27.5 C24,28.3284271 23.3330537,29 22.4986925,29 L1.50130749,29 C0.672158257,29 0,28.3342028 0,27.5 Z" id="path-1"></path>
    </defs>
    <g id="Style-" stroke="none" stroke-width="1" fill="none" fill-rule="evenodd">
        <g id="Style_Icons" transform="translate(-205.000000, -2848.000000)">
            <g id="Header" transform="translate(165.000000, 2744.000000)">
                <g id="Icon-/-Header-/-Header-Back-Arrow" transform="translate(40.000000, 104.000000)">
                    <g id="header-/-icon-/-menu---white">
                        <rect id="frame" x="0" y="0" width="32" height="32"></rect>
                        <g id="Combined-Shape">
                            <use fill="#D8D8D8" xlink:href="#path-1"></use>
                            <use fill="#FFFFFF" xlink:href="#path-1"></use>
                        </g>
                    </g>
                </g>
            </g>
        </g>
    </g>
</svg>