<?xml version="1.0" encoding="UTF-8"?>
<svg width="24px" height="32px" viewBox="0 0 24 32" version="1.1" xmlns="http://www.w3.org/2000/svg" xmlns:xlink="http://www.w3.org/1999/xlink">
    <!-- Generator: Sketch 51.3 (57544) - http://www.bohemiancoding.com/sketch -->
    <title>Icon / Header / Header Back Arrow</title>
    <desc>Created with Sketch.</desc>
    <defs>
        <path d="M11.5287548,10.1071485 L15.7014526,14.2798463 C16.0965306,14.6749243 16.1011286,15.3108745 15.7056059,15.7063972 C15.3128216,16.0991815 14.6745504,16.0977394 14.2790549,15.7022439 L10.1062971,11.5294861 C9.05670236,12.290958 7.76569187,12.739969 6.36981208,12.739969 C2.85186201,12.739969 0,9.88802976 0,6.36998448 C0,2.85193919 2.85186201,0 6.36981208,0 C9.88776215,0 12.7396242,2.85193919 12.7396242,6.36998448 C12.7396242,7.76615822 12.2904605,9.05742134 11.5287548,10.1071485 Z M6.36981208,10.7283949 C8.77683055,10.7283949 10.7281046,8.77706809 10.7281046,6.36998448 C10.7281046,3.96290086 8.77683055,2.01157405 6.36981208,2.01157405 C3.96279361,2.01157405 2.0115196,3.96290086 2.0115196,6.36998448 C2.0115196,8.77706809 3.96279361,10.7283949 6.36981208,10.7283949 Z" id="path-1"></path>
    </defs>
    <g id="Style-" stroke="none" stroke-width="1" fill="none" fill-rule="evenodd">
        <g id="Style_Icons" transform="translate(-245.000000, -2848.000000)">
            <g id="Header" transform="translate(165.000000, 2744.000000)">
                <g id="Icon-/-Header-/-Header-Back-Arrow" transform="translate(80.000000, 104.000000)">
                    <g id="header-/-icon-/-search---white">
                        <rect id="frame" x="0" y="0" width="24" height="32"></rect>
                        <g id="Icon-/-Search" transform="translate(8.000000, 8.000000)">
                            <g id="Group-2">
                                <mask id="mask-2" fill="white">
                                    <use xlink:href="#path-1"></use>
                                </mask>
                                <use id="Combined-Shape" fill="#009BDF" xlink:href="#path-1"></use>
                                <g id="Color-/-Global-White" mask="url(#mask-2)" fill="#FFFFFF">
                                    <rect id="color" x="0" y="0" width="16" height="16"></rect>
                                </g>
                            </g>
                        </g>
                    </g>
                </g>
            </g>
        </g>
    </g>
</svg>