<?xml version="1.0" encoding="UTF-8"?>
<svg width="24px" height="32px" viewBox="0 0 24 32" version="1.1" xmlns="http://www.w3.org/2000/svg" xmlns:xlink="http://www.w3.org/1999/xlink">
    <!-- Generator: Sketch 51.3 (57544) - http://www.bohemiancoding.com/sketch -->
    <title>Icon / Header / Header Back Arrow</title>
    <desc>Created with Sketch.</desc>
    <defs>
        <path d="M23.1450113,16.4886101 L21.5973016,15.7567473 C21.583304,15.1610923 21.5125979,14.5681248 21.3861412,13.9858795 L22.7274896,12.9084816 C23.2985295,12.4511263 23.4530773,11.6468677 23.0922212,11.0104376 L22.0460174,9.15318595 C21.6884167,8.51687005 20.9235809,8.23183176 20.2367568,8.47891242 L18.614661,9.0644026 C18.1672398,8.63916673 17.6803319,8.2575145 17.1605338,7.92461638 L17.3381005,6.23293368 C17.4166593,5.50727883 16.9588719,4.83125587 16.2559035,4.63483343 L14.1946901,4.0565419 C13.4913096,3.85777709 12.7473401,4.19677546 12.43582,4.85799157 L11.6895599,6.43209633 C11.0942565,6.45109385 10.5021054,6.52661924 9.92109165,6.65765402 L8.85569148,5.31870516 C8.39673033,4.75150518 7.59496419,4.5992711 6.96004704,4.95877267 L5.09559675,5.99777779 C4.45766985,6.35399813 4.17212109,7.1202037 4.42132322,7.80703844 L5.0116125,9.44833059 C4.60224742,9.88166256 4.23655096,10.3542549 3.91981728,10.8592659 L2.22813458,10.6816992 C1.50247973,10.6031405 0.826456769,11.0609278 0.630034331,11.7638963 L0.0565418986,13.8131119 C-0.142222915,14.5164924 0.196775464,15.2604619 0.857991575,15.571982 L2.43209633,16.318242 C2.45109385,16.9135455 2.52661924,17.5056966 2.65765402,18.0867103 L1.32830336,19.1473114 C0.761546386,19.6028951 0.606384241,20.4010167 0.961172221,21.0357572 L2.00737599,22.8930088 C2.3649767,23.5293247 3.12981255,23.814363 3.81663664,23.5672824 L5.45792879,22.9769931 C5.87875713,23.3712832 6.33409556,23.7270414 6.8184736,24.0399937 L6.6313087,25.7508728 C6.55274992,26.4765277 7.01053724,27.1525506 7.71350572,27.3489731 L9.76752046,27.924865 C10.4656064,28.1214509 11.2040968,27.7886244 11.5191919,27.1354131 L12.2558537,25.5781052 C12.8515088,25.5641076 13.4444762,25.4934015 14.0267216,25.3669448 L15.1185168,26.7082932 C15.3128863,26.9525504 15.5802526,27.1282722 15.8815737,27.2097992 L15.8815737,27.2097992 C16.2635513,27.3171033 16.6726466,27.2660745 17.0165608,27.0682257 L18.8738124,26.0220219 C19.5117393,25.6658016 19.7972881,24.899596 19.548086,24.2127613 L18.9577967,22.5930651 C19.3678836,22.1613723 19.7366259,21.69221 20.0591901,21.1917279 L21.7700692,21.3788928 C22.4957241,21.4574516 23.171747,20.9996643 23.3681694,20.2966958 L23.9392623,18.2474802 C24.1465857,17.5454012 23.8087804,16.7973308 23.1450113,16.4886101 L23.1450113,16.4886101 Z M22.0556156,19.9247656 C22.0376339,19.9869169 21.9785627,20.0279663 21.9140422,20.0231471 L19.7760432,19.7831921 C19.5094176,19.7537496 19.2505719,19.8845843 19.116167,20.1167296 C18.7331247,20.782798 18.2545273,21.3891291 17.6956334,21.916392 C17.5035367,22.1026642 17.4362345,22.38309 17.5228658,22.636257 L18.2427308,24.6662762 C18.2617507,24.7265865 18.2369455,24.7920723 18.1827421,24.8246465 L16.3302895,25.8756494 C16.298899,25.8931603 16.2620938,25.8982959 16.2271089,25.8900467 C16.2004363,25.8823777 16.1774297,25.8653358 16.162321,25.8420557 L14.8113744,24.1623707 C14.6446209,23.9480458 14.3662164,23.8536714 14.1035072,23.9224158 C13.3612941,24.1214969 12.5946157,24.2144032 11.8263343,24.198364 C11.5575784,24.189381 11.3097075,24.3426447 11.1976522,24.5870911 L10.2858232,26.554722 C10.2595728,26.6133927 10.1936721,26.643254 10.132252,26.624309 L8.08303641,26.0532161 C8.02088512,26.0352343 7.97983568,25.9761632 7.98465486,25.9116426 L8.22460985,23.7736437 C8.25405236,23.507018 8.12321764,23.2481724 7.89107241,23.1137674 C7.24012585,22.7428889 6.6420668,22.2860719 6.11300592,21.7556222 C6.03028264,21.6687781 5.92460524,21.6072023 5.80826308,21.5780555 C5.67273494,21.5382301 5.52796405,21.5432802 5.39554049,21.5924528 L3.36072215,22.3147173 C3.33476659,22.3215291 3.30749256,22.3215291 3.281537,22.3147173 C3.24775446,22.3041785 3.21937156,22.2809562 3.20235185,22.2499295 L2.14894944,20.3974769 C2.11735532,20.3408386 2.13159538,20.2696383 2.18254313,20.2295084 L3.84063214,18.8761623 C4.05752141,18.7058857 4.1519326,18.4226521 4.08058713,18.1562973 C3.87811264,17.4162159 3.78196703,16.6510907 3.79504069,15.8839235 C3.78863393,15.6242855 3.63768555,15.3899914 3.40391405,15.2768374 L1.44108221,14.3410129 C1.38241151,14.3147624 1.35255028,14.2488618 1.37149526,14.1874417 L1.94258814,12.1382261 C1.9605699,12.0760748 2.01964104,12.0350253 2.08416159,12.0398445 L4.20776327,12.2797995 C4.47696981,12.3096714 4.73818292,12.1767073 4.8724386,11.941463 C5.25173839,11.2739158 5.72532472,10.6645573 6.27857486,10.1322023 C6.47057153,9.9456488 6.53453809,9.66344337 6.44174426,9.41233734 L5.70988153,7.3583226 C5.68776081,7.29951971 5.70854469,7.23320922 5.76027208,7.19755275 L7.62712192,6.15854764 C7.65851239,6.14103675 7.69531767,6.13590114 7.73030257,6.14415034 C7.75697512,6.15181931 7.77998168,6.16886121 7.79509042,6.19214133 L9.14123793,7.87182628 C9.31151451,8.08871556 9.59474807,8.18312675 9.8611029,8.11178128 C10.6011843,7.90930679 11.3663095,7.81316117 12.1334767,7.82623484 C12.4003846,7.82844725 12.6448722,7.67727554 12.7621588,7.43750775 L13.6787868,5.43868266 C13.7050373,5.38001196 13.770938,5.35015073 13.832358,5.36909571 L15.8887723,5.94258814 C15.9509236,5.9605699 15.991973,6.01964104 15.9871539,6.08416159 L15.7471989,8.20776327 C15.717327,8.47696981 15.8502911,8.73818292 16.0855354,8.8724386 C16.7669282,9.2617794 17.3891158,9.7466009 17.9331889,10.3121686 C18.1194611,10.5042653 18.3998869,10.5715675 18.6530538,10.4849362 L20.678274,9.75787253 C20.7042295,9.75106068 20.7315036,9.75106068 20.7574591,9.75787253 C20.7912417,9.76841131 20.8196246,9.79163368 20.8366443,9.82266038 L21.882848,11.679912 C21.9144422,11.7365503 21.9002021,11.8077506 21.8492543,11.8478805 L20.1695694,13.1988271 C19.9552444,13.3655806 19.86087,13.6439851 19.9296144,13.9066944 C20.1286956,14.6489074 20.2216018,15.4155858 20.2055626,16.1838672 C20.1965797,16.4526231 20.3498433,16.700494 20.5942897,16.8125493 L22.5571216,17.7171796 C22.6157923,17.7434301 22.6456535,17.8093308 22.6267085,17.8707508 L22.0556156,19.9199665 L22.0556156,19.9247656 Z M13.4124368,10.9768439 C10.6351821,10.2022208 7.75573488,11.8253001 6.98049662,14.6023831 C6.20525837,17.3794661 7.82769981,20.2592728 10.604611,21.0351262 C13.3815222,21.8109796 16.2616883,20.1891761 17.0381567,17.4124368 C17.8136872,14.6341297 16.1905464,11.7530816 13.4124368,10.9768439 Z M10.9648959,19.7136052 C9.46304528,19.2925488 8.3627577,18.0081982 8.17716227,16.459522 C7.99156683,14.9108458 8.75721928,13.4028784 10.1170506,12.6388742 C11.476882,11.8748701 13.1630535,12.0053109 14.3892038,12.9693644 C15.615354,13.9334179 16.1399747,15.5411997 15.7184043,17.0429061 C15.1429423,19.0928006 13.0149872,20.2883655 10.9648959,19.7136052 Z" id="path-1"></path>
    </defs>
    <g id="Style-" stroke="none" stroke-width="1" fill="none" fill-rule="evenodd">
        <g id="Style_Icons" transform="translate(-317.000000, -2848.000000)">
            <g id="Header" transform="translate(165.000000, 2744.000000)">
                <g id="Icon-/-Header-/-Header-Back-Arrow" transform="translate(152.000000, 104.000000)">
                    <g id="header-/-icon-/-search---white">
                        <rect id="frame" x="0" y="0" width="24" height="32"></rect>
                    </g>
                    <mask id="mask-2" fill="white">
                        <use xlink:href="#path-1"></use>
                    </mask>
                    <use id="Combined-Shape" fill="#FFFFFF" fill-rule="nonzero" xlink:href="#path-1"></use>
                </g>
            </g>
        </g>
    </g>
</svg>