<?xml version="1.0" encoding="UTF-8"?>
<svg width="32px" height="32px" viewBox="0 0 32 32" version="1.1" xmlns="http://www.w3.org/2000/svg" xmlns:xlink="http://www.w3.org/1999/xlink">
    <!-- Generator: Sketch 51.3 (57544) - http://www.bohemiancoding.com/sketch -->
    <title>help - light</title>
    <desc>Created with Sketch.</desc>
    <defs></defs>
    <g id="Style-" stroke="none" stroke-width="1" fill="none" fill-rule="evenodd">
        <g id="Style_Icons" transform="translate(-205.000000, -1520.000000)" fill="#009BDF">
            <g id="Alerts-Notifications" transform="translate(165.000000, 1376.000000)">
                <g id="Help" transform="translate(0.000000, 120.000000)">
                    <g id="Icon-/-Alerts-Notifications-/-Help---light" transform="translate(40.000000, 24.000000)">
                        <g id="help---light">
                            <path d="M16,32 C7.163444,32 0,24.836556 0,16 C0,7.163444 7.163444,0 16,0 C24.836556,0 32,7.163444 32,16 C32,24.836556 24.836556,32 16,32 Z M16,30.6086957 C24.0681598,30.6086957 30.6086957,24.0681598 30.6086957,16 C30.6086957,7.93184018 24.0681598,1.39130435 16,1.39130435 C7.93184018,1.39130435 1.39130435,7.93184018 1.39130435,16 C1.39130435,24.0681598 7.93184018,30.6086957 16,30.6086957 Z" id="Combined-Shape"></path>
                            <g id="Group" transform="translate(9.739130, 6.956522)">
                                <path d="M5.82514362,18.0507371 C5.34222093,18.0507371 4.9206595,17.8941517 4.56044667,17.5809762 C4.20023385,17.2678006 4.02013014,16.8297579 4.02013014,16.2668349 C4.02013014,15.7673397 4.19429636,15.3471359 4.54263404,15.0062106 C4.89097172,14.6652854 5.31847064,14.4948253 5.82514362,14.4948253 C6.32389984,14.4948253 6.74348211,14.6652854 7.08390302,15.0062106 C7.42432394,15.3471359 7.59453184,15.7673397 7.59453184,16.2668349 C7.59453184,16.8218294 7.41640729,17.2578901 7.06015285,17.5750298 C6.7038984,17.8921696 6.29223278,18.0507371 5.82514362,18.0507371 L5.82514362,18.0507371 Z" id="?"></path>
                                <path d="M0.0301003344,5.01635823 C0.0301003344,4.2631513 0.271558057,3.50004521 0.754480745,2.72701705 C1.23740343,1.9539889 1.94198498,1.31377261 2.86824653,0.806349003 C3.79450808,0.298925391 4.87513035,0.0452173913 6.11014575,0.0452173913 C7.25807673,0.0452173913 8.2714075,0.257301423 9.15016846,0.681475848 C10.0289294,1.10565027 10.7077819,1.68243955 11.1867462,2.411861 C11.6657105,3.14128244 11.905189,3.93411994 11.905189,4.79039728 C11.905189,5.46431926 11.7686269,6.0549832 11.4954985,6.56240681 C11.2223701,7.06983042 10.8977876,7.50787314 10.5217412,7.87654811 C10.1456948,8.24522308 9.47080072,8.86561842 8.49703858,9.73775275 C8.22786856,9.98353607 8.01213994,10.1995843 7.84984625,10.3859039 C7.68755255,10.5722235 7.56682369,10.7426836 7.48765604,10.8972892 C7.40848839,11.0518948 7.34713437,11.2064981 7.30359216,11.3611038 C7.26004996,11.5157094 7.19473762,11.7872562 7.1076532,12.1757524 C6.95723466,13.0003158 6.48619418,13.4125913 5.69451765,13.4125913 C5.28284585,13.4125913 4.93649256,13.2778089 4.65544738,13.0082401 C4.37440221,12.7386714 4.23388174,12.3382884 4.23388174,11.8070793 C4.23388174,11.1410858 4.33679814,10.5642966 4.54263404,10.0766942 C4.74846994,9.5890918 5.02159425,9.16095955 5.36201516,8.79228458 C5.70243607,8.42360961 6.16160158,7.98556689 6.73952545,7.47814328 C7.24619844,7.03414762 7.61234334,6.69917378 7.83797116,6.4732117 C8.06359897,6.24724963 8.25359849,5.99552372 8.40797541,5.71802643 C8.56235234,5.44052914 8.63953964,5.13925089 8.63953964,4.81418264 C8.63953964,4.17990313 8.40401941,3.64473782 7.93297187,3.20867065 C7.46192433,2.77260348 6.8543217,2.55457317 6.11014575,2.55457317 C5.23930156,2.55457317 4.59805318,2.77458558 4.18638138,3.21461699 C3.77470958,3.6546484 3.42637713,4.30279306 3.14137357,5.1590704 C2.87220355,6.05499022 2.36157984,6.50294341 1.60948713,6.50294341 C1.16614827,6.50294341 0.792086717,6.346358 0.48729125,6.03318249 C0.182495782,5.72000698 0.0301003344,5.38106895 0.0301003344,5.01635823 L0.0301003344,5.01635823 Z" id="?"></path>
                            </g>
                        </g>
                    </g>
                </g>
            </g>
        </g>
    </g>
</svg>