<?xml version="1.0" encoding="UTF-8"?>
<svg width="33px" height="32px" viewBox="0 0 33 32" version="1.1" xmlns="http://www.w3.org/2000/svg" xmlns:xlink="http://www.w3.org/1999/xlink">
    <!-- Generator: Sketch 51.3 (57544) - http://www.bohemiancoding.com/sketch -->
    <title>Icon / iOS / Billing</title>
    <desc>Created with Sketch.</desc>
    <defs>
        <path d="M15.5,5 C22.1242017,5.00775604 27.492244,10.3757983 27.5,17 C27.5,23.627417 22.127417,29 15.5,29 C8.872583,29 3.5,23.627417 3.5,17 C3.5,10.372583 8.872583,5 15.5,5 Z M15.5,26.9892761 C21.0143984,26.9831813 25.4831813,22.5143984 25.4892761,17 C25.4892761,11.4830751 21.0169249,7.01072386 15.5,7.01072386 C9.98307513,7.01072386 5.51072386,11.4830751 5.51072386,17 C5.51072386,22.5169249 9.98307513,26.9892761 15.5,26.9892761 Z M16.1453304,11.6000892 C17.6334845,11.8466051 18.5645514,12.7563202 18.9773524,14.3615855 C19.0666877,14.7078492 18.8584061,15.0609719 18.5121425,15.1503072 C18.1658788,15.2396425 17.8127561,15.0313609 17.7234208,14.6850973 C17.4633173,13.6673293 16.987108,13.1199474 16.1459775,12.916135 L16.1459775,16.5782881 C18.1905718,17.5061198 18.8330661,18.2961355 18.7683638,19.7648789 C18.7056025,21.2019182 17.6393077,22.2500963 16.1459775,22.4383801 L16.1459775,23.3629767 C16.1459775,23.7203179 15.8562952,24.0100002 15.4989539,24.0100002 C15.1416127,24.0100002 14.8519304,23.7203179 14.8519304,23.3629767 L14.8519304,22.406676 C13.3618353,22.1627481 12.4327095,21.2497979 12.0205555,19.6393564 C11.9627657,19.4154786 12.028803,19.1777766 12.1937919,19.0157903 C12.3587808,18.853804 12.5976555,18.792143 12.8204342,18.8540344 C13.0432129,18.9159258 13.2160503,19.0919669 13.2738401,19.3158446 C13.5339435,20.3336126 14.0101528,20.8809945 14.8512834,21.0848069 L14.8512834,17.4226538 C13.8639255,16.9749135 13.2583115,16.5899345 12.8655682,16.1693692 C12.2586602,15.5178166 12.2030161,14.8267954 12.2288971,14.236063 C12.2916584,12.7990237 13.3566591,11.7508456 14.8512834,11.5625618 L14.8512834,10.6470235 C14.8512834,10.2896823 15.1409657,10 15.4983069,10 C15.8556481,10 16.1453304,10.2896823 16.1453304,10.6470235 L16.1453304,11.6000892 Z M14.8512834,15.9869086 L14.8512834,12.8747255 C14.1499099,13.0138355 13.5578834,13.4622228 13.5216501,14.293001 C13.4964162,14.869499 13.4789465,15.2823 14.8512834,15.9869086 Z M17.4749638,19.710529 C17.4387304,20.5413072 16.8467039,20.9890474 16.1453304,21.1288045 L16.1453304,18.0146803 C17.4484358,18.6791735 17.5040798,19.079034 17.4749638,19.710529 Z" id="path-1"></path>
    </defs>
    <g id="Style-" stroke="none" stroke-width="1" fill="none" fill-rule="evenodd">
        <g id="Style_Icons" transform="translate(-165.000000, -3912.000000)">
            <g id="iOS" transform="translate(165.000000, 3840.000000)">
                <g id="Billing" transform="translate(0.000000, 48.000000)">
                    <g id="Icon-/-iOS-/-Billing" transform="translate(0.000000, 24.000000)">
                        <g id="Icon-/-Billing" transform="translate(0.500000, 0.000000)">
                            <rect id="frame" x="0" y="0" width="32" height="32"></rect>
                            <mask id="mask-2" fill="white">
                                <use xlink:href="#path-1"></use>
                            </mask>
                            <use id="Combined-Shape" fill="#979AA0" xlink:href="#path-1"></use>
                            <g id="Color-/-Global-Grey---medium-dark" mask="url(#mask-2)" fill="#747981">
                                <g transform="translate(-0.500000, 0.000000)" id="color">
                                    <rect x="0" y="0" width="32" height="32"></rect>
                                </g>
                            </g>
                        </g>
                    </g>
                </g>
            </g>
        </g>
    </g>
</svg>