<?xml version="1.0" encoding="UTF-8"?>
<svg width="118px" height="117px" viewBox="0 0 118 117" version="1.1" xmlns="http://www.w3.org/2000/svg" xmlns:xlink="http://www.w3.org/1999/xlink">
    <!-- Generator: Sketch 51.3 (57544) - http://www.bohemiancoding.com/sketch -->
    <title>Icon / iOS / iOS - Touch ID Accredo</title>
    <desc>Created with Sketch.</desc>
    <defs></defs>
    <g id="Style-" stroke="none" stroke-width="1" fill="none" fill-rule="evenodd" stroke-linecap="round">
        <g id="Style_Icons" transform="translate(-162.000000, -3989.000000)" stroke="#007C89" stroke-width="4.48799992">
            <g id="iOS" transform="translate(165.000000, 3840.000000)">
                <g id="Touch-ID" transform="translate(0.000000, 120.000000)">
                    <g id="Icon-/-iOS-/-iOS---Touch-ID-Accredo" transform="translate(0.000000, 32.000000)">
                        <g id="icon-/-iOS-/-Touch-ID-/-Teal">
                            <path d="M111.996536,55.9982679 C111.996536,28.3980366 92.0289006,5.46149641 65.7513578,0.846374946 M55.2545226,0.00483804308 C33.5784775,0.286989499 14.8729873,12.8848746 5.81533588,31.1212097 M2.15561082,40.5583378 C0.751796597,45.4628703 0,50.6427734 0,55.9982679 C0,62.4944502 1.10615908,68.7322751 3.14039734,74.5336628 M101.586971,46.4132529 C97.1678554,25.2883024 78.4359168,9.4222707 55.9982679,9.4222707 C49.7881396,9.4222707 43.8618803,10.6376582 38.4443782,12.8435449 M29.0918606,17.9756365 C17.1899962,26.4132064 5.99599065,44.3151659 10.4929833,65.9558949 M10.0532116,87.5691435 C10.9018049,83.7840921 11.3495533,79.84756 11.3495533,75.8064507 C11.3495533,72.3628164 11.024416,68.9951221 10.403165,65.7323914 M92.2810386,47.964079 C90.0427681,37.8102638 83.6508617,29.2151783 74.9779706,24.0514734 M65.7197505,20.1293142 C62.6210911,19.2915179 59.361878,18.8445414 55.9982679,18.8445414 C35.4788314,18.8445414 18.8445414,35.4788314 18.8445414,55.9982679 C18.8445414,55.9982679 18.6303989,57.6043368 19.7011115,64.4568973 M77.9175631,38.4635824 C72.7745876,32.1127191 64.9141011,28.0526696 56.1053392,28.0526696 C40.6122776,28.0526696 28.0526696,40.6122776 28.0526696,56.1053392 C28.0526696,56.1053392 28.2668121,61.2447596 29.1233822,64.2427548 M74.4851686,52.9264702 C73.019533,44.0394065 65.3005149,37.2607978 55.9982679,37.2607978 C53.7906188,37.2607978 51.6721417,37.6425881 49.7052613,38.3437439 M41.7196766,43.8644853 C38.9388238,47.1336893 37.2607978,51.3700167 37.2607978,55.9982679 C37.2607978,55.9982679 37.4749403,61.24476 38.5456529,64.2427552 M64.9181259,54.0860725 C64.0823533,49.9839378 60.4543181,46.897211 56.1053392,46.897211 C51.1380981,46.897211 47.1113535,50.9239556 47.1113535,55.8911967 C47.1113535,55.8911967 47.1113535,57.6043368 47.5396386,59.745762 M104.797371,83.0048605 C104.885375,80.973285 104.929833,78.9304159 104.929833,76.8771633 C104.929833,75.9362089 104.920496,74.9974353 104.90191,74.06093 M104.306951,63.6225224 C103.755288,57.7826318 102.842816,52.0477761 101.592066,46.4404865 M93.8497796,97.3571208 C94.9405875,90.6202724 95.5075621,83.7078586 95.5075621,76.6630207 C95.5075621,66.8046374 94.3972808,57.2055742 92.2949402,47.9840531 M82.2514562,105.020745 C84.8895344,95.5189514 86.299434,85.5061371 86.299434,75.1640231 C86.299434,65.8062588 85.1451471,56.7180925 82.9711883,48.0341394 M70.6743722,109.916643 C74.5537702,98.8370042 76.6630207,86.9256208 76.6630207,74.5215956 C76.6630207,67.1513256 75.9183408,59.9549849 74.5001175,53.0037103 M60.2099889,111.579096 C63.4577971,103.572361 65.660431,95.0300398 66.6486223,86.1213994 M67.24075,75.3781656 C67.24075,68.0510475 66.4229883,60.9149278 64.8737545,54.0560962 M50.2749343,111.533406 C50.2749343,111.533406 52.0014855,107.226336 52.7495038,105.017257 M55.4181021,95.5626287 C56.9889683,88.6587026 57.8184793,81.4728779 57.8184793,74.0933105 C57.8184793,67.9444022 57.2425669,61.9300054 56.1417401,56.1011181 M40.6955681,109.461893 C45.7751426,98.5143167 48.6103511,86.3136991 48.6103511,73.450883 C48.6103511,68.7706804 48.2349961,64.1781466 47.5127476,59.7017431 M31.9072349,106.214687 C36.6183702,97.0065583 39.4022229,86.2309134 39.4022229,75.1640231 C39.4022229,71.4182463 39.0816437,67.7473449 38.466425,64.1772585 M29.7098477,80.6663845 C29.8886022,78.7134688 29.9799522,76.7352714 29.9799522,74.7357381 C29.9799522,71.0547065 29.6703595,67.4459842 29.075792,63.934189 M24.0976403,101.627794 C25.6660003,98.2298295 26.9463309,94.6716133 27.9073247,90.9844526 M16.806424,95.4215212 C19.3627392,89.1727009 20.7718241,82.3329167 20.7718241,75.1640231 C20.7718241,71.4691059 20.3975047,67.8616156 19.6847183,64.3774047" id="icon-/-iOS-/-Touch-ID-"></path>
                        </g>
                    </g>
                </g>
            </g>
        </g>
    </g>
</svg>