<?xml version="1.0" encoding="UTF-8"?>
<svg width="24px" height="24px" viewBox="0 0 24 24" version="1.1" xmlns="http://www.w3.org/2000/svg" xmlns:xlink="http://www.w3.org/1999/xlink">
    <!-- Generator: Sketch 51.3 (57544) - http://www.bohemiancoding.com/sketch -->
    <title>Icon / Language Globe</title>
    <desc>Created with Sketch.</desc>
    <defs>
        <path d="M15.2991969,15 C15.4475316,14.0840993 15.5333333,13.0859086 15.5333333,12.0021484 C15.5333333,10.9167786 15.4472766,9.9171533 15.2985355,9 L8.7014645,9 C8.55272343,9.9171533 8.46666667,10.9167786 8.46666667,12.0021484 C8.46666667,13.0859086 8.55246835,14.0840993 8.70080311,15 L15.2991969,15 Z M17.3330017,15 L21.6208401,15 C21.910628,14.0624156 22.0666667,13.0660969 22.0666667,12.0333333 C22.0666667,10.9760551 21.9031323,9.9569724 21.5999783,9 L17.3324356,9 C17.4597083,9.91703819 17.5333333,10.9166454 17.5333333,12.0021484 C17.5333333,13.0860412 17.4599266,14.0842139 17.3330017,15 Z M12.2242063,2.00177925 C12.1607244,2.00059483 12.0970983,2 12.0333333,2 C11.9468088,2 11.86054,2.00109524 11.7745402,2.00327261 C10.9150125,3.02741351 9.84040762,4.66484744 9.15367236,7 L14.8463276,7 C14.1592585,4.6637121 13.0839425,3.02582145 12.2242063,2.00177925 Z M15.0037042,2.44697221 C15.6766531,3.47716209 16.4358113,4.97619647 16.9453604,7 L20.7147228,7 C19.4621799,4.84429691 17.4297269,3.19784081 15.0037042,2.44697221 Z M12.1680686,22.0657805 C13.0371278,21.0470215 14.1453533,19.3887466 14.8474051,17 L9.15259493,17 C9.85439089,19.3878763 10.9620648,21.0458131 11.8309814,22.0646668 C11.8982717,22.065998 11.9657244,22.0666667 12.0333333,22.0666667 C12.0783148,22.0666667 12.1232272,22.0663707 12.1680686,22.0657805 Z M14.9499195,21.6361747 C17.4246886,20.8855181 19.4948139,19.2044004 20.7531171,17 L16.9462831,17 C16.4231127,19.0792229 15.6362842,20.6042714 14.9499195,21.6361747 Z M6.66699834,15 C6.54007342,14.0842139 6.46666667,13.0860412 6.46666667,12.0021484 C6.46666667,10.9166454 6.5402917,9.91703819 6.6675644,9 L2.46668839,9 C2.1635344,9.9569724 2,10.9760551 2,12.0333333 C2,13.0660969 2.1560387,14.0624156 2.44582655,15 L6.66699834,15 Z M8.97912919,2.47332521 C6.59013339,3.23590986 4.59003203,4.86917439 3.35194389,7 L7.05463958,7 C7.55986059,4.99338678 8.31046829,3.50266572 8.97912919,2.47332521 Z M9.03295375,21.6103546 C8.35066061,20.5788941 7.57254096,19.0619495 7.05371691,17 L3.31354959,17 C4.55762472,19.1794745 6.59526659,20.8474332 9.03295375,21.6103546 Z M12,24 C5.372583,24 0,18.627417 0,12 C0,5.372583 5.372583,0 12,0 C18.627417,0 24,5.372583 24,12 C24,18.627417 18.627417,24 12,24 Z" id="path-1"></path>
    </defs>
    <g id="Style-" stroke="none" stroke-width="1" fill="none" fill-rule="evenodd">
        <g id="Style_Icons" transform="translate(-165.000000, -2968.000000)">
            <g id="Language-Globe" transform="translate(165.000000, 2920.000000)">
                <g id="Icon-/-Language-Globe" transform="translate(0.000000, 48.000000)">
                    <g id="Group-2">
                        <mask id="mask-2" fill="white">
                            <use xlink:href="#path-1"></use>
                        </mask>
                        <use id="Combined-Shape" fill="#FFFFFF" xlink:href="#path-1"></use>
                        <g id="Color-/-Global-Grey---medium-dark" mask="url(#mask-2)" fill="#747981">
                            <rect id="color" x="0" y="0" width="24" height="24"></rect>
                        </g>
                    </g>
                </g>
            </g>
        </g>
    </g>
</svg>