<?xml version="1.0" encoding="UTF-8"?>
<svg width="144px" height="144px" viewBox="0 0 144 144" version="1.1" xmlns="http://www.w3.org/2000/svg" xmlns:xlink="http://www.w3.org/1999/xlink">
    <!-- Generator: Sketch 51.3 (57544) - http://www.bohemiancoding.com/sketch -->
    <title>Icon / Med</title>
    <desc>Created with Sketch.</desc>
    <defs>
        <path d="M74.5,130 C42.7436269,130 17,104.256373 17,72.5 C17,40.7436269 42.7436269,15 74.5,15 C106.256373,15 132,40.7436269 132,72.5 C132,104.256373 106.256373,130 74.5,130 Z M74.5,125.208333 C103.610009,125.208333 127.208333,101.610009 127.208333,72.5 C127.208333,43.3899913 103.610009,19.7916667 74.5,19.7916667 C45.3899913,19.7916667 21.7916667,43.3899913 21.7916667,72.5 C21.7916667,101.610009 45.3899913,125.208333 74.5,125.208333 Z M95.6956594,83.9192054 L87.4294355,93.148263 L94.362806,101.989438 L88.6633538,101.989438 L84.3909412,96.5408439 L79.5106715,101.989438 L73.6228469,101.989438 L73.5492392,101.922808 L81.5803934,92.9555117 L64.7709273,71.5204603 L57.4251953,71.5204603 L57.4251953,93.4417525 L52.9375,93.4417525 L52.9375,71.5196671 L52.9375,46.1526485 L52.9375,43.75 L69.24121,43.75 C76.8805813,43.75 83.0952874,49.9791181 83.0952874,57.6352302 C83.0952874,64.8915618 77.5105999,70.8557461 70.4236821,71.460176 L84.6196791,89.5629307 L89.6748661,83.9192054 L95.6956594,83.9192054 Z M57.4251953,48.2475296 L57.4251953,67.0229307 L69.24121,67.0229307 C74.4064128,67.0229307 78.6075921,62.8117518 78.6075921,57.6352302 C78.6075921,52.4587085 74.4064128,48.2475296 69.24121,48.2475296 L57.4251953,48.2475296 Z" id="path-1"></path>
    </defs>
    <g id="Style-" stroke="none" stroke-width="1" fill="none" fill-rule="evenodd">
        <g id="Style_Icons" transform="translate(-165.000000, -3072.000000)">
            <g id="Med" transform="translate(165.000000, 3024.000000)">
                <g id="Icon-/-Med" transform="translate(0.000000, 48.000000)">
                    <g id="Icon-/-Med-/-General-Rx">
                        <mask id="mask-2" fill="white">
                            <use xlink:href="#path-1"></use>
                        </mask>
                        <use id="Mask" fill="#979AA0" fill-rule="nonzero" xlink:href="#path-1"></use>
                    </g>
                </g>
            </g>
        </g>
    </g>
</svg>