<?xml version="1.0" encoding="UTF-8"?>
<svg width="57px" height="56px" viewBox="0 0 57 56" version="1.1" xmlns="http://www.w3.org/2000/svg" xmlns:xlink="http://www.w3.org/1999/xlink">
    <!-- Generator: Sketch 51.3 (57544) - http://www.bohemiancoding.com/sketch -->
    <title>Icon / Menu</title>
    <desc>Created with Sketch.</desc>
    <defs>
        <rect id="path-1" x="0" y="0" width="56" height="56"></rect>
        <path d="M0,1.5 C0,0.671572875 0.666946292,0 1.50130749,0 L22.4986925,0 C23.3278417,0 24,0.665797234 24,1.5 C24,2.32842712 23.3330537,3 22.4986925,3 L1.50130749,3 C0.672158257,3 0,2.33420277 0,1.5 Z M0,9 C0,8.17157288 0.666946292,7.5 1.50130749,7.5 L22.4986925,7.5 C23.3278417,7.5 24,8.16579723 24,9 C24,9.82842712 23.3330537,10.5 22.4986925,10.5 L1.50130749,10.5 C0.672158257,10.5 0,9.83420277 0,9 Z M0,16.5 C0,15.6715729 0.666946292,15 1.50130749,15 L22.4986925,15 C23.3278417,15 24,15.6657972 24,16.5 C24,17.3284271 23.3330537,18 22.4986925,18 L1.50130749,18 C0.672158257,18 0,17.3342028 0,16.5 Z" id="path-3"></path>
    </defs>
    <g id="Style-" stroke="none" stroke-width="1" fill="none" fill-rule="evenodd">
        <g id="Style_Icons" transform="translate(-523.000000, -3296.000000)">
            <g id="Menu-RWD" transform="translate(450.000000, 3248.000000)">
                <g id="Icon-/-Menu" transform="translate(73.000000, 48.000000)">
                    <g id="Icon-/-Menu_RWD">
                        <g id="Group-3">
                            <mask id="mask-2" fill="white">
                                <use xlink:href="#path-1"></use>
                            </mask>
                            <use id="Rectangle" fill="#009BDF" xlink:href="#path-1"></use>
                            <g id="Color-/-Accredo-Teal---medium-action" mask="url(#mask-2)" fill="#15A4A7">
                                <rect id="color" x="0" y="0" width="56" height="56"></rect>
                            </g>
                        </g>
                        <rect id="Rectangle-2" fill-opacity="0.3" fill="#FFFFFF" x="56" y="0" width="1" height="56"></rect>
                        <g id="Icon-/-Menu" transform="translate(16.000000, 8.000000)">
                            <g id="Group-2" transform="translate(0.000000, 3.000000)">
                                <mask id="mask-4" fill="white">
                                    <use xlink:href="#path-3"></use>
                                </mask>
                                <g id="Combined-Shape">
                                    <use fill="#D8D8D8" xlink:href="#path-3"></use>
                                    <use fill="#FFFFFF" xlink:href="#path-3"></use>
                                </g>
                                <g id="Color-/-Global-White" mask="url(#mask-4)" fill="#FFFFFF">
                                    <g transform="translate(0.000000, -3.000000)" id="color">
                                        <rect x="0" y="0" width="24" height="24"></rect>
                                    </g>
                                </g>
                            </g>
                        </g>
                        <path d="M18.52,38.984 C18.6480006,38.7279987 18.8239989,38.6 19.048,38.6 L19.504,38.6 C19.5920004,38.6 19.6679997,38.6319997 19.732,38.696 C19.7960003,38.7600003 19.828,38.8359996 19.828,38.924 L19.828,46.676 C19.828,46.7640004 19.7960003,46.8399997 19.732,46.904 C19.6679997,46.9680003 19.5920004,47 19.504,47 L19.012,47 C18.9239996,47 18.8480003,46.9680003 18.784,46.904 C18.7199997,46.8399997 18.688,46.7640004 18.688,46.676 L18.688,40.988 L16.816,44.6 C16.7519997,44.7280006 16.6820004,44.8239997 16.606,44.888 C16.5299996,44.9520003 16.4360006,44.984 16.324,44.984 L15.868,44.984 C15.7559994,44.984 15.6620004,44.9520003 15.586,44.888 C15.5099996,44.8239997 15.4400003,44.7280006 15.376,44.6 L13.504,40.988 L13.504,46.676 C13.504,46.7640004 13.4720003,46.8399997 13.408,46.904 C13.3439997,46.9680003 13.2680004,47 13.18,47 L12.688,47 C12.5999996,47 12.5240003,46.9680003 12.46,46.904 C12.3959997,46.8399997 12.364,46.7640004 12.364,46.676 L12.364,38.924 C12.364,38.8359996 12.3959997,38.7600003 12.46,38.696 C12.5240003,38.6319997 12.5999996,38.6 12.688,38.6 L13.144,38.6 C13.3680011,38.6 13.5439994,38.7279987 13.672,38.984 L16.096,43.676 L18.52,38.984 Z M23.032,43.292 L26.704,43.292 C26.7920004,43.292 26.8679997,43.2600003 26.932,43.196 C26.9960003,43.1319997 27.028,43.0560004 27.028,42.968 L27.028,42.536 C27.028,42.4479996 26.9960003,42.3720003 26.932,42.308 C26.8679997,42.2439997 26.7920004,42.212 26.704,42.212 L23.032,42.212 L23.032,39.68 L26.968,39.68 C27.0560004,39.68 27.1319997,39.6480003 27.196,39.584 C27.2600003,39.5199997 27.292,39.4440004 27.292,39.356 L27.292,38.924 C27.292,38.8359996 27.2600003,38.7600003 27.196,38.696 C27.1319997,38.6319997 27.0560004,38.6 26.968,38.6 L22.216,38.6 C22.1279996,38.6 22.0520003,38.6319997 21.988,38.696 C21.9239997,38.7600003 21.892,38.8359996 21.892,38.924 L21.892,46.676 C21.892,46.7640004 21.9239997,46.8399997 21.988,46.904 C22.0520003,46.9680003 22.1279996,47 22.216,47 L27.064,47 C27.1520004,47 27.2279997,46.9680003 27.292,46.904 C27.3560003,46.8399997 27.388,46.7640004 27.388,46.676 L27.388,46.244 C27.388,46.1559996 27.3560003,46.0800003 27.292,46.016 C27.2279997,45.9519997 27.1520004,45.92 27.064,45.92 L23.032,45.92 L23.032,43.292 Z M34.252,46.904 C34.1799996,46.8399997 34.1080004,46.7520006 34.036,46.64 L30.136,40.772 L30.136,46.676 C30.136,46.7640004 30.1040003,46.8399997 30.04,46.904 C29.9759997,46.9680003 29.9000004,47 29.812,47 L29.32,47 C29.2319996,47 29.1560003,46.9680003 29.092,46.904 C29.0279997,46.8399997 28.996,46.7640004 28.996,46.676 L28.996,38.924 C28.996,38.8359996 29.0279997,38.7600003 29.092,38.696 C29.1560003,38.6319997 29.2319996,38.6 29.32,38.6 L29.74,38.6 C29.8440005,38.6 29.9319996,38.6319997 30.004,38.696 C30.0760004,38.7600003 30.1479996,38.8479994 30.22,38.96 L34.12,44.828 L34.12,38.924 C34.12,38.8359996 34.1519997,38.7600003 34.216,38.696 C34.2800003,38.6319997 34.3559996,38.6 34.444,38.6 L34.936,38.6 C35.0240004,38.6 35.0999997,38.6319997 35.164,38.696 C35.2280003,38.7600003 35.26,38.8359996 35.26,38.924 L35.26,46.676 C35.26,46.7640004 35.2280003,46.8399997 35.164,46.904 C35.0999997,46.9680003 35.0240004,47 34.936,47 L34.516,47 C34.4119995,47 34.3240004,46.9680003 34.252,46.904 Z M43.612,38.696 C43.6760003,38.7600003 43.708,38.8359996 43.708,38.924 L43.708,43.724 C43.708,44.7640052 43.4420027,45.5899969 42.91,46.202 C42.3779973,46.8140031 41.5680054,47.12 40.48,47.12 C39.3759945,47.12 38.5620026,46.8140031 38.038,46.202 C37.5139974,45.5899969 37.252,44.7640052 37.252,43.724 L37.252,38.924 C37.252,38.8359996 37.2839997,38.7600003 37.348,38.696 C37.4120003,38.6319997 37.4879996,38.6 37.576,38.6 L38.068,38.6 C38.1560004,38.6 38.2319997,38.6319997 38.296,38.696 C38.3600003,38.7600003 38.392,38.8359996 38.392,38.924 L38.392,43.784 C38.392,44.5520038 38.5739982,45.1299981 38.938,45.518 C39.3020018,45.9060019 39.8159967,46.1 40.48,46.1 C41.1440033,46.1 41.6599982,45.9060019 42.028,45.518 C42.3960018,45.1299981 42.58,44.5520038 42.58,43.784 L42.58,38.924 C42.58,38.8359996 42.6119997,38.7600003 42.676,38.696 C42.7400003,38.6319997 42.8159996,38.6 42.904,38.6 L43.384,38.6 C43.4720004,38.6 43.5479997,38.6319997 43.612,38.696 Z" id="MENU" fill="#FFFFFF"></path>
                    </g>
                </g>
            </g>
        </g>
    </g>
</svg>