<?xml version="1.0" encoding="UTF-8"?>
<svg width="36px" height="32px" viewBox="0 0 36 32" version="1.1" xmlns="http://www.w3.org/2000/svg" xmlns:xlink="http://www.w3.org/1999/xlink">
    <!-- Generator: Sketch 51.3 (57544) - http://www.bohemiancoding.com/sketch -->
    <title>Icon / Messages</title>
    <desc>Created with Sketch.</desc>
    <defs>
        <path d="M23.9894047,8.97086275 C23.9894047,8.95443752 23.9830476,8.93910731 23.9809285,8.92377709 C23.9788094,8.90844688 23.9703332,8.86245624 23.9629165,8.83179581 C23.9554998,8.80113539 23.9512617,8.79566031 23.9459641,8.77814007 C23.9406665,8.76061983 23.9290117,8.72448432 23.9194759,8.69820396 C23.9099402,8.67192359 23.903583,8.66206846 23.8951068,8.6434532 C23.8866306,8.62483794 23.8728567,8.59527253 23.8601424,8.5711822 C23.847428,8.54709186 23.8389518,8.53614171 23.8283565,8.51971648 C23.8177613,8.50329125 23.8008088,8.47591587 23.7849159,8.45401557 C23.769023,8.43211526 23.7594872,8.42116511 23.7467729,8.4058349 C23.7340586,8.39050469 23.7139276,8.36641435 23.6959156,8.34779909 L23.6514154,8.30399848 C23.6330503,8.28647824 23.6139788,8.26968801 23.594201,8.25362778 L23.5433436,8.21530225 L23.5157959,8.19449696 L12.7425199,0.993676954 C12.3923836,0.75968344 11.9420093,0.75968344 11.591873,0.993676954 L0.817537419,8.19449696 L0.789989703,8.21530225 L0.739132381,8.25362778 C0.719354534,8.26968801 0.699929862,8.28647824 0.680858367,8.30399848 L0.63635821,8.34779909 C0.618346242,8.36641435 0.601393801,8.38612463 0.585500888,8.4058349 C0.569607975,8.42554517 0.559012699,8.43759034 0.547357896,8.45401557 C0.535703094,8.4704408 0.517691125,8.49672116 0.503917267,8.51971648 C0.490143409,8.5427118 0.482726717,8.55366195 0.472131441,8.5711822 C0.461536166,8.58870244 0.447762308,8.61936286 0.437167032,8.6434532 C0.426571757,8.66754353 0.420214592,8.6795887 0.412797899,8.69710894 C0.405381206,8.71462919 0.393726403,8.74966967 0.38630971,8.77704505 C0.378893018,8.80442043 0.37359538,8.81208554 0.36935727,8.8307008 C0.36511916,8.84931606 0.356642939,8.89202165 0.351345302,8.92268208 C0.346047664,8.9533425 0.344988136,8.95443752 0.342869081,8.96976773 C0.336653082,9.01731585 0.333467634,9.06523479 0.333333333,9.11321472 L0.333333333,20.0929322 C0.33450147,21.3297712 1.30437167,22.3321261 2.50112668,22.3333333 L21.8332662,22.3333333 C23.0296074,22.3315228 23.998833,21.3293443 24,20.0929322 L24,9.11430974 C23.9994964,9.06630656 23.9959571,9.01838873 23.9894047,8.97086275 Z M12.1661369,3.21765284 L20.9888227,9.11430974 L12.1661369,15.0098716 L3.34345108,9.11321472 L12.1661369,3.21765284 Z M21.8322067,20.1443979 L2.50006715,20.1443979 C2.47382443,20.1427825 2.45289192,20.1211489 2.45132889,20.0940272 L2.45132889,11.1258527 L11.5897539,17.2338475 C11.9411259,17.4634736 12.3890289,17.4634736 12.7404008,17.2338475 L21.8788259,11.1258527 L21.8788259,20.0940272 C21.8773913,20.1203836 21.8576199,20.1417459 21.8322067,20.1443979 Z M11.5262593,11.6989509 C11.3590016,11.5243931 11.3548626,11.2382439 11.5169918,11.0582406 L12.3500447,10.1357059 C11.884606,9.61719289 11.0443449,8.82786424 10.4192978,8.82786424 C10.3798109,8.82741103 10.3406024,8.82073392 10.3029381,8.80804846 L9.97857263,8.80804846 L9.97857263,11.367587 C9.97857263,11.594978 9.80614869,11.7793149 9.59345298,11.7793149 C9.38075727,11.7793149 9.20833333,11.594978 9.20833333,11.367587 L9.20833333,5.53294004 C9.20833333,5.30554899 9.38075727,5.12121212 9.59345298,5.12121212 L11.6271731,5.12121212 C12.483788,5.12152482 13.2098955,5.79504577 13.3310029,6.70164636 C13.4521103,7.60824695 12.9313764,8.47213646 12.1090875,8.72878533 C12.3950265,8.96671159 12.6638553,9.22725058 12.9133079,9.50820609 L13.7031121,8.63300905 C13.8663305,8.4524338 14.13557,8.44750501 14.3044754,8.62200028 C14.4733808,8.79649555 14.4779911,9.08433708 14.3147727,9.26491232 L13.4909874,10.1764383 L14.298297,11.0714511 C14.4072782,11.1807276 14.4510714,11.3453118 14.4122075,11.4995512 C14.3733437,11.6537906 14.2581469,11.772587 14.1125689,11.8085526 C13.9669909,11.8445183 13.8147207,11.7918007 13.7164986,11.671429 L12.9287539,10.7995346 L12.1276227,11.6879421 C12.0492439,11.7746603 11.9418521,11.8245383 11.8290737,11.8266029 C11.7162953,11.8286675 11.6073692,11.7827494 11.5262593,11.6989509 Z M9.98166183,5.94576883 L9.98166183,7.98018912 L10.3049976,7.98018912 C10.3426619,7.96750366 10.3818704,7.96082655 10.4213573,7.96037334 C10.5037375,7.96047688 10.5859976,7.96710024 10.6674631,7.98018912 L11.6292325,7.98018912 C12.154716,7.98018912 12.5807046,7.52476862 12.5807046,6.96297897 C12.5807046,6.40118932 12.154716,5.94576883 11.6292325,5.94576883 L9.98166183,5.94576883 Z" id="path-1"></path>
        <rect id="path-3" x="0" y="0" width="24" height="16" rx="4"></rect>
    </defs>
    <g id="Style-" stroke="none" stroke-width="1" fill="none" fill-rule="evenodd">
        <g id="Style_Icons" transform="translate(-209.000000, -3560.000000)">
            <g id="Messages" transform="translate(165.000000, 3512.000000)">
                <g id="Icon-/-Messages" transform="translate(44.000000, 48.000000)">
                    <g id="icon" transform="translate(0.000000, 6.000000)">
                        <mask id="mask-2" fill="white">
                            <use xlink:href="#path-1"></use>
                        </mask>
                        <use id="Combined-Shape" fill="#FFFFFF" xlink:href="#path-1"></use>
                        <g id="Color-/-Global-White" mask="url(#mask-2)" fill="#FFFFFF">
                            <g transform="translate(0.000000, -5.000000)" id="color">
                                <rect x="0" y="0" width="30" height="28"></rect>
                            </g>
                        </g>
                    </g>
                    <g id="Indicator-/-Badge---ESI" transform="translate(12.000000, 0.000000)">
                        <g id="badge-bg">
                            <mask id="mask-4" fill="white">
                                <use xlink:href="#path-3"></use>
                            </mask>
                            <use id="Rectangle-4" fill="#F86C06" xlink:href="#path-3"></use>
                            <g id="Color-/-ESI-Orange---accent" mask="url(#mask-4)" fill="#F86C06">
                                <rect id="color" x="0" y="0" width="24" height="16"></rect>
                            </g>
                        </g>
                        <text id="Count-#" font-family="Rubik-Medium, Rubik" font-size="13" font-weight="400" line-spacing="16" fill="#FFFFFF">
                            <tspan x="7.762" y="12">0</tspan>
                        </text>
                    </g>
                </g>
            </g>
        </g>
    </g>
</svg>