<?xml version="1.0" encoding="UTF-8"?>
<svg width="24px" height="24px" viewBox="0 0 24 24" version="1.1" xmlns="http://www.w3.org/2000/svg" xmlns:xlink="http://www.w3.org/1999/xlink">
    <!-- Generator: Sketch 51.3 (57544) - http://www.bohemiancoding.com/sketch -->
    <title>Icon / Message / Message Center</title>
    <desc>Created with Sketch.</desc>
    <defs>
        <path d="M23.9892555,9.26750742 C23.9892555,9.25085085 23.9828088,9.23530472 23.9806599,9.21975859 C23.978511,9.20421246 23.9699154,9.15757406 23.9623942,9.1264818 C23.9548731,9.09538954 23.9505753,9.08983735 23.945203,9.07207034 C23.9398308,9.05430333 23.9280118,9.01765888 23.9183418,8.99100837 C23.9086717,8.96435786 23.902225,8.95436392 23.8936294,8.93548647 C23.8850338,8.91660903 23.8710659,8.8866272 23.8581725,8.86219757 C23.8452791,8.83776793 23.8366835,8.82666355 23.825939,8.81000698 C23.8151945,8.79335041 23.7980033,8.76558946 23.7818866,8.7433807 C23.7657698,8.72117194 23.7560997,8.71006757 23.7432063,8.69452143 C23.7303129,8.6789753 23.7098984,8.65454567 23.6916327,8.63566822 L23.6465058,8.5912507 C23.627882,8.5734837 23.6085419,8.55645698 23.5884855,8.54017056 L23.5369119,8.50130523 L23.5089761,8.48020691 L12.5839638,1.1779669 C12.228896,0.940677701 11.7721784,0.940677701 11.4171106,1.1779669 L0.491023862,8.48020691 L0.46308815,8.50130523 L0.411514527,8.54017056 C0.391458119,8.55645698 0.37175986,8.5734837 0.352419752,8.5912507 L0.307292833,8.63566822 C0.289027175,8.65454567 0.271835967,8.67453355 0.25571921,8.69452143 C0.239602453,8.71450932 0.228857949,8.72672413 0.217038994,8.7433807 C0.205220039,8.76003727 0.186954381,8.78668778 0.172986525,8.81000698 C0.159018669,8.83332618 0.151497515,8.84443056 0.140753011,8.86219757 C0.130008506,8.87996457 0.11604065,8.91105684 0.105296145,8.93548647 C0.0945516408,8.95991611 0.088104938,8.97213092 0.0805837848,8.98989793 C0.0730626315,9.00766494 0.0612436764,9.04319895 0.0537225232,9.0709599 C0.0462013699,9.09872085 0.0408291176,9.10649392 0.0365313158,9.12537136 C0.0322335139,9.14424881 0.0236379102,9.18755589 0.0182656579,9.21864815 C0.0128934056,9.24974041 0.0118189551,9.25085085 0.00967005417,9.26639698 C0.00336650581,9.31461479 0.000136192279,9.36320864 0,9.41186435 L0,20.5462258 C0.00118458915,21.800485 0.984714929,22.8169576 2.19832565,22.8181818 L21.8027488,22.8181818 C23.0159399,22.8163458 23.9988165,21.8000521 24,20.5462258 L24,9.41297479 C23.9994893,9.36429551 23.9959001,9.31570279 23.9892555,9.26750742 Z M11.9994628,3.43326639 L20.9464118,9.41297479 L11.9994628,15.3915728 L3.05251377,9.41186435 L11.9994628,3.43326639 Z M21.8016744,20.5984163 L2.1972512,20.5984163 C2.17063885,20.5967782 2.14941153,20.5748399 2.14782648,20.5473362 L2.14782648,11.4528493 L11.4149617,17.6468722 C11.7712826,17.8797325 12.2254941,17.8797325 12.5818149,17.6468722 L21.8489502,11.4528493 L21.8489502,20.5473362 C21.8474954,20.5740637 21.8274455,20.595727 21.8016744,20.5984163 Z M11.3505729,12.0340193 C11.1809594,11.857003 11.1767621,11.5668235 11.3411747,11.384285 L12.1859608,10.4487568 C11.7139666,9.92294081 10.8618709,9.12249485 10.2280203,9.12249485 C10.1879772,9.12203526 10.1482165,9.1152641 10.1100217,9.10239997 L9.78108774,9.10239997 L9.78108774,11.6979883 C9.78108774,11.9285821 9.60623529,12.1155152 9.39054387,12.1155152 C9.17485245,12.1155152 9,11.9285821 9,11.6979883 L9,5.78116326 C9,5.55056952 9.17485245,5.36363636 9.39054387,5.36363636 L11.4529079,5.36363636 C12.3215878,5.36395346 13.0579222,6.04696062 13.1807353,6.96633024 C13.3035485,7.88569985 12.7754803,8.76175682 11.9416098,9.02202046 C12.2315762,9.26329779 12.5041913,9.52750635 12.7571573,9.81241898 L13.5580855,8.92489522 C13.7236027,8.74177666 13.9966344,8.73677845 14.1679187,8.9137314 C14.3392031,9.09068435 14.3438783,9.38257998 14.1783611,9.56569854 L13.3429731,10.4900629 L14.1616533,11.3976815 C14.2721695,11.5084972 14.3165794,11.6753994 14.2771682,11.8318112 C14.237757,11.988223 14.1209377,12.1086926 13.9733093,12.1451648 C13.8256809,12.181637 13.6712661,12.1281769 13.5716606,12.0061098 L12.7728209,11.1219352 L11.9604061,12.0228555 C11.8809234,12.1107951 11.7720191,12.1613756 11.6576522,12.1634693 C11.5432854,12.1655629 11.4328251,12.1189981 11.3505729,12.0340193 Z M9.78422044,6.19980655 L9.78422044,8.26288064 L10.1121102,8.26288064 C10.150305,8.25001651 10.1900657,8.24324536 10.2301088,8.24278577 C10.3136493,8.24289077 10.397068,8.24960742 10.4796809,8.26288064 L11.4549964,8.26288064 C11.987881,8.26288064 12.4198694,7.80104578 12.4198694,7.23134359 C12.4198694,6.66164141 11.987881,6.19980655 11.4549964,6.19980655 L9.78422044,6.19980655 Z" id="path-1"></path>
    </defs>
    <g id="Style-" stroke="none" stroke-width="1" fill="none" fill-rule="evenodd">
        <g id="Style_Icons" transform="translate(-326.000000, -3456.000000)">
            <g id="Message" transform="translate(165.000000, 3384.000000)">
                <g id="Icon-/-Message-/-Message-Center" transform="translate(161.000000, 72.000000)">
                    <mask id="mask-2" fill="white">
                        <use xlink:href="#path-1"></use>
                    </mask>
                    <use id="Combined-Shape" fill="#FFFFFF" xlink:href="#path-1"></use>
                    <g id="Color-/-Global-Grey---medium-dark" mask="url(#mask-2)" fill="#747981">
                        <rect id="color" x="0" y="0" width="24" height="24"></rect>
                    </g>
                </g>
            </g>
        </g>
    </g>
</svg>