<?xml version="1.0" encoding="UTF-8"?>
<svg width="24px" height="24px" viewBox="0 0 24 24" version="1.1" xmlns="http://www.w3.org/2000/svg" xmlns:xlink="http://www.w3.org/1999/xlink">
    <!-- Generator: Sketch 51.3 (57544) - http://www.bohemiancoding.com/sketch -->
    <title>Icon / Alerts Notifications / Info - other bg</title>
    <desc>Created with Sketch.</desc>
    <defs>
        <path d="M12,24 C5.372583,24 0,18.627417 0,12 C0,5.372583 5.372583,0 12,0 C18.627417,0 24,5.372583 24,12 C24,18.627417 18.627417,24 12,24 Z M12,22.9565217 C18.0511199,22.9565217 22.9565217,18.0511199 22.9565217,12 C22.9565217,5.94888013 18.0511199,1.04347826 12,1.04347826 C5.94888013,1.04347826 1.04347826,5.94888013 1.04347826,12 C1.04347826,18.0511199 5.94888013,22.9565217 12,22.9565217 Z M10.9565217,16.9546704 L10.9565217,10.5756711 C10.9565217,9.9215634 11.4459916,9.39130435 12.0497833,9.39130435 C12.6535751,9.39130435 13.143045,9.9215634 13.143045,10.5756711 L13.143045,16.9546704 C13.143045,17.6087781 12.6535751,18.1390371 12.0497833,18.1390371 C11.4459916,18.1390371 10.9565217,17.6087781 10.9565217,16.9546704 Z M12.0604406,8.24427248 C11.3743536,8.24427248 10.8181797,7.68809856 10.8181797,7.00201161 C10.8181797,6.31644639 11.3743536,5.76027248 12.0604406,5.76027248 C12.7465276,5.76027248 13.3027015,6.31644639 13.3027015,7.00201161 C13.3027015,7.68809856 12.7465276,8.24427248 12.0604406,8.24427248 Z" id="path-1"></path>
    </defs>
    <g id="Style-" stroke="none" stroke-width="1" fill="none" fill-rule="evenodd">
        <g id="Style_Icons" transform="translate(-504.000000, -1524.000000)">
            <g id="Alerts-Notifications" transform="translate(165.000000, 1376.000000)">
                <g id="Info" transform="translate(235.000000, 120.000000)">
                    <g id="Icon-/-Alerts-Notifications-/-Info---other-bg" transform="translate(104.000000, 28.000000)">
                        <g id="info---light">
                            <mask id="mask-2" fill="white">
                                <use xlink:href="#path-1"></use>
                            </mask>
                            <use id="Combined-Shape" fill="#009BDF" xlink:href="#path-1"></use>
                            <g id="Color-/-Global-Grey---dark" mask="url(#mask-2)" fill="#515761">
                                <rect id="color" x="0" y="0" width="24" height="24"></rect>
                            </g>
                        </g>
                    </g>
                </g>
            </g>
        </g>
    </g>
</svg>