<?xml version="1.0" encoding="UTF-8"?>
<svg width="32px" height="32px" viewBox="0 0 32 32" version="1.1" xmlns="http://www.w3.org/2000/svg" xmlns:xlink="http://www.w3.org/1999/xlink">
    <!-- Generator: Sketch 51.3 (57544) - http://www.bohemiancoding.com/sketch -->
    <title>Icon / Alerts Notifications / Error - light</title>
    <desc>Created with Sketch.</desc>
    <defs></defs>
    <g id="Style-" stroke="none" stroke-width="1" fill="none" fill-rule="evenodd">
        <g id="Style_Icons" transform="translate(-412.000000, -1448.000000)" fill="#E4292F">
            <g id="Alerts-Notifications" transform="translate(165.000000, 1376.000000)">
                <g id="Error" transform="translate(207.000000, 48.000000)">
                    <g id="Icon-/-Alerts-Notifications-/-Error---light" transform="translate(40.000000, 24.000000)">
                        <g id="error---light">
                            <g id="Group-2">
                                <path d="M30.5596267,21.6649566 C30.5596267,21.7781661 30.5144069,21.888986 30.4358672,21.9678443 L21.8878932,30.5415089 C21.8078661,30.6221595 21.701064,30.6666667 21.5874195,30.6666667 L10.3024019,30.6666667 C10.1902448,30.6666667 10.0810628,30.6215621 10.0016307,30.5415089 L1.45782168,21.9663508 C1.37898452,21.8874924 1.33376472,21.7775687 1.33376472,21.6649566 L1.33376472,10.3323551 C1.33376472,10.219743 1.37928202,10.1101179 1.45901167,10.0300647 L10.0028207,1.45729626 C10.0810628,1.37813921 10.1902448,1.33333333 10.3024019,1.33333333 L21.5874195,1.33333333 C21.701064,1.33333333 21.8078661,1.37784051 21.8881907,1.45849109 L30.4346772,10.0294673 C30.5141094,10.1095205 30.5596267,10.219743 30.5596267,10.3323551 L30.5596267,21.6649566 Z M23.1280499,0.502828782 C22.8038927,0.17867163 22.3730659,0 21.9143865,0 L10.0820578,0 C9.62900821,0 9.18632925,0.183708807 8.8686908,0.502828782 L0.504014,8.86780188 C0.183708807,9.18692186 0,9.62930452 0,10.0817615 L0,21.915868 C0,22.3689177 0.183412502,22.8113003 0.502532478,23.1292351 L8.86750558,31.495986 C9.18632925,31.8165875 9.62900821,32 10.0820578,32 L21.9143865,32 C22.3730659,32 22.8038927,31.8213284 23.1277535,31.4971712 L31.498949,23.1292351 C31.8174764,22.8101151 32,22.3677324 32,21.915868 L32,10.0817615 C32,9.62308212 31.8216247,9.19195904 31.4968749,8.86780188 L23.1280499,0.502828782 Z" id="Fill-1"></path>
                            </g>
                            <g id="Group-3" transform="translate(13.866667, 7.424002)">
                                <path d="M0.711111111,10.3085878 L0.711111111,1.61424801 C0.711111111,0.722723451 1.37824045,0 2.2011862,0 C3.02413194,0 3.69126128,0.722723451 3.69126128,1.61424801 L3.69126128,10.3085878 C3.69126128,11.2001123 3.02413194,11.9228358 2.2011862,11.9228358 C1.37824045,11.9228358 0.711111111,11.2001123 0.711111111,10.3085878 Z" id="Shape"></path>
                                <path d="M2.21571164,16.9255269 C3.15082275,16.9255269 3.90886719,16.1674825 3.90886719,15.2323714 C3.90886719,14.2979714 3.15082275,13.5399269 2.21571164,13.5399269 C1.28060052,13.5399269 0.52255608,14.2979714 0.52255608,15.2323714 C0.52255608,16.1674825 1.28060052,16.9255269 2.21571164,16.9255269" id="Fill-8-Copy"></path>
                            </g>
                        </g>
                    </g>
                </g>
            </g>
        </g>
    </g>
</svg>