<?xml version="1.0" encoding="UTF-8"?>
<svg width="16px" height="16px" viewBox="0 0 16 16" version="1.1" xmlns="http://www.w3.org/2000/svg" xmlns:xlink="http://www.w3.org/1999/xlink">
    <!-- Generator: Sketch 51.3 (57544) - http://www.bohemiancoding.com/sketch -->
    <title>Icon / Alerts Notifications / Info - small inline</title>
    <desc>Created with Sketch.</desc>
    <defs></defs>
    <g id="Style-" stroke="none" stroke-width="1" fill="none" fill-rule="evenodd">
        <g id="Style_Icons" transform="translate(-480.000000, -1528.000000)">
            <g id="Alerts-Notifications" transform="translate(165.000000, 1376.000000)">
                <g id="Info" transform="translate(235.000000, 120.000000)">
                    <g id="Icon-/-Alerts-Notifications-/-Info---small-inline" transform="translate(80.000000, 32.000000)">
                        <g id="info---dark">
                            <circle id="Oval-2" fill="#14568D" cx="8" cy="8" r="8"></circle>
                            <g id="Group-3" transform="translate(6.956522, 3.826087)" fill="#FFFFFF">
                                <path d="M0.347826087,7.47702663 L0.347826087,3.22436044 C0.347826087,2.78828864 0.674139351,2.43478261 1.07666716,2.43478261 C1.47919497,2.43478261 1.80550823,2.78828864 1.80550823,3.22436044 L1.80550823,7.47702663 C1.80550823,7.91309843 1.47919497,8.26660446 1.07666716,8.26660446 C0.674139351,8.26660446 0.347826087,7.91309843 0.347826087,7.47702663 Z" id="Shape"></path>
                                <path d="M1.083772,1.67009469 C1.5411633,1.67009469 1.91194591,1.29931208 1.91194591,0.84192078 C1.91194591,0.384877302 1.5411633,0.0140946935 1.083772,0.0140946935 C0.626380691,0.0140946935 0.255598083,0.384877302 0.255598083,0.84192078 C0.255598083,1.29931208 0.626380691,1.67009469 1.083772,1.67009469" id="Fill-8-Copy"></path>
                            </g>
                        </g>
                    </g>
                </g>
            </g>
        </g>
    </g>
</svg>