<?xml version="1.0" encoding="UTF-8"?>
<svg width="16px" height="16px" viewBox="0 0 16 16" version="1.1" xmlns="http://www.w3.org/2000/svg" xmlns:xlink="http://www.w3.org/1999/xlink">
    <!-- Generator: Sketch 51.3 (57544) - http://www.bohemiancoding.com/sketch -->
    <title>Icon / Alerts Notifications / Help - small inline</title>
    <desc>Created with Sketch.</desc>
    <defs></defs>
    <g id="Style-" stroke="none" stroke-width="1" fill="none" fill-rule="evenodd">
        <g id="Style_Icons" transform="translate(-245.000000, -1528.000000)">
            <g id="Alerts-Notifications" transform="translate(165.000000, 1376.000000)">
                <g id="Help" transform="translate(0.000000, 120.000000)">
                    <g id="Icon-/-Alerts-Notifications-/-Help---small-inline" transform="translate(80.000000, 32.000000)">
                        <g id="help---small">
                            <circle id="Oval-2" fill="#14568D" cx="8" cy="8" r="8"></circle>
                            <g id="Group" transform="translate(4.869565, 3.478261)" fill="#FFFFFF">
                                <path d="M2.91257181,9.02536854 C2.67111047,9.02536854 2.46032975,8.94707583 2.28022334,8.79048808 C2.10011692,8.63390032 2.01006507,8.41487896 2.01006507,8.13341743 C2.01006507,7.88366987 2.09714818,7.67356793 2.27131702,7.50310531 C2.44548586,7.33264269 2.65923532,7.24741266 2.91257181,7.24741266 C3.16194992,7.24741266 3.37174106,7.33264269 3.54195151,7.50310531 C3.71216197,7.67356793 3.79726592,7.88366987 3.79726592,8.13341743 C3.79726592,8.41091472 3.70820364,8.62894503 3.53007642,8.78751491 C3.3519492,8.94608479 3.14611639,9.02536854 2.91257181,9.02536854 L2.91257181,9.02536854 Z" id="?"></path>
                                <path d="M0.0150501672,2.50817911 C0.0150501672,2.13157565 0.135779028,1.75002261 0.377240373,1.36350853 C0.618701717,0.976994448 0.970992492,0.656886307 1.43412327,0.403174501 C1.89725404,0.149462696 2.43756518,0.0226086957 3.05507288,0.0226086957 C3.62903837,0.0226086957 4.13570375,0.128650711 4.57508423,0.340737924 C5.01446471,0.552825136 5.35389093,0.841219777 5.59337309,1.2059305 C5.83285524,1.57064122 5.95259452,1.96705997 5.95259452,2.39519864 C5.95259452,2.73215963 5.88431344,3.0274916 5.74774924,3.28120341 C5.61118504,3.53491521 5.44889378,3.75393657 5.2608706,3.93827406 C5.07284742,4.12261154 4.73540036,4.43280921 4.24851929,4.86887638 C4.11393428,4.99176803 4.00606997,5.09979214 3.92492312,5.19295195 C3.84377628,5.28611175 3.78341185,5.37134178 3.74382802,5.4486446 C3.70424419,5.52594741 3.67356719,5.60324907 3.65179608,5.68055188 C3.63002498,5.7578547 3.59736881,5.89362812 3.5538266,6.08787622 C3.47861733,6.50015791 3.24309709,6.70629566 2.84725882,6.70629566 C2.64142292,6.70629566 2.46824628,6.63890447 2.32772369,6.50412007 C2.18720111,6.36933568 2.11694087,6.16914421 2.11694087,5.90353966 C2.11694087,5.57054292 2.16839907,5.28214828 2.27131702,5.03834709 C2.37423497,4.7945459 2.51079713,4.58047977 2.68100758,4.39614229 C2.85121804,4.21180481 3.08080079,3.99278345 3.36976273,3.73907164 C3.62309922,3.51707381 3.80617167,3.34958689 3.91898558,3.23660585 C4.03179949,3.12362481 4.12679924,2.99776186 4.20398771,2.85901322 C4.28117617,2.72026457 4.31976982,2.56962545 4.31976982,2.40709132 C4.31976982,2.08995156 4.2020097,1.82236891 3.96648593,1.60433533 C3.73096216,1.38630174 3.42716085,1.27728659 3.05507288,1.27728659 C2.61965078,1.27728659 2.29902659,1.38729279 2.09319069,1.6073085 C1.88735479,1.8273242 1.71318856,2.15139653 1.57068679,2.5795352 C1.43610178,3.02749511 1.18078992,3.2514717 0.804743566,3.2514717 C0.583074135,3.2514717 0.396043358,3.173179 0.243645625,3.01659124 C0.0912478911,2.86000349 0.0150501672,2.69053447 0.0150501672,2.50817911 L0.0150501672,2.50817911 Z" id="?"></path>
                            </g>
                        </g>
                    </g>
                </g>
            </g>
        </g>
    </g>
</svg>