<?xml version="1.0" encoding="UTF-8"?>
<svg width="32px" height="32px" viewBox="0 0 32 32" version="1.1" xmlns="http://www.w3.org/2000/svg" xmlns:xlink="http://www.w3.org/1999/xlink">
    <!-- Generator: Sketch 51.3 (57544) - http://www.bohemiancoding.com/sketch -->
    <title>Icon / Alerts Notifications / Info - light</title>
    <desc>Created with Sketch.</desc>
    <defs></defs>
    <g id="Style-" stroke="none" stroke-width="1" fill="none" fill-rule="evenodd">
        <g id="Style_Icons" transform="translate(-440.000000, -1520.000000)" fill="#009BDF">
            <g id="Alerts-Notifications" transform="translate(165.000000, 1376.000000)">
                <g id="Info" transform="translate(235.000000, 120.000000)">
                    <g id="Icon-/-Alerts-Notifications-/-Info---light" transform="translate(40.000000, 24.000000)">
                        <g id="info---light">
                            <path d="M16,32 C7.163444,32 0,24.836556 0,16 C0,7.163444 7.163444,0 16,0 C24.836556,0 32,7.163444 32,16 C32,24.836556 24.836556,32 16,32 Z M16,30.6086957 C24.0681598,30.6086957 30.6086957,24.0681598 30.6086957,16 C30.6086957,7.93184018 24.0681598,1.39130435 16,1.39130435 C7.93184018,1.39130435 1.39130435,7.93184018 1.39130435,16 C1.39130435,24.0681598 7.93184018,30.6086957 16,30.6086957 Z" id="Combined-Shape"></path>
                            <g id="Group-3" transform="translate(13.913043, 7.652174)">
                                <path d="M0.695652174,14.9540533 L0.695652174,6.44872088 C0.695652174,5.57657729 1.3482787,4.86956522 2.15333432,4.86956522 C2.95838994,4.86956522 3.61101647,5.57657729 3.61101647,6.44872088 L3.61101647,14.9540533 C3.61101647,15.8261969 2.95838994,16.5332089 2.15333432,16.5332089 C1.3482787,16.5332089 0.695652174,15.8261969 0.695652174,14.9540533 Z" id="Shape"></path>
                                <path d="M2.16754399,3.34018939 C3.0823266,3.34018939 3.82389182,2.59862417 3.82389182,1.68384156 C3.82389182,0.769754604 3.0823266,0.0281893871 2.16754399,0.0281893871 C1.25276138,0.0281893871 0.511196165,0.769754604 0.511196165,1.68384156 C0.511196165,2.59862417 1.25276138,3.34018939 2.16754399,3.34018939" id="Fill-8-Copy"></path>
                            </g>
                        </g>
                    </g>
                </g>
            </g>
        </g>
    </g>
</svg>