<?xml version="1.0" encoding="UTF-8"?>
<svg width="24px" height="25px" viewBox="0 0 24 25" version="1.1" xmlns="http://www.w3.org/2000/svg" xmlns:xlink="http://www.w3.org/1999/xlink">
    <!-- Generator: Sketch 51.3 (57544) - http://www.bohemiancoding.com/sketch -->
    <title>Icon / Print</title>
    <desc>Created with Sketch.</desc>
    <defs>
        <path d="M5,15.0053292 L4,15.0053292 L4,13.0053292 L20,13.0053292 L20,15.0053292 L19,15.0053292 L19,17.0053292 L22,17.0053292 L22,9.00532918 L2,9.00532918 L2,17.0053292 L5,17.0053292 L5,15.0053292 Z M17,15.0053292 L7,15.0053292 L7,22.0053292 L17,22.0053292 L17,15.0053292 Z M5,19.0053292 L2.00494659,19.0053292 C0.897645164,19.0053292 0,18.1033788 0,16.996799 L0,9.01385938 C0,7.90457878 0.897026226,7.00532918 2.00494659,7.00532918 L5,7.00532918 L5,1.00825851 C5,0.454355931 5.45361469,0.0050733094 5.99091998,0.00477023658 L14.4476601,1.21414176e-07 C14.7278656,-0.000157931517 15.1086459,0.154012651 15.3139823,0.360244548 L18.6410348,3.7018054 C18.8392858,3.90092096 19,4.29326775 19,4.56157469 L19,7.00532918 L21.9950534,7.00532918 C23.1023548,7.00532918 24,7.90727953 24,9.01385938 L24,16.996799 C24,18.1060796 23.1029738,19.0053292 21.9950534,19.0053292 L19,19.0053292 L19,23.0099316 C19,23.5596745 18.5500512,24.0053292 17.9931545,24.0053292 L6.00684547,24.0053292 C5.45078007,24.0053292 5,23.5496648 5,23.0099316 L5,19.0053292 Z M7,2.00532918 L7,7.00532918 L17,7.00532918 L17,4.97542195 L14.51409,4.97542195 C14.2560472,4.97542195 14.0223999,4.75583982 14.0223999,4.48497153 L14.0223999,2.00532918 L7,2.00532918 Z M15,2.00532918 L15,4.00532918 L17,4.00532918 L15,2.00532918 Z M8,20.5053292 C8,20.2291868 8.23079681,20.0053292 8.50043583,20.0053292 L15.4995642,20.0053292 C15.7759472,20.0053292 16,20.2372628 16,20.5053292 C16,20.7814716 15.7692032,21.0053292 15.4995642,21.0053292 L8.50043583,21.0053292 C8.22405275,21.0053292 8,20.7733956 8,20.5053292 Z M8,18.5053292 C8,18.2291868 8.23079681,18.0053292 8.50043583,18.0053292 L15.4995642,18.0053292 C15.7759472,18.0053292 16,18.2372628 16,18.5053292 C16,18.7814716 15.7692032,19.0053292 15.4995642,19.0053292 L8.50043583,19.0053292 C8.22405275,19.0053292 8,18.7733956 8,18.5053292 Z M8,16.5053292 C8,16.2291868 8.23079681,16.0053292 8.50043583,16.0053292 L15.4995642,16.0053292 C15.7759472,16.0053292 16,16.2372628 16,16.5053292 C16,16.7814716 15.7692032,17.0053292 15.4995642,17.0053292 L8.50043583,17.0053292 C8.22405275,17.0053292 8,16.7733956 8,16.5053292 Z M19.75,12.0053292 C19.0596441,12.0053292 18.5,11.4456851 18.5,10.7553292 C18.5,10.0649732 19.0596441,9.50532918 19.75,9.50532918 C20.4403559,9.50532918 21,10.0649732 21,10.7553292 C21,11.4456851 20.4403559,12.0053292 19.75,12.0053292 Z M19.75,11.2553292 C20.0261424,11.2553292 20.25,11.0314716 20.25,10.7553292 C20.25,10.4791868 20.0261424,10.2553292 19.75,10.2553292 C19.4738576,10.2553292 19.25,10.4791868 19.25,10.7553292 C19.25,11.0314716 19.4738576,11.2553292 19.75,11.2553292 Z" id="path-1"></path>
    </defs>
    <g id="Style-" stroke="none" stroke-width="1" fill="none" fill-rule="evenodd">
        <g id="Style_Icons" transform="translate(-165.000000, -3672.000000)">
            <g id="Print" transform="translate(165.000000, 3624.000000)">
                <g id="Icon-/-Print" transform="translate(0.000000, 48.000000)">
                    <mask id="mask-2" fill="white">
                        <use xlink:href="#path-1"></use>
                    </mask>
                    <use id="print" fill="#515761" xlink:href="#path-1"></use>
                    <g id="Color-/-Global-Grey---medium-dark" mask="url(#mask-2)" fill="#747981">
                        <rect id="color" x="0" y="0" width="24" height="24"></rect>
                    </g>
                </g>
            </g>
        </g>
    </g>
</svg>