<?xml version="1.0" encoding="UTF-8"?>
<svg width="24px" height="24px" viewBox="0 0 24 24" version="1.1" xmlns="http://www.w3.org/2000/svg" xmlns:xlink="http://www.w3.org/1999/xlink">
    <!-- Generator: Sketch 51.3 (57544) - http://www.bohemiancoding.com/sketch -->
    <title>Icon / Search</title>
    <desc>Created with Sketch.</desc>
    <defs>
        <path d="M23.1450113,12.4886101 L21.5973016,11.7567473 C21.583304,11.1610923 21.5125979,10.5681248 21.3861412,9.9858795 L22.7274896,8.90848158 C23.2985295,8.45112632 23.4530773,7.64686768 23.0922212,7.01043759 L22.0460174,5.15318595 C21.6884167,4.51687005 20.9235809,4.23183176 20.2367568,4.47891242 L18.614661,5.0644026 C18.1672398,4.63916673 17.6803319,4.2575145 17.1605338,3.92461638 L17.3381005,2.23293368 C17.4166593,1.50727883 16.9588719,0.831255868 16.2559035,0.634833431 L14.1946901,0.0565418986 C13.4913096,-0.142222915 12.7473401,0.196775464 12.43582,0.857991575 L11.6895599,2.43209633 C11.0942565,2.45109385 10.5021054,2.52661924 9.92109165,2.65765402 L8.85569148,1.31870516 C8.39673033,0.751505181 7.59496419,0.599271104 6.96004704,0.958772672 L5.09559675,1.99777779 C4.45766985,2.35399813 4.17212109,3.1202037 4.42132322,3.80703844 L5.0116125,5.44833059 C4.60224742,5.88166256 4.23655096,6.3542549 3.91981728,6.85926594 L2.22813458,6.68169925 C1.50247973,6.60314047 0.826456769,7.06092779 0.630034331,7.76389627 L0.0565418986,9.81311191 C-0.142222915,10.5164924 0.196775464,11.2604619 0.857991575,11.571982 L2.43209633,12.318242 C2.45109385,12.9135455 2.52661924,13.5056966 2.65765402,14.0867103 L1.32830336,15.1473114 C0.761546386,15.6028951 0.606384241,16.4010167 0.961172221,17.0357572 L2.00737599,18.8930088 C2.3649767,19.5293247 3.12981255,19.814363 3.81663664,19.5672824 L5.45792879,18.9769931 C5.87875713,19.3712832 6.33409556,19.7270414 6.8184736,20.0399937 L6.6313087,21.7508728 C6.55274992,22.4765277 7.01053724,23.1525506 7.71350572,23.3489731 L9.76752046,23.924865 C10.4656064,24.1214509 11.2040968,23.7886244 11.5191919,23.1354131 L12.2558537,21.5781052 C12.8515088,21.5641076 13.4444762,21.4934015 14.0267216,21.3669448 L15.1185168,22.7082932 C15.3128863,22.9525504 15.5802526,23.1282722 15.8815737,23.2097992 L15.8815737,23.2097992 C16.2635513,23.3171033 16.6726466,23.2660745 17.0165608,23.0682257 L18.8738124,22.0220219 C19.5117393,21.6658016 19.7972881,20.899596 19.548086,20.2127613 L18.9577967,18.5930651 C19.3678836,18.1613723 19.7366259,17.69221 20.0591901,17.1917279 L21.7700692,17.3788928 C22.4957241,17.4574516 23.171747,16.9996643 23.3681694,16.2966958 L23.9392623,14.2474802 C24.1465857,13.5454012 23.8087804,12.7973308 23.1450113,12.4886101 L23.1450113,12.4886101 Z M22.0556156,15.9247656 C22.0376339,15.9869169 21.9785627,16.0279663 21.9140422,16.0231471 L19.7760432,15.7831921 C19.5094176,15.7537496 19.2505719,15.8845843 19.116167,16.1167296 C18.7331247,16.782798 18.2545273,17.3891291 17.6956334,17.916392 C17.5035367,18.1026642 17.4362345,18.38309 17.5228658,18.636257 L18.2427308,20.6662762 C18.2617507,20.7265865 18.2369455,20.7920723 18.1827421,20.8246465 L16.3302895,21.8756494 C16.298899,21.8931603 16.2620938,21.8982959 16.2271089,21.8900467 C16.2004363,21.8823777 16.1774297,21.8653358 16.162321,21.8420557 L14.8113744,20.1623707 C14.6446209,19.9480458 14.3662164,19.8536714 14.1035072,19.9224158 C13.3612941,20.1214969 12.5946157,20.2144032 11.8263343,20.198364 C11.5575784,20.189381 11.3097075,20.3426447 11.1976522,20.5870911 L10.2858232,22.554722 C10.2595728,22.6133927 10.1936721,22.643254 10.132252,22.624309 L8.08303641,22.0532161 C8.02088512,22.0352343 7.97983568,21.9761632 7.98465486,21.9116426 L8.22460985,19.7736437 C8.25405236,19.507018 8.12321764,19.2481724 7.89107241,19.1137674 C7.24012585,18.7428889 6.6420668,18.2860719 6.11300592,17.7556222 C6.03028264,17.6687781 5.92460524,17.6072023 5.80826308,17.5780555 C5.67273494,17.5382301 5.52796405,17.5432802 5.39554049,17.5924528 L3.36072215,18.3147173 C3.33476659,18.3215291 3.30749256,18.3215291 3.281537,18.3147173 C3.24775446,18.3041785 3.21937156,18.2809562 3.20235185,18.2499295 L2.14894944,16.3974769 C2.11735532,16.3408386 2.13159538,16.2696383 2.18254313,16.2295084 L3.84063214,14.8761623 C4.05752141,14.7058857 4.1519326,14.4226521 4.08058713,14.1562973 C3.87811264,13.4162159 3.78196703,12.6510907 3.79504069,11.8839235 C3.78863393,11.6242855 3.63768555,11.3899914 3.40391405,11.2768374 L1.44108221,10.3410129 C1.38241151,10.3147624 1.35255028,10.2488618 1.37149526,10.1874417 L1.94258814,8.13822606 C1.9605699,8.07607477 2.01964104,8.03502533 2.08416159,8.03984451 L4.20776327,8.2797995 C4.47696981,8.30967137 4.73818292,8.1767073 4.8724386,7.94146296 C5.25173839,7.2739158 5.72532472,6.66455728 6.27857486,6.13220232 C6.47057153,5.9456488 6.53453809,5.66344337 6.44174426,5.41233734 L5.70988153,3.3583226 C5.68776081,3.29951971 5.70854469,3.23320922 5.76027208,3.19755275 L7.62712192,2.15854764 C7.65851239,2.14103675 7.69531767,2.13590114 7.73030257,2.14415034 C7.75697512,2.15181931 7.77998168,2.16886121 7.79509042,2.19214133 L9.14123793,3.87182628 C9.31151451,4.08871556 9.59474807,4.18312675 9.8611029,4.11178128 C10.6011843,3.90930679 11.3663095,3.81316117 12.1334767,3.82623484 C12.4003846,3.82844725 12.6448722,3.67727554 12.7621588,3.43750775 L13.6787868,1.43868266 C13.7050373,1.38001196 13.770938,1.35015073 13.832358,1.36909571 L15.8887723,1.94258814 C15.9509236,1.9605699 15.991973,2.01964104 15.9871539,2.08416159 L15.7471989,4.20776327 C15.717327,4.47696981 15.8502911,4.73818292 16.0855354,4.8724386 C16.7669282,5.2617794 17.3891158,5.7466009 17.9331889,6.31216856 C18.1194611,6.50426531 18.3998869,6.5715675 18.6530538,6.48493616 L20.678274,5.75787253 C20.7042295,5.75106068 20.7315036,5.75106068 20.7574591,5.75787253 C20.7912417,5.76841131 20.8196246,5.79163368 20.8366443,5.82266038 L21.882848,7.67991202 C21.9144422,7.73655031 21.9002021,7.8077506 21.8492543,7.84788052 L20.1695694,9.19882712 C19.9552444,9.36558064 19.86087,9.64398514 19.9296144,9.90669435 C20.1286956,10.6489074 20.2216018,11.4155858 20.2055626,12.1838672 C20.1965797,12.4526231 20.3498433,12.700494 20.5942897,12.8125493 L22.5571216,13.7171796 C22.6157923,13.7434301 22.6456535,13.8093308 22.6267085,13.8707508 L22.0556156,15.9199665 L22.0556156,15.9247656 Z M13.4124368,6.97684389 C10.6351821,6.2022208 7.75573488,7.8253001 6.98049662,10.6023831 C6.20525837,13.3794661 7.82769981,16.2592728 10.604611,17.0351262 C13.3815222,17.8109796 16.2616883,16.1891761 17.0381567,13.4124368 C17.8136872,10.6341297 16.1905464,7.7530816 13.4124368,6.97684389 Z M10.9648959,15.7136052 C9.46304528,15.2925488 8.3627577,14.0081982 8.17716227,12.459522 C7.99156683,10.9108458 8.75721928,9.40287843 10.1170506,8.63887424 C11.476882,7.87487006 13.1630535,8.00531086 14.3892038,8.9693644 C15.615354,9.93341794 16.1399747,11.5411997 15.7184043,13.0429061 C15.1429423,15.0928006 13.0149872,16.2883655 10.9648959,15.7136052 Z" id="path-1"></path>
    </defs>
    <g id="Style-" stroke="none" stroke-width="1" fill="none" fill-rule="evenodd">
        <g id="Style_Icons" transform="translate(-545.000000, -3672.000000)">
            <g id="Settings-gear" transform="translate(545.000000, 3624.000000)">
                <g id="Icon-/-Search" transform="translate(0.000000, 48.000000)">
                    <mask id="mask-2" fill="white">
                        <use xlink:href="#path-1"></use>
                    </mask>
                    <use id="Combined-Shape" fill="#FFFFFF" fill-rule="nonzero" xlink:href="#path-1"></use>
                    <g id="Color-/-Global-Grey---medium-dark" mask="url(#mask-2)" fill="#747981">
                        <rect id="color" x="0" y="0" width="24" height="24"></rect>
                    </g>
                </g>
            </g>
        </g>
    </g>
</svg>