<?xml version="1.0" encoding="UTF-8"?>
<svg width="22px" height="19px" viewBox="0 0 22 19" version="1.1" xmlns="http://www.w3.org/2000/svg" xmlns:xlink="http://www.w3.org/1999/xlink">
    <!-- Generator: Sketch 51.3 (57544) - http://www.bohemiancoding.com/sketch -->
    <title>Icon / Android / Show Password</title>
    <desc>Created with Sketch.</desc>
    <defs></defs>
    <g id="Style-" stroke="none" stroke-width="1" fill="none" fill-rule="evenodd">
        <g id="Style_Icons" transform="translate(-545.000000, -1800.000000)" fill="#979AA0">
            <g id="Android" transform="translate(165.000000, 1720.000000)">
                <g id="Icon-/-Android-/-Show-Password" transform="translate(380.000000, 80.000000)">
                    <path class="path-01" d="M11,2 C6,2 1.7,5.1 0,9.5 C1.7,13.9 6,17 11,17 C16,17 20.3,13.9 22,9.5 C20.3,5.1 16,2 11,2 L11,2 Z M11,14.5 C8.2,14.5 6,12.3 6,9.5 C6,6.7 8.2,4.5 11,4.5 C13.8,4.5 16,6.7 16,9.5 C16,12.3 13.8,14.5 11,14.5 L11,14.5 Z M11,6.5 C9.3,6.5 8,7.8 8,9.5 C8,11.2 9.3,12.5 11,12.5 C12.7,12.5 14,11.2 14,9.5 C14,7.8 12.7,6.5 11,6.5 L11,6.5 Z" id="Shape"></path>
                </g>
            </g>
        </g>
    </g>
</svg>