<?xml version="1.0" encoding="UTF-8"?>
<svg width="137px" height="137px" viewBox="0 0 137 137" version="1.1" xmlns="http://www.w3.org/2000/svg" xmlns:xlink="http://www.w3.org/1999/xlink">
    <!-- Generator: Sketch 51.3 (57544) - http://www.bohemiancoding.com/sketch -->
    <title>Successful Authentication Fingerprint</title>
    <desc>Created with Sketch.</desc>
    <defs></defs>
    <g id="Style-" stroke="none" stroke-width="1" fill="none" fill-rule="evenodd">
        <g id="Style_Icons" transform="translate(-313.000000, -1800.000000)">
            <g id="Android" transform="translate(165.000000, 1720.000000)">
                <g id="Icon-/-Android-/-Android---Fingerprint-Auth-Success" transform="translate(148.000000, 80.000000)">
                    <g id="icon-/-Android-/-Fingerprint-Authentication">
                        <g id="Group">
                            <path class="path-01" d="M101.558448,25.0995833 C101.101781,25.0995833 100.645115,24.9854167 100.245531,24.7570833 C89.2855313,19.1058333 79.809698,16.7083333 68.4501147,16.7083333 C57.1476147,16.7083333 46.415948,19.39125 36.654698,24.7570833 C35.284698,25.4991667 33.572198,24.9854167 32.7730313,23.6154167 C32.030948,22.2454167 32.544698,20.4758333 33.914698,19.73375 C44.532198,13.9683333 56.177198,11 68.4501147,11 C80.6088647,11 91.2263647,13.6829167 102.871365,19.6766667 C104.298448,20.41875 104.812198,22.13125 104.070115,23.50125 C103.556365,24.52875 102.585948,25.0995833 101.558448,25.0995833 L101.558448,25.0995833 Z M19.872198,55.0683333 C19.3013647,55.0683333 18.7305313,54.8970833 18.2167813,54.5545833 C16.9038647,53.64125 16.618448,51.8716667 17.5317813,50.55875 C23.1830313,42.5670833 30.3755313,36.2879167 38.9380313,31.8925 C56.862198,22.645 79.809698,22.5879167 97.790948,31.8354167 C106.353448,36.2308333 113.545948,42.4529167 119.197198,50.3875 C120.110531,51.6433333 119.825115,53.47 118.512198,54.3833333 C117.199281,55.2966667 115.429698,55.01125 114.516365,53.6983333 C109.378865,46.5058333 102.871365,40.8545833 95.1651147,36.9158333 C78.782198,28.5245833 57.8326147,28.5245833 41.5067813,36.9729167 C33.743448,40.96875 27.235948,46.6770833 22.098448,53.8695833 C21.6417813,54.66875 20.7855313,55.0683333 19.872198,55.0683333 L19.872198,55.0683333 Z M55.5492813,123.967917 C54.807198,123.967917 54.0651147,123.6825 53.5513647,123.111667 C48.5851147,118.145417 45.902198,114.94875 42.0776147,108.041667 C38.1388647,101.020417 36.0838647,92.4579167 36.0838647,83.2675 C36.0838647,66.31375 50.5830313,52.4995833 68.3930313,52.4995833 C86.2030313,52.4995833 100.702198,66.31375 100.702198,83.2675 C100.702198,84.8658333 99.4463647,86.1216667 97.8480313,86.1216667 C96.249698,86.1216667 94.9938647,84.8658333 94.9938647,83.2675 C94.9938647,69.4533333 83.063448,58.2079167 68.3930313,58.2079167 C53.7226147,58.2079167 41.792198,69.4533333 41.792198,83.2675 C41.792198,91.4875 43.6188647,99.0795833 47.100948,105.244583 C50.7542813,111.809167 53.265948,114.60625 57.6613647,119.05875 C58.745948,120.200417 58.745948,121.97 57.6613647,123.111667 C57.033448,123.6825 56.2913647,123.967917 55.5492813,123.967917 Z M96.4780313,113.4075 C89.6851147,113.4075 83.6913647,111.695 78.782198,108.327083 C70.2767813,102.561667 65.1963647,93.2 65.1963647,83.2675 C65.1963647,81.6691667 66.452198,80.4133333 68.0505313,80.4133333 C69.6488647,80.4133333 70.904698,81.6691667 70.904698,83.2675 C70.904698,91.31625 75.014698,98.9083333 81.9788647,103.589167 C86.0317813,106.329167 90.769698,107.642083 96.4780313,107.642083 C97.8480313,107.642083 100.131365,107.470833 102.414698,107.07125 C103.955948,106.785833 105.440115,107.813333 105.725531,109.411667 C106.010948,110.952917 104.983448,112.437083 103.385115,112.7225 C100.131365,113.350417 97.277198,113.4075 96.4780313,113.4075 L96.4780313,113.4075 Z M85.0042813,125.166667 C84.775948,125.166667 84.4905313,125.109583 84.262198,125.0525 C75.185948,122.540833 69.2492813,119.172917 63.027198,113.065 C55.0355313,105.130417 50.6401147,94.57 50.6401147,83.2675 C50.6401147,74.02 58.5176147,66.485 68.2217813,66.485 C77.925948,66.485 85.803448,74.02 85.803448,83.2675 C85.803448,89.3754167 91.112198,94.3416667 97.6767813,94.3416667 C104.241365,94.3416667 109.550115,89.3754167 109.550115,83.2675 C109.550115,61.7470833 90.9980313,44.2795833 68.164698,44.2795833 C51.9530313,44.2795833 37.1113647,53.29875 30.4326147,67.2841667 C28.2063647,71.9079167 27.064698,77.3308333 27.064698,83.2675 C27.064698,87.72 27.4642813,94.74125 30.8892813,103.874583 C31.4601147,105.35875 30.7180313,107.014167 29.2338647,107.527917 C27.749698,108.09875 26.0942813,107.299583 25.5805313,105.8725 C22.783448,98.3945833 21.413448,90.97375 21.413448,83.2675 C21.413448,76.4175 22.7263647,70.1954167 25.2951147,64.7725 C32.887198,48.84625 49.7267813,38.5141667 68.164698,38.5141667 C94.1376147,38.5141667 115.258448,58.5504167 115.258448,83.2104167 C115.258448,92.4579167 107.380948,99.9929167 97.6767813,99.9929167 C87.9726147,99.9929167 80.0951147,92.4579167 80.0951147,83.2104167 C80.0951147,77.1025 74.7863647,72.13625 68.2217813,72.13625 C61.657198,72.13625 56.348448,77.1025 56.348448,83.2104167 C56.348448,92.9716667 60.115948,102.105 67.0230313,108.955 C72.445948,114.320833 77.6405313,117.289167 85.6892813,119.515417 C87.2305313,119.915 88.0867813,121.513333 87.687198,122.9975 C87.4017813,124.310417 86.2030313,125.166667 85.0042813,125.166667 L85.0042813,125.166667 Z" id="Shape" fill="#DCDDDF"></path>
                            <g id="Icon-/-Check-/-Green" transform="translate(28.000000, 28.000000)" fill="#3F8601" stroke="#3F8601">
                                <path class="path-02" d="M72.4789674,11.2933904 L24.7181107,59.3002917 L7.52103232,42.0146209 C5.79705427,40.2866502 3.00587626,40.290613 1.28676151,42.0234721 C-0.432353233,43.7563312 -0.42841103,46.5618882 1.29556667,48.2898593 L21.6053779,68.7042985 C23.3246448,70.4319005 26.1115766,70.4319005 27.8308435,68.7042985 L78.704433,17.5686288 C80.428411,15.8406577 80.4323534,13.0351005 78.7132385,11.3022412 C76.9941236,9.56938199 74.2029454,9.56541934 72.4789674,11.2933904 L72.4789674,11.2933904 Z" id="Shape"></path>
                            </g>
                        </g>
                    </g>
                </g>
            </g>
        </g>
    </g>
</svg>