<?xml version="1.0" encoding="UTF-8"?>
<svg width="18px" height="18px" viewBox="0 0 18 18" version="1.1" xmlns="http://www.w3.org/2000/svg" xmlns:xlink="http://www.w3.org/1999/xlink">
    <!-- Generator: Sketch 51.3 (57544) - http://www.bohemiancoding.com/sketch -->
    <title>Icon / Arrows / Arrow - left</title>
    <desc>Created with Sketch.</desc>
    <defs>
        <path class="path-01" d="M4.23160172,6.375 L15.75,6.375 L15.75,8.625 L4.38235931,8.625 L8.22104693,12.4636876 C8.6598728,12.9025135 8.66251916,13.6113445 8.22011633,14.0537473 C7.7807765,14.4930871 7.06651629,14.4911375 6.63005668,14.0546779 L1.59099026,9.01561146 L-1.17550414e-12,7.4246212 L6.63005668,0.794564526 C7.06888255,0.355738656 7.77771351,0.353092304 8.22011633,0.795495129 C8.65945616,1.23483496 8.65750655,1.94909517 8.22104693,2.38555478 L4.23160172,6.375 Z" id="path-1"></path>
    </defs>
    <g id="Style-" stroke="none" stroke-width="1" fill="none" fill-rule="evenodd">
        <g id="Style_Icons" transform="translate(-173.000000, -2855.000000)">
            <g id="Header" transform="translate(165.000000, 2744.000000)">
                <g id="Icon-/-Header-/-Header-Back-Arrow" transform="translate(8.000000, 104.000000)">
                    <g id="Icon-/-Arrows-/-Arrow---left" transform="translate(0.000000, 7.000000)">
                        <g id="Group-2" transform="translate(0.750000, 1.500000)">
                            <mask id="mask-2" fill="white">
                                <use xlink:href="#path-1"></use>
                            </mask>
                            <use id="Combined-Shape" fill="#D8D8D8" xlink:href="#path-1"></use>
                            <g id="Color-/-Global-White" mask="url(#mask-2)" fill="#FFFFFF">
                                <g transform="translate(-0.750000, -1.500000)" id="color">
                                    <rect x="0" y="0" width="18" height="18"></rect>
                                </g>
                            </g>
                        </g>
                    </g>
                </g>
            </g>
        </g>
    </g>
</svg>