<?xml version="1.0" encoding="UTF-8"?>
<svg width="24px" height="24px" viewBox="0 0 24 24" version="1.1" xmlns="http://www.w3.org/2000/svg" xmlns:xlink="http://www.w3.org/1999/xlink">
    <!-- Generator: Sketch 51.3 (57544) - http://www.bohemiancoding.com/sketch -->
    <title>Calendar</title>
    <desc>Created with Sketch.</desc>
    <path class="path-01" d="M18,2 L21.9969294,2 C22.55091,2 23,2.44386482 23,3 C23,3.55228475 22.5610822,4 21.9969294,4 L1.00307055,4 C0.449089982,4 0,3.55613518 0,3 C0,2.44771525 0.438917756,2 1.00307055,2 L5,2 L5,1.0093689 C5,0.451909848 5.44386482,0 6,0 C6.55228475,0 7,0.443353176 7,1.0093689 L7,2 L16,2 L16,1.0093689 C16,0.451909848 16.4438648,0 17,0 C17.5522847,0 18,0.443353176 18,1.0093689 L18,2 Z M0,5.99339768 C0,5.44475929 0.438917756,5 1.00307055,5 L21.9969294,5 C22.55091,5 23,5.44494629 23,5.99339768 L23,22.0066023 C23,22.5552407 22.5610822,23 21.9969294,23 L1.00307055,23 C0.449089982,23 0,22.5550537 0,22.0066023 L0,5.99339768 Z M2,7 L2,11 L6,11 L6,7 L2,7 Z M7,7 L7,11 L11,11 L11,7 L7,7 Z M12,7 L12,11 L16,11 L16,7 L12,7 Z M17,7 L17,11 L21,11 L21,7 L17,7 Z M2,12 L2,16 L6,16 L6,12 L2,12 Z M7,12 L7,16 L11,16 L11,12 L7,12 Z M12,12 L12,16 L16,16 L16,12 L12,12 Z M17,12 L17,16 L21,16 L21,12 L17,12 Z M2,17 L2,21 L6,21 L6,17 L2,17 Z M7,17 L7,21 L11,21 L11,17 L7,17 Z M12,17 L12,21 L16,21 L16,17 L12,17 Z M17,17 L17,21 L21,21 L21,17 L17,17 Z" id="path-1"></path>
</svg>