<?xml version="1.0" encoding="UTF-8"?>
<svg width="24px" height="24px" viewBox="0 0 24 24" version="1.1" xmlns="http://www.w3.org/2000/svg" xmlns:xlink="http://www.w3.org/1999/xlink">
    <!-- Generator: Sketch 51.3 (57544) - http://www.bohemiancoding.com/sketch -->
    <title>Clear</title>
    <desc>Created with Sketch.</desc>
    <path class="path-01" d="M12,10.5741799 L7.72263248,6.29681237 C7.32604081,5.9002207 6.68984472,5.90238601 6.29611536,6.29611536 C5.899641,6.69258972 5.90269807,7.32851818 6.29681237,7.72263248 L10.5741799,12 L6.29681237,16.2773675 C5.90269807,16.6714818 5.899641,17.3074103 6.29611536,17.7038846 C6.68984472,18.097614 7.32604081,18.0997793 7.72263248,17.7031876 L12,13.4258201 L16.2773675,17.7031876 C16.6739592,18.0997793 17.3101553,18.097614 17.7038846,17.7038846 C18.100359,17.3074103 18.0973019,16.6714818 17.7031876,16.2773675 L13.4258201,12 L17.7031876,7.72263248 C18.0973019,7.32851818 18.100359,6.69258972 17.7038846,6.29611536 C17.3101553,5.90238601 16.6739592,5.9002207 16.2773675,6.29681237 L12,10.5741799 Z M12,24 C5.372583,24 0,18.627417 0,12 C0,5.372583 5.372583,0 12,0 C18.627417,0 24,5.372583 24,12 C24,18.627417 18.627417,24 12,24 Z" id="path-1"></path>
</svg>