<?xml version="1.0" encoding="UTF-8"?>
<svg width="24px" height="24px" viewBox="0 0 24 24" version="1.1" xmlns="http://www.w3.org/2000/svg" xmlns:xlink="http://www.w3.org/1999/xlink">
    <!-- Generator: Sketch 51.3 (57544) - http://www.bohemiancoding.com/sketch -->
    <title>Clock</title>
    <desc>Created with Sketch.</desc>
    <path class="path-01" d="M11.9467406,0 C18.5414483,0.00794801773 23.8855333,5.35203296 23.8934813,11.9467406 C23.8934813,18.5447433 18.5447433,23.8934813 11.9467406,23.8934813 C5.34873797,23.8934813 0,18.5447433 0,11.9467406 C0,5.34873797 5.34873797,0 11.9467406,0 Z M11.9467406,21.6754508 L11.9467406,21.6743412 C17.3161787,21.6682278 21.6676153,17.3172875 21.6743412,11.9478502 C21.6743412,6.57544477 17.3191461,2.22024965 11.9467406,2.22024965 C6.5743352,2.22024965 2.21914008,6.57544477 2.21914008,11.9478502 C2.21914008,17.3202556 6.5743352,21.6754508 11.9467406,21.6754508 Z M17.5622746,11.184466 C17.859583,11.1852588 18.1338844,11.3446036 18.281852,11.6024766 C18.4298196,11.8603496 18.4289736,12.1775739 18.2796328,12.4346542 C18.130292,12.6917344 17.8551447,12.8496139 17.5578363,12.8488211 L12.0099861,12.8488211 C11.5257623,12.8190989 11.1406976,12.4311714 11.1145631,11.9467406 L11.1145631,4.17975035 C11.1145631,3.72015139 11.4871417,3.34757282 11.9467406,3.34757282 C12.4063396,3.34757282 12.7789182,3.72015139 12.7789182,4.17975035 L12.7789182,11.184466 L17.5622746,11.184466 Z" id="path-1"></path>
</svg>