<?xml version="1.0" encoding="UTF-8"?>
<svg width="24px" height="24px" viewBox="0 0 24 24" version="1.1" xmlns="http://www.w3.org/2000/svg" xmlns:xlink="http://www.w3.org/1999/xlink">
    <!-- Generator: Sketch 51.3 (57544) - http://www.bohemiancoding.com/sketch -->
    <title>External Link</title>
    <desc>Created with Sketch.</desc>
    <path class="path-01" d="M20.3137085,2 L15.9975446,2 C15.4463114,2 15,1.55228475 15,1 C15,0.443864822 15.446616,4.4408921e-16 15.9975446,4.4408921e-16 L24,0 L24,2 L24,8.00245535 C24,8.5536886 23.5522847,9 23,9 C22.4438648,9 22,8.55338405 22,8.00245535 L22,3.14213562 L11.4142136,13.7279221 L10,12.3137085 L20.3137085,2 Z M14,4 L14,6 L3.00087166,6 C2.44463086,6 2,6.4481055 2,7.00087166 L2,20.9991283 C2,21.5553691 2.4481055,22 3.00087166,22 L16.9991283,22 C17.5553691,22 18,21.5518945 18,20.9991283 L18,10 L20,10 L20,22.0092049 C20,23.1086907 19.1017876,24 18.0092049,24 L1.99079514,24 C0.891309342,24 0,23.1017876 0,22.0092049 L0,5.99079514 C0,4.89130934 0.898212381,4 1.99079514,4 L14,4 Z" id="path-1"></path>
</svg>