<?xml version="1.0" encoding="UTF-8"?>
<svg width="32px" height="32px" viewBox="0 0 32 32" version="1.1" xmlns="http://www.w3.org/2000/svg" xmlns:xlink="http://www.w3.org/1999/xlink">
    <!-- Generator: Sketch 51.3 (57544) - http://www.bohemiancoding.com/sketch -->
    <title>Icon</title>
    <desc>Created with Sketch.</desc>
    <defs>
        <path class="path-01" d="M15.441982,5 C12.4908906,5 10.0985584,7.39233223 10.0985584,10.3434236 C10.0985584,13.294515 12.4908906,15.6868472 15.441982,15.6868472 C18.3930733,15.6868472 20.7854056,13.294515 20.7854056,10.3434236 C20.7825546,7.39351396 18.3918916,5.00285098 15.441982,5 L15.441982,5 Z M15.441982,13.6171239 C14.1173813,13.6171238 12.9232289,12.8191484 12.4164228,11.5953369 C11.9096168,10.3715255 12.1899788,8.9629226 13.1267609,8.02643647 C14.0635429,7.08995033 15.4722342,6.8100333 16.6958855,7.31722592 C17.9195368,7.82441854 18.717135,9.01882303 18.7167166,10.3434236 C18.714436,12.1508966 17.2494556,13.6154142 15.441982,13.6171239 Z M14.2235242,26.2009589 C14.7947769,26.2009589 15.2578687,26.6640507 15.2578687,27.2353034 C15.2578687,27.806556 14.7947769,28.2696478 14.2235242,28.2696478 L6.36767782,28.2696478 C5.79642513,28.2696478 5.33333333,27.806556 5.33333333,27.2353034 L5.33333333,24.0505567 C5.33333333,20.6785937 7.49614765,17.8382837 10.7119246,16.9818465 L11.3956264,16.7998019 C11.9986492,16.6394785 12.4041122,16.9642626 13.1395312,17.553839 C13.62257,17.9417182 14.2245585,18.4237227 14.7851732,18.7216139 C15.2895892,18.9898171 15.4810776,19.6161487 15.2128745,20.1205647 C14.9446714,20.6249808 14.3183399,20.8164693 13.8139238,20.5482663 C13.0826422,20.1593528 12.3658415,19.5863259 11.8486692,19.1684507 C11.7452348,19.0836345 11.6231821,18.9874405 11.520782,18.9077959 L11.2466807,18.9812344 C8.9111309,19.6018411 7.4020223,21.5919199 7.4020223,24.0495224 L7.4020223,26.1999245 L14.2235242,26.1999245 L14.2235242,26.2009589 Z M26.4246517,23.8457565 C26.782781,23.9569478 27.0526801,24.2532629 27.130045,24.620189 C27.2074099,24.9871152 27.0801217,25.3671755 26.7973718,25.6134936 C26.5146219,25.8598117 26.1207013,25.9338032 25.767843,25.8068736 L24.8576198,25.4965703 C24.6403311,25.828266 24.3762589,26.1268279 24.0735867,26.3830035 L24.5028396,27.2528872 C24.7516174,27.7643309 24.540806,28.3806806 24.0309209,28.6326372 C23.5210358,28.8845938 22.9033857,28.6776232 22.64826,28.1693164 L22.2107323,27.2818489 C21.9402924,27.3356661 21.6652054,27.3626897 21.3894628,27.3625277 C21.2705131,27.3625277 21.1515635,27.357356 21.0336482,27.3470126 L20.7130015,28.2965408 C20.59475,28.6466759 20.2986864,28.9071276 19.9363348,28.9797864 C19.5739832,29.0524452 19.2003936,28.9262725 18.9562934,28.6487962 C18.7121933,28.3713199 18.6346672,27.9846954 18.7529187,27.6345603 L19.0797715,26.6674482 C18.7542962,26.4520798 18.4613583,26.1911875 18.2098878,25.8927242 L17.2872525,26.3468015 C16.9555942,26.5099515 16.5620898,26.4837708 16.2549686,26.2781213 C15.9478474,26.0724718 15.7737683,25.7185966 15.7983055,25.349797 C15.8228426,24.9809975 16.042268,24.6533031 16.3739264,24.4901531 L17.3048364,24.0298698 C17.2297271,23.6622199 17.2053656,23.2860097 17.2324323,22.9117434 L16.2435989,22.5766158 C15.8893249,22.4613471 15.6244119,22.1644638 15.5500788,21.7994 C15.4757457,21.4343362 15.6034788,21.0575036 15.8844735,20.8128835 C16.1654682,20.5682634 16.5563036,20.493656 16.9076481,20.6175674 L17.8851036,20.9485576 C18.0953394,20.6213822 18.3505662,20.3254166 18.6432781,20.0693648 L18.1964413,19.1643134 C17.9476636,18.6528697 18.158475,18.03652 18.6683601,17.7845634 C19.1782452,17.5326068 19.7958952,17.7395773 20.051021,18.2478841 L20.4895831,19.1353517 C20.7813901,19.0710725 21.0792823,19.0384743 21.378085,19.0381233 C21.4680729,19.0381233 21.5580609,19.0412264 21.6480489,19.0474324 L21.9635239,18.1165224 C22.1463248,17.5752605 22.7332937,17.2846704 23.2745556,17.4674712 C23.8158175,17.6502721 24.1064076,18.2372409 23.9236067,18.7785029 L23.6133034,19.688726 C23.9552206,19.9041917 24.263349,20.1690984 24.5276639,20.4748278 L25.3809981,20.054884 C25.7126564,19.8917339 26.1061608,19.9179146 26.4132821,20.1235641 C26.7204033,20.3292136 26.8944823,20.6830888 26.8699452,21.0518884 C26.8454081,21.4206879 26.6259826,21.7483823 26.2943243,21.9115323 L25.4513335,22.3252701 C25.5377075,22.7245998 25.5635101,23.1346521 25.527875,23.5416592 L26.4246517,23.8457565 Z M23.3588546,23.8643747 C23.5422259,23.3451494 23.5086693,22.7739419 23.2657636,22.2797589 C23.021988,21.7787455 22.5864186,21.3972493 22.0576493,21.2216245 C21.8398234,21.1473887 21.611316,21.1093042 21.381188,21.108881 C20.6584018,21.1121639 19.9882745,21.4875109 19.6079012,22.102122 C19.2275278,22.716733 19.190553,23.4839284 19.5100588,24.1322699 C19.7513092,24.6270924 20.180896,25.0045177 20.702658,25.1800609 C20.922794,25.2551565 21.1537675,25.2935939 21.3863597,25.2938388 C22.2805766,25.2980748 23.076289,24.7272649 23.3588546,23.8788555 L23.3588546,23.8643747 Z" id="path-1"></path>
    </defs>
    <g id="Style-" stroke="none" stroke-width="1" fill="none" fill-rule="evenodd">
        <g id="Style_Icons" transform="translate(-735.000000, -1320.000000)">
            <g id="Account-Settings" transform="translate(735.000000, 1248.000000)">
                <g id="Icon-/-Account-Settings" transform="translate(0.000000, 72.000000)">
                    <g id="Icon">
                        <mask id="mask-2" fill="white">
                            <use xlink:href="#path-1"></use>
                        </mask>
                        <use id="Combined-Shape" fill="#FFFFFF" xlink:href="#path-1"></use>
                        <g id="Color-/-Global-Grey---medium-dark" mask="url(#mask-2)" fill="#747981">
                            <rect id="color" x="0" y="0" width="32" height="32"></rect>
                        </g>
                    </g>
                </g>
            </g>
        </g>
    </g>
</svg>