<?xml version="1.0" encoding="UTF-8"?>
<svg width="33px" height="32px" viewBox="0 0 33 32" version="1.1" xmlns="http://www.w3.org/2000/svg" xmlns:xlink="http://www.w3.org/1999/xlink">
    <!-- Generator: Sketch 51.3 (57544) - http://www.bohemiancoding.com/sketch -->
    <title>Support</title>
    <desc>Created with Sketch.</desc>
    <defs>
        <path class="path-01" d="M16.5,5 C9.66547622,5 4.125,10.372583 4.125,17 C4.125,23.627417 9.66547622,29 16.5,29 C23.3345238,29 28.875,23.627417 28.875,17 C28.8670016,10.3757983 23.331208,5.00775604 16.5,5 L16.5,5 Z M16.5,26.9892761 C10.8106712,26.9892761 6.19855898,22.5169249 6.19855898,17 C6.19855898,11.4830751 10.8106712,7.01072386 16.5,7.01072386 C22.1893288,7.01072386 26.801441,11.4830751 26.801441,17 C26.7951558,22.5143984 22.1867233,26.9831813 16.5,26.9892761 Z M16.3130398,22.833261 C16.6288115,22.833261 16.9071147,22.7293112 17.1479575,22.5214084 C17.3888003,22.3135057 17.50922,22.0276437 17.50922,21.663814 C17.50922,21.3363672 17.3941523,21.0609002 17.1640136,20.8374047 C16.9338749,20.6139093 16.6502198,20.5021633 16.3130398,20.5021633 C15.9705078,20.5021633 15.6815007,20.6139093 15.4460099,20.8374047 C15.2105191,21.0609002 15.0927755,21.3363672 15.0927755,21.663814 C15.0927755,22.0328413 15.2145331,22.3200026 15.458052,22.5253066 C15.7015708,22.7306105 15.9865639,22.833261 16.3130398,22.833261 Z M12.3953491,14.2885015 C12.3953491,14.5275896 12.4983748,14.7497824 12.7044292,14.9550863 C12.9104836,15.1603902 13.1633648,15.2630407 13.4630804,15.2630407 C13.9715264,15.2630407 14.3167293,14.9693825 14.4986994,14.3820573 C14.6913737,13.8207199 14.926861,13.3958251 15.2051682,13.10736 C15.4834755,12.818895 15.9169862,12.6746646 16.5057131,12.6746646 C17.0088071,12.6746646 17.4195718,12.8175956 17.7380195,13.1034619 C18.0564673,13.3893281 18.2156888,13.7401587 18.2156888,14.1559642 C18.2156888,14.3690645 18.1635069,14.5665691 18.0591417,14.748484 C17.9547765,14.9303989 17.8263289,15.0954192 17.6737951,15.2435499 C17.5212613,15.3916806 17.2737321,15.6112746 16.9312,15.9023384 C16.5404994,16.2349827 16.2300844,16.5221441 15.9999457,16.763831 C15.7698069,17.0055179 15.5851635,17.2861824 15.4460099,17.6058328 C15.3068562,17.9254833 15.2372805,18.3036007 15.2372805,18.7401964 C15.2372805,19.0884335 15.3322782,19.3509068 15.5222764,19.5276241 C15.7122747,19.7043414 15.9464239,19.7926988 16.2247312,19.7926988 C16.7599375,19.7926988 17.0783805,19.5224293 17.1800697,18.9818822 C17.2389424,18.7272013 17.2830963,18.5491873 17.3125326,18.4478347 C17.341969,18.3464821 17.3834468,18.2451311 17.4369675,18.1437785 C17.4904881,18.0424259 17.5721058,17.9306798 17.6818231,17.808537 C17.7915404,17.6863941 17.937382,17.5447625 18.1193521,17.3836379 C18.7776559,16.8119054 19.2339125,16.4052018 19.4881355,16.1635149 C19.7423585,15.9218279 19.9617898,15.6346666 20.1464359,15.3020222 C20.3310821,14.9693779 20.4234038,14.5821649 20.4234038,14.1403716 C20.4234038,13.5790342 20.2615064,13.0592852 19.9377065,12.5811089 C19.6139067,12.1029326 19.1549742,11.7248152 18.5608951,11.4467453 C17.9668161,11.1686754 17.2817623,11.0296425 16.5057131,11.0296425 C15.6707912,11.0296425 14.9402456,11.1959622 14.3140542,11.5286066 C13.6878628,11.8612509 13.2115363,12.2809483 12.8850604,12.7877112 C12.5585846,13.2944741 12.3953491,13.7947325 12.3953491,14.2885015 Z" id="path-1"></path>
    </defs>
    <g id="Style-" stroke="none" stroke-width="1" fill="none" fill-rule="evenodd">
        <g id="Style_Icons" transform="translate(-965.000000, -3912.000000)">
            <g id="iOS" transform="translate(165.000000, 3840.000000)">
                <g id="Support-Help" transform="translate(800.000000, 48.000000)">
                    <g id="Icon-/-iOS-/-Support" transform="translate(0.000000, 24.000000)">
                        <g id="Icon">
                            <mask id="mask-2" fill="white">
                                <use xlink:href="#path-1"></use>
                            </mask>
                            <use id="Combined-Shape" fill="#FFFFFF" xlink:href="#path-1"></use>
                            <g id="Color-/-Global-Grey---medium-dark" mask="url(#mask-2)" fill="#747981">
                                <rect id="color" x="0" y="0" width="33" height="32"></rect>
                            </g>
                        </g>
                    </g>
                </g>
            </g>
        </g>
    </g>
</svg>