<?xml version="1.0" encoding="UTF-8"?>
<svg width="33px" height="32px" viewBox="0 0 33 32" version="1.1" xmlns="http://www.w3.org/2000/svg" xmlns:xlink="http://www.w3.org/1999/xlink">
    <!-- Generator: Sketch 51.3 (57544) - http://www.bohemiancoding.com/sketch -->
    <title>Icon / iOS / Orders</title>
    <desc>Created with Sketch.</desc>
    <defs>
        <path class="path-01" d="M4.25546997,25.0059204 L2.29679447,25.0059204 C1.59785356,25.0059204 1.03125,24.4564867 1.03125,23.7787258 L1.03125,8.22719463 C1.03125,7.54943375 1.59785356,7 2.29679447,7 L19.8585896,7 C20.5575305,7 21.1241341,7.54943375 21.1241341,8.22719463 L21.1241341,11.9998779 L25.0310352,11.9998779 C25.5934994,11.9998779 26.0884679,12.359855 26.2459579,12.8834581 L27.161079,15.991063 L30.6960831,16.0280896 C31.0321646,16.0274378 31.3547115,16.1564434 31.5925948,16.3866577 C31.8304781,16.616872 31.9641593,16.9293863 31.9641586,17.2552842 L31.96875,23.7787258 C31.96875,24.4564867 31.4021464,25.0059204 30.7032055,25.0059204 L29.7675541,25.0059204 C29.3034697,26.7223766 27.6928012,27.9886475 25.7771371,27.9886475 C23.8614729,27.9886475 22.2508044,26.7223766 21.78672,25.0059204 L12.2363041,25.0059204 C11.7722197,26.7223766 10.1615512,27.9886475 8.24588705,27.9886475 C6.33022288,27.9886475 4.71955441,26.7223766 4.25546997,25.0059204 Z M12.2474212,23.0134277 L19.1312485,23.0134277 L19.1312485,9.00158691 L3.08569336,9.00158691 L3.08569336,23.0134277 L4.24435292,23.0134277 C4.69332289,21.275641 6.31461147,19.9886475 8.24588705,19.9886475 C10.1771626,19.9886475 11.7984512,21.275641 12.2474212,23.0134277 Z M29.7750963,22.9996948 L29.9079494,22.9996948 L29.9079494,18.0012207 L26.5976143,18.0012207 C26.0351501,18.0012207 25.5401816,17.6412436 25.3826916,17.1176406 L24.4721629,13.9920449 L21.1230011,13.9920449 L21.1230011,22.9996948 L21.7791778,22.9996948 C22.2331224,21.268865 23.8509523,19.9886475 25.7771371,19.9886475 C27.7033218,19.9886475 29.3211517,21.268865 29.7750963,22.9996948 Z M8.24588705,25.9886475 C9.38497435,25.9886475 10.3083871,25.093217 10.3083871,23.9886475 C10.3083871,22.884078 9.38497435,21.9886475 8.24588705,21.9886475 C7.10679976,21.9886475 6.18338705,22.884078 6.18338705,23.9886475 C6.18338705,25.093217 7.10679976,25.9886475 8.24588705,25.9886475 Z M25.7771371,25.9886475 C26.9162243,25.9886475 27.8396371,25.093217 27.8396371,23.9886475 C27.8396371,22.884078 26.9162243,21.9886475 25.7771371,21.9886475 C24.6380498,21.9886475 23.7146371,22.884078 23.7146371,23.9886475 C23.7146371,25.093217 24.6380498,25.9886475 25.7771371,25.9886475 Z" id="path-1"></path>
    </defs>
    <g id="Style-" stroke="none" stroke-width="1" fill="none" fill-rule="evenodd">
        <g id="Style_Icons" transform="translate(-441.000000, -3912.000000)">
            <g id="iOS" transform="translate(165.000000, 3840.000000)">
                <g id="Order" transform="translate(276.000000, 48.000000)">
                    <g id="Icon-/-iOS-/-Orders" transform="translate(0.000000, 24.000000)">
                        <g id="Icon">
                            <mask id="mask-2" fill="white">
                                <use xlink:href="#path-1"></use>
                            </mask>
                            <use id="Combined-Shape" fill="#FFFFFF" xlink:href="#path-1"></use>
                            <g id="Color-/-Global-Grey---medium-dark" mask="url(#mask-2)" fill="#747981">
                                <rect id="color" x="0" y="0" width="33" height="32"></rect>
                            </g>
                        </g>
                    </g>
                </g>
            </g>
        </g>
    </g>
</svg>