<?xml version="1.0" encoding="UTF-8"?>
<svg width="33px" height="32px" viewBox="0 0 33 32" version="1.1" xmlns="http://www.w3.org/2000/svg" xmlns:xlink="http://www.w3.org/1999/xlink">
    <!-- Generator: Sketch 51.3 (57544) - http://www.bohemiancoding.com/sketch -->
    <title>Prescriptions</title>
    <desc>Created with Sketch.</desc>
    <defs>
        <path class="path-01" d="M23.7219816,9.94222353 C23.7230236,7.94318597 22.4814365,6.14061784 20.5767399,5.3758808 C18.6720434,4.61114376 16.4797928,5.03502355 15.0232369,6.44967122 L10.3217724,11.0106754 L10.3217724,11.0106754 L5.61720131,15.5726838 C4.33025475,16.8206319 3.82764489,18.639556 4.2987,20.3442849 C4.76975511,22.0490137 6.14291072,23.3805586 7.90091239,23.8373393 C9.65891405,24.29412 11.5346795,23.8067407 12.821626,22.5587926 L22.2307683,13.4347758 C23.1888282,12.5103817 23.7257817,11.2527896 23.7219816,9.94222353 L23.7219816,9.94222353 Z M11.3563017,21.1378721 C10.5943764,21.8864977 9.47721501,22.1818692 8.42887477,21.9118681 C7.38053452,21.641867 6.56174521,20.8478895 6.28330661,19.8313172 C6.00486802,18.8147448 6.30946987,17.7314368 7.08149002,16.9926001 L11.0539168,13.1405499 L15.3287285,17.2858219 L11.3563017,21.1378721 Z M20.765444,12.0138553 L16.7930172,15.8659055 L12.5182055,11.7206336 L16.4906323,7.86858336 C17.2544388,7.12810184 18.3676124,6.83900659 19.4108314,7.11019698 C20.4540503,7.38138738 21.2688248,8.17166315 21.5482372,9.18333506 C21.8276496,10.195007 21.5292505,11.274378 20.765444,12.0148595 L20.765444,12.0138553 Z M22.9680904,17.5499223 C25.6394795,17.5503689 27.9775609,19.2905204 28.6687755,21.7927412 C29.3599902,24.2949619 28.2320133,26.93543 25.9185542,28.2307024 C23.6050952,29.5259748 20.6829162,29.1531306 18.7937285,27.3216378 C17.105133,25.6846111 16.5999222,23.2223326 17.5137278,21.0832157 C18.4275334,18.9440989 20.580347,17.549523 22.9680904,17.5499223 Z M20.2580172,20.646826 C19.0460035,21.8254631 18.7884748,23.6411959 19.6273582,25.0933532 L24.8445339,20.0342737 C23.3469365,19.2184369 21.4724194,19.468788 20.2580172,20.646826 Z M25.6771281,25.9017214 C26.8891418,24.7230844 27.1466705,22.9073516 26.3077871,21.4551942 L21.0906114,26.5142737 C22.5882088,27.3301106 24.4627259,27.0797595 25.6771281,25.9017214 Z" id="path-1"></path>
    </defs>
    <g id="Style-" stroke="none" stroke-width="1" fill="none" fill-rule="evenodd">
        <g id="Style_Icons" transform="translate(-586.000000, -3912.000000)">
            <g id="iOS" transform="translate(165.000000, 3840.000000)">
                <g id="Prescriptions-Medications" transform="translate(421.000000, 48.000000)">
                    <g id="Icon-/-iOS-/-Prescriptions" transform="translate(0.000000, 24.000000)">
                        <g id="Icon">
                            <mask id="mask-2" fill="white">
                                <use xlink:href="#path-1"></use>
                            </mask>
                            <use id="Combined-Shape" fill="#FFFFFF" xlink:href="#path-1"></use>
                            <g id="Color-/-Global-Grey---medium-dark" mask="url(#mask-2)" fill="#747981">
                                <rect id="color" x="0" y="0" width="33" height="32"></rect>
                            </g>
                        </g>
                    </g>
                </g>
            </g>
        </g>
    </g>
</svg>