<svg xmlns="http://www.w3.org/2000/svg" width="118" height="117" viewBox="0 0 118 117" version="1.1">
	<path class="path-01" d="M 44.645 2.584 C 36.993 4.436, 26.745 9.881, 20.303 15.516 C 14.635 20.475, 7 31.148, 7 34.114 C 7 37.656, 10.414 36.168, 12.858 31.561 C 16.387 24.909, 27.709 14.499, 35.254 10.968 C 41.364 8.109, 52.910 5.055, 57.750 5.017 C 59.328 5.005, 60 4.402, 60 3 C 60 1.269, 59.361 1.011, 55.250 1.083 C 52.638 1.129, 47.865 1.804, 44.645 2.584 M 67 3.700 C 67 5.267, 68.283 6.029, 73.246 7.409 C 76.682 8.364, 82.055 10.511, 85.186 12.180 C 92.969 16.328, 103.264 27.202, 107.032 35.254 C 110.013 41.626, 112.949 52.971, 112.983 58.250 C 112.996 60.328, 113.489 61, 115 61 C 116.721 61, 116.998 60.338, 116.985 56.250 C 116.925 36.772, 103.554 16.290, 84.914 7.120 C 80.286 4.844, 74.362 2.699, 71.750 2.355 C 67.477 1.791, 67 1.926, 67 3.700 M 47.503 11.616 C 40.719 13.256, 37.886 15.286, 39.763 17.163 C 40.666 18.066, 41.937 18.009, 45.220 16.920 C 47.835 16.052, 53.585 15.503, 60 15.508 C 69.643 15.515, 71.031 15.767, 77 18.594 C 92.147 25.768, 100.343 37.614, 103.572 57 C 105.460 68.331, 106.146 69.954, 108.294 68.171 C 109.839 66.889, 109.218 60.064, 106.483 48.270 C 100.351 21.829, 73.720 5.279, 47.503 11.616 M 24.832 24.750 C 15.151 34.922, 10.610 45.479, 10.743 57.500 C 10.995 80.412, 11.670 92.390, 12.726 92.742 C 15.960 93.820, 17.020 83.339, 15.582 64.500 C 14.873 55.206, 15.019 52.517, 16.527 47.164 C 18.682 39.514, 24.187 30.708, 29.838 25.870 C 32.127 23.911, 34 21.564, 34 20.654 C 34 17.396, 30.227 19.082, 24.832 24.750 M 47.286 21.451 C 37.038 24.653, 27.872 32.774, 23.160 42.825 C 20.539 48.416, 20.504 48.774, 20.786 67 C 21.018 81.968, 20.742 86.790, 19.342 92.256 C 18.077 97.195, 17.909 99.309, 18.719 100.119 C 20.502 101.902, 21.861 100.278, 23.669 94.199 C 25.392 88.411, 25.678 80.546, 24.895 60.500 C 24.537 51.313, 24.722 50.037, 27.173 44.804 C 30.579 37.530, 37.544 30.570, 44.804 27.184 C 49.756 24.874, 51.796 24.525, 60.417 24.513 C 67.425 24.504, 70.455 24.135, 70.748 23.256 C 71.808 20.078, 55.655 18.835, 47.286 21.451 M 76.007 26.750 C 76.011 27.712, 77.603 29.583, 79.546 30.906 C 91.808 39.257, 96.815 56.387, 95.706 86.193 C 95.384 94.863, 95.452 102.161, 95.858 102.412 C 97.880 103.662, 99.155 100.536, 100.136 91.922 C 102.097 74.707, 98.897 50.093, 93.380 39.957 C 88.385 30.779, 75.986 21.353, 76.007 26.750 M 51 29.935 C 42.675 32.477, 35.951 38.131, 31.897 46 C 30.033 49.619, 29.583 52.067, 29.601 58.500 C 29.626 67.872, 30.801 85.134, 31.458 85.791 C 31.709 86.042, 32.671 85.956, 33.597 85.601 C 35.103 85.023, 35.199 83.768, 34.503 73.727 C 33.245 55.557, 33.468 52.749, 36.630 46.939 C 44.943 31.665, 64.704 28.911, 77.664 41.220 C 80.742 44.144, 83 44.274, 83 41.526 C 83 39.273, 74.199 32.256, 69.266 30.575 C 64.457 28.937, 55.320 28.616, 51 29.935 M 53.335 38.695 C 50.846 39.180, 49.546 41.601, 51.218 42.635 C 51.840 43.019, 54.978 43.227, 58.191 43.096 C 65.013 42.817, 69.704 45.125, 72.835 50.300 C 78.487 59.645, 78.337 92.457, 72.566 108.813 C 71.090 112.996, 71.873 115.646, 74.309 114.712 C 75.840 114.124, 77.773 108.405, 80.126 97.500 C 81.857 89.478, 81.853 66.248, 80.119 57.656 C 77.249 43.433, 66.836 36.062, 53.335 38.695 M 2.868 43.750 C -1.154 53.965, 2.364 83.950, 7.043 79.340 C 7.945 78.451, 7.808 76.049, 6.455 69.048 C 4.911 61.060, 4.847 58.865, 5.940 51.516 C 6.627 46.896, 6.896 42.640, 6.536 42.058 C 5.411 40.238, 3.993 40.893, 2.868 43.750 M 41.014 48.217 C 38.221 52.811, 37.629 58.600, 39.051 67.418 C 40.734 77.849, 39.769 89.661, 36.470 99 C 32.527 110.162, 32.409 111, 34.777 111 C 36.313 111, 37.371 109.524, 39.260 104.750 C 44.296 92.023, 45.298 82.574, 43.596 63.846 C 42.774 54.802, 42.858 53.966, 44.929 50.614 C 46.146 48.646, 46.857 46.578, 46.511 46.018 C 45.311 44.076, 42.961 45.016, 41.014 48.217 M 51.766 50.918 L 48.500 53.836 48.500 73.168 L 48.500 92.500 44.938 102.783 C 41.906 111.535, 41.587 113.242, 42.796 114.246 C 44.772 115.886, 46.153 113.760, 49.303 104.229 C 52.947 93.203, 54.394 80.792, 53.394 69.130 C 52.369 57.167, 52.508 55.923, 55.119 53.750 C 60.586 49.200, 65.219 53.385, 66.849 64.345 C 67.482 68.600, 68 73.815, 68 75.934 C 68 79.510, 69.829 81.838, 71.402 80.264 C 73.177 78.490, 71.401 59.959, 68.856 53.703 C 66.366 47.581, 57.176 46.084, 51.766 50.918 M 84.292 52.750 C 84.597 54.813, 85.382 60.100, 86.036 64.500 C 87.447 73.990, 86.777 90.432, 84.556 100.838 C 83.695 104.874, 83.244 108.586, 83.554 109.088 C 84.911 111.283, 86.994 109.726, 88.021 105.750 C 88.625 103.412, 89.347 100.715, 89.625 99.756 C 89.903 98.797, 90.481 93.492, 90.909 87.966 C 91.738 77.268, 91.004 64.154, 89.051 54.745 C 88.065 49.996, 87.501 49, 85.797 49 C 83.984 49, 83.803 49.450, 84.292 52.750 M 57.580 57.871 C 57.284 58.350, 57.421 62.847, 57.884 67.865 C 58.369 73.124, 58.332 80.910, 57.797 86.244 C 56.349 100.681, 56.341 100.405, 58.195 100.781 C 60.994 101.349, 62.391 94.030, 62.448 78.500 C 62.505 63.132, 61.668 57, 59.514 57 C 58.746 57, 57.876 57.392, 57.580 57.871 M 106 81.500 C 106 87.292, 106.225 88.103, 107.750 87.810 C 109.184 87.534, 109.500 86.393, 109.500 81.500 C 109.500 76.607, 109.184 75.466, 107.750 75.190 C 106.225 74.897, 106 75.708, 106 81.500 M 67.640 88.750 C 67.369 89.713, 66.837 92.525, 66.460 95 C 66.082 97.475, 64.663 103.041, 63.306 107.369 C 61.527 113.040, 61.142 115.542, 61.926 116.326 C 63.611 118.011, 65.485 115.371, 67.834 108 C 70.350 100.107, 72.318 89.324, 71.488 87.981 C 70.506 86.392, 68.175 86.857, 67.640 88.750 M 26.970 98.589 C 25.354 103.446, 25.072 105.472, 25.896 106.296 C 27.497 107.897, 29.466 105.547, 31.407 99.715 C 33.479 93.492, 33.416 92, 31.082 92 C 29.606 92, 28.657 93.522, 26.970 98.589 M 52.429 110.546 C 50.680 115.127, 51.421 118.094, 53.928 116.544 C 55.511 115.566, 58.154 108.845, 57.563 107.303 C 56.533 104.618, 54.108 106.150, 52.429 110.546 " stroke="none" fill="black" fill-rule="evenodd"/>
	<path class="path-02" d="M 68.282 53.185 L 44.064 77.431 34.667 68.216 C 29.498 63.147, 24.729 59, 24.069 59 C 21.293 59, 19 61.172, 19 63.801 C 19 67.591, 40.275 89, 44.041 89 C 45.992 89, 52.404 83.131, 72.848 62.633 C 97.892 37.524, 99.131 36.105, 98.823 32.883 C 98.542 29.939, 98.111 29.464, 95.500 29.219 C 92.787 28.966, 90.182 31.259, 68.282 53.185 " stroke="none" fill="black" fill-rule="evenodd"/>
</svg>