<?xml version="1.0" encoding="UTF-8"?>
<svg width="33px" height="32px" viewBox="0 0 33 32" version="1.1" xmlns="http://www.w3.org/2000/svg" xmlns:xlink="http://www.w3.org/1999/xlink">
    <!-- Generator: Sketch 51.3 (57544) - http://www.bohemiancoding.com/sketch -->
    <title>Icon / iOS / Home</title>
    <desc>Created with Sketch.</desc>
    <defs>
        <path class="path-01" d="M26.5153755,14.5559275 L26.5153755,8.99541147 C26.5153755,8.36365088 25.9872279,7.85150774 25.3357247,7.85150774 C24.6842216,7.85150774 24.156074,8.36365088 24.156074,8.99541147 L24.156074,12.2669762 L17.0073906,5.33491952 C16.5467372,4.88836016 15.8000179,4.88836016 15.3393645,5.33491952 L3.42489214,16.8883472 C2.9778373,17.3371909 2.98423081,18.0506504 3.43926197,18.4918928 C3.89429312,18.9331351 4.63004823,18.9393349 5.09291827,18.5058271 L5.83137962,17.7897434 L5.83137962,27.8560963 C5.83137962,28.4878569 6.35952724,29 7.01103035,29 L25.3357247,29 C25.9872279,29 26.5153755,28.4878569 26.5153755,27.8560963 L26.5153755,17.7897434 L27.2538368,18.5058271 C27.7184359,18.9282974 28.444983,18.9168571 28.8951918,18.4799821 C29.3454006,18.043107 29.3566844,17.3385686 28.9206833,16.8883472 L26.5153755,14.5559275 Z M17.2586562,26.7133364 L15.0869192,26.7133364 L15.0869192,21.0704593 C15.0869192,20.4889237 15.5730791,20.0174959 16.1727877,20.0174959 C16.7724963,20.0174959 17.2586562,20.4889237 17.2586562,21.0704593 L17.2586562,26.7133364 Z M24.1548944,26.7133364 L19.6179577,26.7133364 L19.6179577,21.0704593 C19.6179577,19.2254025 18.0755025,17.7296884 16.1727877,17.7296884 C14.2700729,17.7296884 12.7276178,19.2254025 12.7276178,21.0704593 L12.7276178,26.7133364 L8.19068108,26.7133364 L8.19068108,15.6025994 L8.19068108,15.5076554 L16.1733775,7.76342715 L24.156074,15.5042237 L24.156074,26.7144803 L24.1548944,26.7133364 Z" id="path-1"></path>
    </defs>
    <g id="Style-" stroke="none" stroke-width="1" fill="none" fill-rule="evenodd">
        <g id="Style_Icons" transform="translate(-301.000000, -3912.000000)">
            <g id="iOS" transform="translate(165.000000, 3840.000000)">
                <g id="Home" transform="translate(136.000000, 48.000000)">
                    <g id="Icon-/-iOS-/-Home" transform="translate(0.000000, 24.000000)">
                        <g id="Icon">
                            <mask id="mask-2" fill="white">
                                <use xlink:href="#path-1"></use>
                            </mask>
                            <use id="Shape" fill="#FFFFFF" xlink:href="#path-1"></use>
                            <g id="Color-/-Global-Grey---medium-dark" mask="url(#mask-2)" fill="#747981">
                                <rect id="color" x="0" y="0" width="33" height="32"></rect>
                            </g>
                        </g>
                    </g>
                </g>
            </g>
        </g>
    </g>
</svg>