<?xml version="1.0" encoding="UTF-8"?>
<svg width="112px" height="112px" viewBox="0 0 112 112" version="1.1" xmlns="http://www.w3.org/2000/svg" xmlns:xlink="http://www.w3.org/1999/xlink">
    <!-- Generator: Sketch 51.3 (57544) - http://www.bohemiancoding.com/sketch -->
    <title>Touch ID</title>
    <desc>Created with Sketch.</desc>
    <defs>
        <path class="path-01" d="M112,93.84375 L112,81.265625 C112,79.6951094 110.726766,78.421875 109.15625,78.421875 C107.585734,78.421875 106.3125,79.6951094 106.3125,81.265625 L106.3125,93.84375 C106.3125,100.718953 100.718953,106.3125 93.84375,106.3125 L81.265625,106.3125 C79.6951094,106.3125 78.421875,107.585734 78.421875,109.15625 C78.421875,110.726766 79.6951094,112 81.265625,112 L93.84375,112 C103.855063,112 112,103.855063 112,93.84375 M33.578125,109.15625 C33.578125,107.585734 32.3048906,106.3125 30.734375,106.3125 L18.15625,106.3125 C11.2810469,106.3125 5.6875,100.718953 5.6875,93.84375 L5.6875,81.265625 C5.6875,79.6951094 4.41426562,78.421875 2.84375,78.421875 C1.27323437,78.421875 0,79.6951094 0,81.265625 L0,93.84375 C0,103.855063 8.1449375,112 18.15625,112 L30.734375,112 C32.3048906,112 33.578125,110.726766 33.578125,109.15625 M5.6875,30.734375 L5.6875,18.15625 C5.6875,11.2809375 11.2810469,5.6875 18.15625,5.6875 L30.734375,5.6875 C32.3048906,5.6875 33.578125,4.41426563 33.578125,2.84375 C33.578125,1.27323437 32.3048906,0 30.734375,0 L18.15625,0 C8.1449375,0 0,8.14482812 0,18.15625 L0,30.734375 C0,32.3048906 1.27323437,33.578125 2.84375,33.578125 C4.41426562,33.578125 5.6875,32.3048906 5.6875,30.734375 M112,30.734375 L112,18.15625 C112,8.14482812 103.855063,0 93.84375,0 L81.265625,0 C79.6951094,0 78.421875,1.27323437 78.421875,2.84375 C78.421875,4.41426563 79.6951094,5.6875 81.265625,5.6875 L93.84375,5.6875 C100.718953,5.6875 106.3125,11.2809375 106.3125,18.15625 L106.3125,30.734375 C106.3125,32.3048906 107.585734,33.578125 109.15625,33.578125 C110.726766,33.578125 112,32.3048906 112,30.734375 M75.6250469,82.7789375 C76.8231406,81.6722812 76.8971875,79.8039375 75.7905313,78.6058437 C74.6837656,77.40775 72.8155312,77.3337031 71.6174375,78.44025 C67.3543281,82.3781875 61.8079219,84.546875 56,84.546875 C50.1920781,84.546875 44.6456719,82.3781875 40.3825625,78.44025 C39.18425,77.3337031 37.3162344,77.4078594 36.2094687,78.6058437 C35.1028125,79.8039375 35.1768594,81.6722812 36.3749531,82.7789375 C41.7326875,87.7277187 48.7021719,90.453125 56,90.453125 C63.2978281,90.453125 70.2673125,87.7277187 75.6250469,82.7789375 M61.90625,63.21875 L61.90625,42.21875 C61.90625,40.58775 60.584125,39.265625 58.953125,39.265625 C57.322125,39.265625 56,40.58775 56,42.21875 L56,63.21875 C56,64.1233906 55.2640156,64.859375 54.359375,64.859375 L51.953125,64.859375 C50.322125,64.859375 49,66.1815 49,67.8125 C49,69.4435 50.322125,70.765625 51.953125,70.765625 L54.359375,70.765625 C58.5207656,70.765625 61.90625,67.3801406 61.90625,63.21875 M82.25,50.4765625 L82.25,42.0546875 C82.25,40.5143594 81.0012656,39.265625 79.4609375,39.265625 C77.9206094,39.265625 76.671875,40.5143594 76.671875,42.0546875 L76.671875,50.4765625 C76.671875,52.0168906 77.9206094,53.265625 79.4609375,53.265625 C81.0012656,53.265625 82.25,52.0168906 82.25,50.4765625 M33.1953125,53.265625 C31.6549844,53.265625 30.40625,52.0168906 30.40625,50.4765625 L30.40625,42.0546875 C30.40625,40.5143594 31.6549844,39.265625 33.1953125,39.265625 C34.7356406,39.265625 35.984375,40.5143594 35.984375,42.0546875 L35.984375,50.4765625 C35.984375,52.0168906 34.7356406,53.265625 33.1953125,53.265625" id="path-1"></path>
    </defs>
    <g id="Style-" stroke="none" stroke-width="1" fill="none" fill-rule="evenodd">
        <g id="Style_Icons" transform="translate(-298.000000, -4160.000000)">
            <g id="iOS" transform="translate(165.000000, 3840.000000)">
                <g id="Face-ID" transform="translate(0.000000, 288.000000)">
                    <g id="Icon-/-iOS-/-iOS---Touch-ID-ESI" transform="translate(133.000000, 32.000000)">
                        <g id="Group">
                            <mask id="mask-2" fill="white">
                                <use xlink:href="#path-1"></use>
                            </mask>
                            <use id="Face-ID" fill="#000000" xlink:href="#path-1"></use>
                            <g id="Color-/-ESI-Blue---dark-brand" mask="url(#mask-2)" fill="#14568D">
                                <rect id="color" x="0" y="0" width="112" height="112"></rect>
                            </g>
                        </g>
                    </g>
                </g>
            </g>
        </g>
    </g>
</svg>