<?xml version="1.0" encoding="UTF-8"?>
<svg width="33px" height="32px" viewBox="0 0 33 32" version="1.1" xmlns="http://www.w3.org/2000/svg" xmlns:xlink="http://www.w3.org/1999/xlink">
    <!-- Generator: Sketch 51.3 (57544) - http://www.bohemiancoding.com/sketch -->
    <title>Icon / iOS / Settings</title>
    <desc>Created with Sketch.</desc>
    <defs>
        <path class="path-01" d="M15.9245439,5 C12.8812309,5 10.4141383,7.39233223 10.4141383,10.3434236 C10.4141383,13.294515 12.8812309,15.6868472 15.9245439,15.6868472 C18.9678569,15.6868472 21.4349495,13.294515 21.4349495,10.3434236 C21.4320094,7.39351396 18.9666382,5.00285098 15.9245439,5 L15.9245439,5 Z M15.9245439,13.6171239 C14.5585495,13.6171238 13.3270798,12.8191484 12.8044361,11.5953369 C12.2817923,10.3715255 12.5709157,8.9629226 13.5369721,8.02643647 C14.5030286,7.08995033 15.9557416,6.8100333 17.217632,7.31722592 C18.4795224,7.82441854 19.3020455,9.01882303 19.301614,10.3434236 C19.2992621,12.1508966 17.7885011,13.6154142 15.9245439,13.6171239 Z M14.6680093,26.2009589 C15.2571136,26.2009589 15.734677,26.6640507 15.734677,27.2353034 C15.734677,27.806556 15.2571136,28.2696478 14.6680093,28.2696478 L6.56666775,28.2696478 C5.97756342,28.2696478 5.5,27.806556 5.5,27.2353034 L5.5,24.0505567 C5.5,20.6785937 7.73040226,17.8382837 11.0466723,16.9818465 L11.7517397,16.7998019 C12.373607,16.6394785 12.7917407,16.9642626 13.5501415,17.553839 C14.0482753,17.9417182 14.669076,18.4237227 15.2472099,18.7216139 C15.7673889,18.9898171 15.9648613,19.6161487 15.6882768,20.1205647 C15.4116924,20.6249808 14.765788,20.8164693 14.2456089,20.5482663 C13.4914748,20.1593528 12.752274,19.5863259 12.2189401,19.1684507 C12.1122734,19.0836345 11.9864066,18.9874405 11.8808065,18.9077959 L11.5981395,18.9812344 C9.18960374,19.6018411 7.6333355,21.5919199 7.6333355,24.0495224 L7.6333355,26.1999245 L14.6680093,26.1999245 L14.6680093,26.2009589 Z M27.2504221,23.8457565 C27.6197429,23.9569478 27.8980764,24.2532629 27.9778589,24.620189 C28.0576414,24.9871152 27.9263756,25.3671755 27.6347897,25.6134936 C27.3432038,25.8598117 26.9369732,25.9338032 26.573088,25.8068736 L25.6344204,25.4965703 C25.4103415,25.828266 25.138017,26.1268279 24.8258863,26.3830035 L25.2685534,27.2528872 C25.5251054,27.7643309 25.3077062,28.3806806 24.7818872,28.6326372 C24.2560681,28.8845938 23.6191165,28.6776232 23.3560181,28.1693164 L22.9048177,27.2818489 C22.6259265,27.3356661 22.3422431,27.3626897 22.0578835,27.3625277 C21.9352167,27.3625277 21.8125499,27.357356 21.6909498,27.3470126 L21.3602828,28.2965408 C21.238336,28.6466759 20.9330203,28.9071276 20.5593453,28.9797864 C20.1856702,29.0524452 19.8004059,28.9262725 19.5486776,28.6487962 C19.2969493,28.3713199 19.2170006,27.9846954 19.3389474,27.6345603 L19.6760144,26.6674482 C19.3403679,26.4520798 19.0382758,26.1911875 18.7789468,25.8927242 L17.8274792,26.3468015 C17.4854566,26.5099515 17.0796551,26.4837708 16.7629364,26.2781213 C16.4462176,26.0724718 16.2666986,25.7185966 16.2920025,25.349797 C16.3173064,24.9809975 16.5435889,24.6533031 16.8856115,24.4901531 L17.8456125,24.0298698 C17.768156,23.6622199 17.7430333,23.2860097 17.7709458,22.9117434 L16.7512114,22.5766158 C16.3858663,22.4613471 16.1126748,22.1644638 16.0360188,21.7994 C15.9593628,21.4343362 16.0910876,21.0575036 16.3808633,20.8128835 C16.6706391,20.5682634 17.0736881,20.493656 17.4360121,20.6175674 L18.4440131,20.9485576 C18.6608187,20.6213822 18.9240214,20.3254166 19.2258806,20.0693648 L18.7650801,19.1643134 C18.5085281,18.6528697 18.7259273,18.03652 19.2517463,17.7845634 C19.7775654,17.5326068 20.414517,17.7395773 20.6776154,18.2478841 L21.1298825,19.1353517 C21.4308085,19.0710725 21.7380099,19.0384743 22.0461501,19.0381233 C22.1389502,19.0381233 22.2317503,19.0412264 22.3245504,19.0474324 L22.6498841,18.1165224 C22.8383974,17.5752605 23.4437091,17.2846704 24.0018854,17.4674712 C24.5600618,17.6502721 24.8597328,18.2372409 24.6712194,18.7785029 L24.3512191,19.688726 C24.7038213,19.9041917 25.0215786,20.1690984 25.2941534,20.4748278 L26.1741543,20.054884 C26.5161769,19.8917339 26.9219784,19.9179146 27.2386971,20.1235641 C27.5554159,20.3292136 27.7349349,20.6830888 27.709631,21.0518884 C27.6843271,21.4206879 27.4580446,21.7483823 27.1160219,21.9115323 L26.2466877,22.3252701 C26.3357608,22.7245998 26.3623698,23.1346521 26.3256211,23.5416592 L27.2504221,23.8457565 Z M24.0888189,23.8643747 C24.2779205,23.3451494 24.2433153,22.7739419 23.9928188,22.2797589 C23.7414251,21.7787455 23.2922442,21.3972493 22.7469508,21.2216245 C22.5223179,21.1473887 22.2866696,21.1093042 22.0493501,21.108881 C21.3039769,21.1121639 20.6129081,21.4875109 20.2206481,22.102122 C19.828388,22.716733 19.7902578,23.4839284 20.1197482,24.1322699 C20.3685376,24.6270924 20.811549,25.0045177 21.3496161,25.1800609 C21.5766313,25.2551565 21.8148227,25.2935939 22.0546835,25.2938388 C22.9768446,25.2980748 23.797423,24.7272649 24.0888189,23.8788555 L24.0888189,23.8643747 Z" id="path-1"></path>
    </defs>
    <g id="Style-" stroke="none" stroke-width="1" fill="none" fill-rule="evenodd">
        <g id="Style_Icons" transform="translate(-804.000000, -3912.000000)">
            <g id="iOS" transform="translate(165.000000, 3840.000000)">
                <g id="Account-Settings" transform="translate(639.000000, 48.000000)">
                    <g id="Icon-/-iOS-/-Settings" transform="translate(0.000000, 24.000000)">
                        <g id="Icon">
                            <mask id="mask-2" fill="white">
                                <use xlink:href="#path-1"></use>
                            </mask>
                            <use id="Combined-Shape" fill="#FFFFFF" xlink:href="#path-1"></use>
                            <g id="Color-/-Global-Grey---medium-dark" mask="url(#mask-2)" fill="#747981">
                                <rect id="color" x="0" y="0" width="33" height="32"></rect>
                            </g>
                        </g>
                    </g>
                </g>
            </g>
        </g>
    </g>
</svg>