<?xml version="1.0" encoding="UTF-8"?>
<svg width="112px" height="112px" viewBox="0 0 112 112" version="1.1" xmlns="http://www.w3.org/2000/svg" xmlns:xlink="http://www.w3.org/1999/xlink">
    <!-- Generator: Sketch 51.3 (57544) - http://www.bohemiancoding.com/sketch -->
    <title>Touch ID</title>
    <desc>Created with Sketch.</desc>
    <defs>
        <path class="path-01" d="M56,112 C25.072054,112 0,86.927946 0,56 C0,25.072054 25.072054,0 56,0 C86.927946,0 112,25.072054 112,56 C112,86.927946 86.927946,112 56,112 Z M56,106.09375 C83.6660142,106.09375 106.09375,83.6660142 106.09375,56 C106.09375,28.3339858 83.6660142,5.90625 56,5.90625 C28.3339858,5.90625 5.90625,28.3339858 5.90625,56 C5.90625,83.6660142 28.3339858,106.09375 56,106.09375 Z M75.6250469,82.7789375 C70.2673125,87.7277187 63.2978281,90.453125 56,90.453125 C48.7021719,90.453125 41.7326875,87.7277187 36.3749531,82.7789375 C35.1768594,81.6722812 35.1028125,79.8039375 36.2094688,78.6058437 C37.3162344,77.4078594 39.18425,77.3337031 40.3825625,78.44025 C44.6456719,82.3781875 50.1920781,84.546875 56,84.546875 C61.8079219,84.546875 67.3543281,82.3781875 71.6174375,78.44025 C72.8155313,77.3337031 74.6837656,77.40775 75.7905313,78.6058437 C76.8971875,79.8039375 76.8231406,81.6722812 75.6250469,82.7789375 Z M61.90625,63.21875 L61.90625,42.21875 C61.90625,40.58775 60.584125,39.265625 58.953125,39.265625 C57.322125,39.265625 56,40.58775 56,42.21875 L56,63.21875 C56,64.1233906 55.2640156,64.859375 54.359375,64.859375 L51.953125,64.859375 C50.322125,64.859375 49,66.1815 49,67.8125 C49,69.4435 50.322125,70.765625 51.953125,70.765625 L54.359375,70.765625 C58.5207656,70.765625 61.90625,67.3801406 61.90625,63.21875 M82.25,50.4765625 C82.25,52.0168906 81.0012656,53.265625 79.4609375,53.265625 C77.9206094,53.265625 76.671875,52.0168906 76.671875,50.4765625 L76.671875,42.0546875 C76.671875,40.5143594 77.9206094,39.265625 79.4609375,39.265625 C81.0012656,39.265625 82.25,40.5143594 82.25,42.0546875 L82.25,50.4765625 Z M33.1953125,53.265625 C31.6549844,53.265625 30.40625,52.0168906 30.40625,50.4765625 L30.40625,42.0546875 C30.40625,40.5143594 31.6549844,39.265625 33.1953125,39.265625 C34.7356406,39.265625 35.984375,40.5143594 35.984375,42.0546875 L35.984375,50.4765625 C35.984375,52.0168906 34.7356406,53.265625 33.1953125,53.265625 Z" id="path-1"></path>
    </defs>
    <g id="Style-" stroke="none" stroke-width="1" fill="none" fill-rule="evenodd">
        <g id="Style_Icons" transform="translate(-564.000000, -4160.000000)">
            <g id="iOS" transform="translate(165.000000, 3840.000000)">
                <g id="Face-ID" transform="translate(0.000000, 288.000000)">
                    <g id="Icon-/-iOS-/-iOS---Touch-ID-ESI" transform="translate(399.000000, 32.000000)">
                        <g id="Group">
                            <mask id="mask-2" fill="white">
                                <use xlink:href="#path-1"></use>
                            </mask>
                            <use id="Combined-Shape" fill="#000000" xlink:href="#path-1"></use>
                            <g id="Color-/-ESI-Blue---dark-brand" mask="url(#mask-2)" fill="#14568D">
                                <rect id="color" x="0" y="0" width="112" height="112"></rect>
                            </g>
                        </g>
                    </g>
                </g>
            </g>
        </g>
    </g>
</svg>