<?xml version="1.0" encoding="UTF-8"?>
<svg width="24px" height="24px" viewBox="0 0 24 24" version="1.1" xmlns="http://www.w3.org/2000/svg" xmlns:xlink="http://www.w3.org/1999/xlink">
    <!-- Generator: Sketch 51.3 (57544) - http://www.bohemiancoding.com/sketch -->
    <title>Menu</title>
    <desc>Created with Sketch.</desc>
    <path class="path-01" d="M0,1.5 C0,0.671572875 0.666946292,0 1.50130749,0 L22.4986925,0 C23.3278417,0 24,0.665797234 24,1.5 C24,2.32842712 23.3330537,3 22.4986925,3 L1.50130749,3 C0.672158257,3 0,2.33420277 0,1.5 Z M0,9 C0,8.17157288 0.666946292,7.5 1.50130749,7.5 L22.4986925,7.5 C23.3278417,7.5 24,8.16579723 24,9 C24,9.82842712 23.3330537,10.5 22.4986925,10.5 L1.50130749,10.5 C0.672158257,10.5 0,9.83420277 0,9 Z M0,16.5 C0,15.6715729 0.666946292,15 1.50130749,15 L22.4986925,15 C23.3278417,15 24,15.6657972 24,16.5 C24,17.3284271 23.3330537,18 22.4986925,18 L1.50130749,18 C0.672158257,18 0,17.3342028 0,16.5 Z" id="path-1"></path>
</svg>