<?xml version="1.0" encoding="UTF-8"?>
<svg width="24px" height="24px" viewBox="0 0 24 24" version="1.1" xmlns="http://www.w3.org/2000/svg" xmlns:xlink="http://www.w3.org/1999/xlink">
    <!-- Generator: Sketch 51.3 (57544) - http://www.bohemiancoding.com/sketch -->
    <title>Message Attachment</title>
    <desc>Created with Sketch.</desc>
    <defs>
        <path class="path-01" d="M22.8051197,2.35130307 C22.0330355,1.59551819 21.0059236,1.17993569 19.9138045,1.17993569 C18.8206853,1.17993569 17.7945734,1.59551819 17.0224893,2.35130307 L6.00328789,13.1286764 C4.87816522,14.2306148 4.87816522,16.0228763 6.00328789,17.1238227 C6.54934742,17.6584265 7.27442648,17.9520122 8.04551054,17.9520122 C8.81759472,17.9520122 9.54267377,17.6584265 10.0877332,17.1238227 L18.1376108,9.25155951 C18.3276316,9.0650929 18.3276316,8.76258058 18.1376108,8.57611396 C17.94659,8.38964735 17.6375563,8.38964735 17.4465355,8.57611396 L9.39765796,16.449369 C8.67557924,17.1565536 7.41644196,17.1555617 6.69336312,16.449369 C5.94828189,15.7203639 5.94828189,14.5331271 6.69336312,13.804122 L17.7135646,3.02674861 C18.3006286,2.45147928 19.0817138,2.13508115 19.9138045,2.13508115 C20.7448951,2.13508115 21.5269804,2.45147928 22.1150445,3.02674861 C23.3281768,4.21398549 23.3281768,6.14411328 22.1150445,7.33135015 L8.33754238,20.8065383 C6.65635909,22.4510151 3.92006076,22.4510151 2.23887747,20.8065383 C1.42478871,20.0110797 0.976739863,18.9507988 0.976739863,17.8240644 C0.976739863,16.69733 1.42478871,15.6380409 2.23887747,14.8415905 L13.0460557,4.27151242 C13.2370766,4.08504581 13.2370766,3.78253349 13.0460557,3.59606688 C12.8550349,3.40960027 12.5460012,3.40960027 12.3559805,3.59606688 L1.54880223,14.1661449 C0.549693304,15.1431109 -0.000366666667,16.4424261 -0.000366666667,17.8240644 C-0.000366666667,19.2066945 0.549693304,20.5060097 1.54880223,21.4819839 C2.57991465,22.4906889 3.93406229,22.9945455 5.28820993,22.9945455 C6.64235756,22.9945455 7.9965052,22.489697 9.02761762,21.4819839 L22.8051197,8.00580385 C24.3982934,6.44761744 24.3982934,3.91048132 22.8051197,2.35130307" id="path-1"></path>
    </defs>
    <g id="Style-" stroke="none" stroke-width="1" fill="none" fill-rule="evenodd">
        <g id="Style_Icons" transform="translate(-166.000000, -3456.000000)">
            <g id="Message" transform="translate(165.000000, 3384.000000)">
                <g id="Icon-/-Message-/-Message---attachment" transform="translate(1.000000, 72.000000)">
                    <mask id="mask-2" fill="white">
                        <use xlink:href="#path-1"></use>
                    </mask>
                    <use id="Fill-1" fill="#515761" xlink:href="#path-1"></use>
                    <g id="Color-/-Global-Grey---dark" mask="url(#mask-2)" fill="#515761">
                        <rect id="color" x="0" y="0" width="24" height="24"></rect>
                    </g>
                </g>
            </g>
        </g>
    </g>
</svg>