<?xml version="1.0" encoding="UTF-8"?>
<svg width="24px" height="24px" viewBox="0 0 24 24" version="1.1" xmlns="http://www.w3.org/2000/svg" xmlns:xlink="http://www.w3.org/1999/xlink">
    <!-- Generator: Sketch 51.3 (57544) - http://www.bohemiancoding.com/sketch -->
    <title>Message Unread</title>
    <desc>Created with Sketch.</desc>
    <defs>
        <path class="path-01" d="M0.0354963981,6.64189932 C0.221786817,5.70869776 1.11907913,5.0009584 2.19832565,5 L12.7218018,5 L21.8027488,5 C22.8770728,5.00143128 23.7707903,5.70314959 23.9621338,6.63022742 C23.9699154,6.66140025 23.978511,6.70693928 23.9892555,6.76874226 C23.9959001,6.81580156 23.9994893,6.86324885 24,6.91078067 L24,17.7815985 C23.9988165,19.0058696 23.0159399,19.9982072 21.8027488,20 L12.7218018,20 L2.19832565,20 C0.984714929,19.9988046 0.00118458915,19.0062923 0,17.7815985 L0,6.90969641 C0.000136192279,6.86218761 0.00336650581,6.81473921 0.0182656579,6.7210347 C0.0217594074,6.70129102 0.026616416,6.67650309 0.0354963981,6.64189932 Z M20.9464118,6.91078067 L11.9994628,12.7484511 L3.05251377,6.90969641 L20.9464118,6.91078067 Z M21.8016744,17.8325589 L2.1972512,17.8325589 C2.17063885,17.8309593 2.14941153,17.8095382 2.14782648,17.7826828 L2.14782648,8.90257125 L11.4149617,14.9505886 C11.7712826,15.1779599 12.2254941,15.1779599 12.5818149,14.9505886 L21.8489502,8.90257125 L21.8489502,17.7826828 C21.8474954,17.8087803 21.8274455,17.8299329 21.8016744,17.8325589 L21.8016744,17.8325589 Z" id="path-1"></path>
    </defs>
    <g id="Style-" stroke="none" stroke-width="1" fill="none" fill-rule="evenodd">
        <g id="Style_Icons" transform="translate(-286.000000, -3456.000000)">
            <g id="Message" transform="translate(165.000000, 3384.000000)">
                <g id="Icon-/-Message-/-Message---unread" transform="translate(121.000000, 72.000000)">
                    <mask id="mask-2" fill="white">
                        <use xlink:href="#path-1"></use>
                    </mask>
                    <use id="Combined-Shape" fill="#B9BCC0" xlink:href="#path-1"></use>
                    <g id="Color-/-Global-Grey---medium-dark" mask="url(#mask-2)" fill="#747981">
                        <rect id="color" x="0" y="0" width="24" height="24"></rect>
                    </g>
                </g>
            </g>
        </g>
    </g>
</svg>