<?xml version="1.0" encoding="UTF-8"?>
<svg width="24px" height="24px" viewBox="0 0 24 24" version="1.1" xmlns="http://www.w3.org/2000/svg" xmlns:xlink="http://www.w3.org/1999/xlink">
    <!-- Generator: Sketch 51.3 (57544) - http://www.bohemiancoding.com/sketch -->
    <title>Message Read</title>
    <desc>Created with Sketch.</desc>
    <defs>
        <path class="path-01" d="M23.9892555,8.95747589 C23.9892555,8.94144394 23.9828088,8.92648079 23.9806599,8.91151764 C23.978511,8.89655449 23.9699154,8.85166504 23.9623942,8.82173873 C23.9548731,8.79181243 23.9505753,8.78646845 23.945203,8.7693677 C23.9398308,8.75226696 23.9280118,8.71699667 23.9183418,8.69134555 C23.9086717,8.66569444 23.902225,8.65607527 23.8936294,8.63790573 C23.8850338,8.61973619 23.8710659,8.59087868 23.8581725,8.56736516 C23.8452791,8.54385163 23.8366835,8.53316367 23.825939,8.51713172 C23.8151945,8.50109977 23.7980033,8.47437986 23.7818866,8.45300393 C23.7657698,8.431628 23.7560997,8.42094003 23.7432063,8.40597688 C23.7303129,8.39101373 23.7098984,8.3675002 23.6916327,8.34933066 L23.6465058,8.3065788 C23.627882,8.28947806 23.6085419,8.27308984 23.5884855,8.25741416 L23.5369119,8.22000628 L23.5089761,8.19969915 L12.5839638,1.17129314 C12.228896,0.942902287 11.7721784,0.942902287 11.4171106,1.17129314 L0.491023862,8.19969915 L0.46308815,8.22000628 L0.411514527,8.25741416 C0.391458119,8.27308984 0.37175986,8.28947806 0.352419752,8.3065788 L0.307292833,8.34933066 C0.289027175,8.3675002 0.271835967,8.38673854 0.25571921,8.40597688 C0.239602453,8.42521522 0.228857949,8.43697198 0.217038994,8.45300393 C0.205220039,8.46903588 0.186954381,8.49468699 0.172986525,8.51713172 C0.159018669,8.53957645 0.151497515,8.55026441 0.140753011,8.56736516 C0.130008506,8.5844659 0.11604065,8.6143922 0.105296145,8.63790573 C0.0945516408,8.66141925 0.088104938,8.67317601 0.0805837848,8.69027676 C0.0730626315,8.7073775 0.0612436764,8.74157899 0.0537225232,8.76829891 C0.0462013699,8.79501882 0.0408291176,8.80250039 0.0365313158,8.82066994 C0.0322335139,8.83883948 0.0236379102,8.88052254 0.0182656579,8.91044884 C0.0128934056,8.94037515 0.0118189551,8.94144394 0.00967005417,8.9564071 C0.00336650581,9.00281673 0.000136192279,9.04958832 0,9.09641944 L0,19.8132423 C0.00118458915,21.0204668 0.984714929,21.9988216 2.19832565,22 L21.8027488,22 C23.0159399,21.9982328 23.9988165,21.0200501 24,19.8132423 L24,9.09748824 C23.9994893,9.05063443 23.9959001,9.00386393 23.9892555,8.95747589 L23.9892555,8.95747589 Z M11.9994628,3.3420189 L20.9464118,9.09748824 L11.9994628,14.8518888 L3.05251377,9.09641944 L11.9994628,3.3420189 Z M21.8016744,19.8634757 L2.1972512,19.8634757 C2.17063885,19.861899 2.14941153,19.8407834 2.14782648,19.8143111 L2.14782648,11.0608675 L11.4149617,17.0226145 C11.7712826,17.2467425 12.2254941,17.2467425 12.5818149,17.0226145 L21.8489502,11.0608675 L21.8489502,19.8143111 C21.8474954,19.8400364 21.8274455,19.8608872 21.8016744,19.8634757 L21.8016744,19.8634757 Z" id="path-1"></path>
    </defs>
    <g id="Style-" stroke="none" stroke-width="1" fill="none" fill-rule="evenodd">
        <g id="Style_Icons" transform="translate(-206.000000, -3456.000000)">
            <g id="Message" transform="translate(165.000000, 3384.000000)">
                <g id="Icon-/-Message-/-Message---read" transform="translate(41.000000, 72.000000)">
                    <mask id="mask-2" fill="white">
                        <use xlink:href="#path-1"></use>
                    </mask>
                    <use id="Shape" fill="#B9BCC0" xlink:href="#path-1"></use>
                    <g id="Color-/-Global-Grey---medium-dark" mask="url(#mask-2)" fill="#747981">
                        <rect id="color" x="0" y="0" width="24" height="24"></rect>
                    </g>
                </g>
            </g>
        </g>
    </g>
</svg>