<?xml version="1.0" encoding="UTF-8" standalone="no"?>
<svg
   xmlns:dc="http://purl.org/dc/elements/1.1/"
   xmlns:cc="http://creativecommons.org/ns#"
   xmlns:rdf="http://www.w3.org/1999/02/22-rdf-syntax-ns#"
   xmlns:svg="http://www.w3.org/2000/svg"
   xmlns="http://www.w3.org/2000/svg"
   xmlns:sodipodi="http://sodipodi.sourceforge.net/DTD/sodipodi-0.dtd"
   xmlns:inkscape="http://www.inkscape.org/namespaces/inkscape"
   width="32"
   height="32"
   version="1.1"
   id="svg230"
   sodipodi:docname="Exclusion_Notification_Help_-_dark.svg"
   inkscape:version="0.92.3 (2405546, 2018-03-11)">
  <metadata
     id="metadata236">
    <rdf:RDF>
      <cc:Work
         rdf:about="">
        <dc:format>image/svg+xml</dc:format>
        <dc:type
           rdf:resource="http://purl.org/dc/dcmitype/StillImage" />
        <dc:title></dc:title>
      </cc:Work>
    </rdf:RDF>
  </metadata>
  <defs
     id="defs234" />
  <sodipodi:namedview
     pagecolor="#ffffff"
     bordercolor="#666666"
     borderopacity="1"
     objecttolerance="10"
     gridtolerance="10"
     guidetolerance="10"
     inkscape:pageopacity="0"
     inkscape:pageshadow="2"
     inkscape:window-width="1366"
     inkscape:window-height="745"
     id="namedview232"
     showgrid="false"
     inkscape:zoom="18"
     inkscape:cx="16"
     inkscape:cy="16"
     inkscape:window-x="-8"
     inkscape:window-y="-8"
     inkscape:window-maximized="1"
     inkscape:current-layer="svg230" />
  <path
    class="path-01"
    style="fill-rule:evenodd"
    d="M 16 0 C 7.163 0 0 7.163 0 16 C 0 24.837 7.163 32 16 32 C 24.837 32 32 24.837 32 16 C 32 7.163 24.837 0 16 0 z M 15.849609 7.0019531 C 16.997609 7.0019531 18.010672 7.2146719 18.888672 7.6386719 C 19.768672 8.0626719 20.446781 8.6381875 20.925781 9.3671875 C 21.404781 10.097188 21.644531 10.890094 21.644531 11.746094 C 21.644531 12.420094 21.508375 13.012531 21.234375 13.519531 A 5.423 5.423 0 0 1 20.261719 14.832031 C 19.885719 15.201031 19.210328 15.822359 18.236328 16.693359 A 8.25 8.25 0 0 0 17.589844 17.341797 A 2.633 2.633 0 0 0 17.226562 17.853516 C 17.146563 18.007516 17.086969 18.163359 17.042969 18.318359 C 16.998969 18.472359 16.933656 18.744813 16.847656 19.132812 C 16.697656 19.957812 16.224594 20.369141 15.433594 20.369141 C 15.021594 20.369141 14.676531 20.233844 14.394531 19.964844 C 14.114531 19.694844 13.972656 19.294672 13.972656 18.763672 C 13.972656 18.097672 14.07525 17.520203 14.28125 17.033203 C 14.48725 16.545203 14.760562 16.116047 15.101562 15.748047 C 15.441562 15.379047 15.900516 14.942547 16.478516 14.435547 C 16.984516 13.991547 17.350172 13.654687 17.576172 13.429688 A 3.41 3.41 0 0 0 18.146484 12.675781 C 18.300484 12.397781 18.378906 12.095484 18.378906 11.771484 C 18.378906 11.136484 18.142875 10.600062 17.671875 10.164062 C 17.201875 9.7280625 16.593609 9.5117188 15.849609 9.5117188 C 14.979609 9.5117188 14.336781 9.731875 13.925781 10.171875 C 13.513781 10.611875 13.165859 11.258234 12.880859 12.115234 C 12.610859 13.011234 12.101609 13.458984 11.349609 13.458984 C 10.905609 13.458984 10.531562 13.302281 10.226562 12.988281 C 9.9225625 12.676281 9.7695312 12.337656 9.7695312 11.972656 C 9.7695312 11.219656 10.010141 10.457594 10.494141 9.6835938 C 10.977141 8.9115937 11.681422 8.2706719 12.607422 7.7636719 C 13.534422 7.2556719 14.614609 7.0019531 15.849609 7.0019531 z M 15.564453 21.451172 C 16.063453 21.451172 16.482266 21.620891 16.822266 21.962891 C 17.162266 22.302891 17.332031 22.722656 17.332031 23.222656 C 17.332031 23.777656 17.155828 24.21325 16.798828 24.53125 A 1.802 1.802 0 0 1 15.564453 25.007812 C 15.081453 25.007812 14.660781 24.851109 14.300781 24.537109 C 13.940781 24.224109 13.759766 23.786656 13.759766 23.222656 C 13.759766 22.722656 13.93225 22.302891 14.28125 21.962891 C 14.62925 21.621891 15.058453 21.451172 15.564453 21.451172 z "
    id="path220" />
</svg>
