<?xml version="1.0" encoding="UTF-8" standalone="no"?>
<svg
   xmlns:dc="http://purl.org/dc/elements/1.1/"
   xmlns:cc="http://creativecommons.org/ns#"
   xmlns:rdf="http://www.w3.org/1999/02/22-rdf-syntax-ns#"
   xmlns:svg="http://www.w3.org/2000/svg"
   xmlns="http://www.w3.org/2000/svg"
   xmlns:sodipodi="http://sodipodi.sourceforge.net/DTD/sodipodi-0.dtd"
   xmlns:inkscape="http://www.inkscape.org/namespaces/inkscape"
   width="32"
   height="32"
   version="1.1"
   id="svg38"
   sodipodi:docname="excluded_Notification_Warning_-_dark.svg"
   inkscape:version="0.92.3 (2405546, 2018-03-11)">
  <metadata
     id="metadata44">
    <rdf:RDF>
      <cc:Work
         rdf:about="">
        <dc:format>image/svg+xml</dc:format>
        <dc:type
           rdf:resource="http://purl.org/dc/dcmitype/StillImage" />
        <dc:title></dc:title>
      </cc:Work>
    </rdf:RDF>
  </metadata>
  <defs
     id="defs42" />
  <sodipodi:namedview
     pagecolor="#ffffff"
     bordercolor="#666666"
     borderopacity="1"
     objecttolerance="10"
     gridtolerance="10"
     guidetolerance="10"
     inkscape:pageopacity="0"
     inkscape:pageshadow="2"
     inkscape:window-width="1366"
     inkscape:window-height="745"
     id="namedview40"
     showgrid="false"
     inkscape:zoom="18"
     inkscape:cx="16"
     inkscape:cy="16"
     inkscape:window-x="-8"
     inkscape:window-y="-8"
     inkscape:window-maximized="1"
     inkscape:current-layer="svg38" />
  <path
      class="path-01"
      style="fill-rule:evenodd"
      d="M 15.845703 1 C 14.719703 1 13.935766 1.7234219 13.259766 2.9824219 L 0.71484375 25.900391 C 0.04284375 27.140391 -0.2803125 28.649391 0.3046875 29.650391 C 0.8906875 30.651391 2.2876875 30.796875 3.6796875 30.796875 L 27.998047 30.796875 C 29.389047 30.796875 30.685484 30.650437 31.271484 29.648438 C 31.857484 28.648438 31.448203 27.138437 30.783203 25.898438 L 18.365234 2.9824219 C 17.691234 1.7214219 16.972703 1 15.845703 1 z M 15.730469 10.332031 C 16.502469 10.332031 17.126953 11.011656 17.126953 11.847656 L 17.126953 19.996094 C 17.126953 20.832094 16.502469 21.511719 15.730469 21.511719 C 14.959469 21.511719 14.332031 20.833047 14.332031 19.998047 L 14.332031 11.847656 C 14.332031 11.011656 14.959469 10.332031 15.730469 10.332031 z M 15.744141 23.025391 A 1.5875 1.5875 0 0 1 15.744141 26.201172 A 1.5875 1.5875 0 0 1 15.744141 23.025391 z "
id="path28" />
</svg>
