<?xml version="1.0" encoding="UTF-8"?>
<svg width="32px" height="32px" viewBox="0 0 32 32" version="1.1" xmlns="http://www.w3.org/2000/svg" xmlns:xlink="http://www.w3.org/1999/xlink">
    <!-- Generator: Sketch 51.3 (57544) - http://www.bohemiancoding.com/sketch -->
    <title>Icon / Alerts Notifications / Success - light</title>
    <desc>Created with Sketch.</desc>
    <defs></defs>
    <g id="Style-" stroke="none" stroke-width="1" fill="none" fill-rule="evenodd">
        <g id="Style_Icons" transform="translate(-744.000000, -1448.000000)" fill="#3F8601">
            <g id="Alerts-Notifications" transform="translate(165.000000, 1376.000000)">
                <g id="Success" transform="translate(539.000000, 48.000000)">
                    <g id="Icon-/-Alerts-Notifications-/-Success---light" transform="translate(40.000000, 24.000000)">
                        <g id="success---light">
                            <path class="path-01" d="M16,32 C7.163444,32 0,24.836556 0,16 C0,7.163444 7.163444,0 16,0 C24.836556,0 32,7.163444 32,16 C32,24.836556 24.836556,32 16,32 Z M16,30.6086957 C24.0681598,30.6086957 30.6086957,24.0681598 30.6086957,16 C30.6086957,7.93184018 24.0681598,1.39130435 16,1.39130435 C7.93184018,1.39130435 1.39130435,7.93184018 1.39130435,16 C1.39130435,24.0681598 7.93184018,30.6086957 16,30.6086957 Z" id="Combined-Shape"></path>
                            <path class="path-02" d="M22.5686119,9.42667577 C22.0761527,9.92741178 13.6230239,18.3391346 13.6230239,18.3391346 L10.5780431,15.3304375 C10.0704545,14.8559664 9.17545508,14.6243568 8.45736262,15.3304375 C7.73927017,16.0365182 7.96629709,16.8782894 8.45736262,17.4054548 L12.66039,21.6320241 C13.2228352,22.1502771 14.023543,22.0942408 14.5146085,21.6320241 L24.6892924,11.4362987 C25.0243731,11.1020986 25.2202336,10.0598981 24.5721989,9.42667577 C23.9241642,8.79345348 23.0610711,8.92593976 22.5686119,9.42667577 Z" id="Shape-Copy"></path>
                        </g>
                    </g>
                </g>
            </g>
        </g>
    </g>
</svg>