<?xml version="1.0" encoding="UTF-8"?>
<svg width="32px" height="32px" viewBox="0 0 32 32" version="1.1" xmlns="http://www.w3.org/2000/svg" xmlns:xlink="http://www.w3.org/1999/xlink">
    <!-- Generator: Sketch 51.3 (57544) - http://www.bohemiancoding.com/sketch -->
    <title>Icon / Alerts Notifications / Warning - light</title>
    <desc>Created with Sketch.</desc>
    <defs></defs>
    <g id="Style-" stroke="none" stroke-width="1" fill="none" fill-rule="evenodd">
        <g id="Style_Icons" transform="translate(-567.000000, -1448.000000)">
            <g id="Alerts-Notifications" transform="translate(165.000000, 1376.000000)">
                <g id="Warning" transform="translate(362.000000, 48.000000)">
                    <g id="Icon-/-Alerts-Notifications-/-Warning---light" transform="translate(40.000000, 24.000000)">
                        <g id="warning---light" transform="translate(0.000000, 1.000000)">
                            <path class="path-01" d="M27.9986949,29.7957316 L3.6783824,29.7957316 C2.2866958,29.7957316 0.891129244,29.6506531 0.30544403,28.6496812 C-0.280241184,27.6487094 0.0425368609,26.140497 0.714432749,24.8993475 L13.2603051,1.98250729 C13.9363063,0.723309732 14.7202462,0 15.8464587,0 C16.9726711,0 17.6917922,0.721921422 18.3664249,1.98250729 L30.7840682,24.8993475 C31.4491219,26.1391087 31.8577091,27.6487094 31.2720239,28.6496812 C30.6863387,29.6506531 29.3903815,29.7957316 27.9986949,29.7957316 L27.9986949,29.7957316 Z M14.6665551,2.20708142 L1.84428952,25.7018731 C1.50178735,26.2584595 1.03792016,27.1279256 1.32985809,27.7550957 C1.62179603,28.3822659 2.28168101,28.4436266 3.13259247,28.4436266 L28.1583086,28.524193 C28.9248017,28.524193 29.7472843,28.5308987 30.1682913,27.868594 C30.5892982,27.2062893 30.0375453,26.3181721 29.8158607,25.9044556 L16.9499753,2.20708142 C16.7542907,1.84889733 16.4170977,1.33935138 15.8609996,1.33935138 C15.3049015,1.33935138 14.8595028,1.84889733 14.6665551,2.20708142 Z" id="Shape" fill="#FDB81E"></path>
                            <g id="Group-3" transform="translate(13.666667, 9.333333)" fill="#515761">
                                <path class="path-02" d="M0.666666667,9.66430104 L0.666666667,1.51335751 C0.666666667,0.677553235 1.29210042,0 2.06361206,0 C2.83512369,0 3.46055745,0.677553235 3.46055745,1.51335751 L3.46055745,9.66430104 C3.46055745,10.5001053 2.83512369,11.1776586 2.06361206,11.1776586 C1.29210042,11.1776586 0.666666667,10.5001053 0.666666667,9.66430104 Z" id="Shape"></path>
                                <path class="path-03" d="M2.07722966,15.8676815 C2.95389633,15.8676815 3.66456299,15.1570148 3.66456299,14.2803482 C3.66456299,13.4043482 2.95389633,12.6936815 2.07722966,12.6936815 C1.20056299,12.6936815 0.489896325,13.4043482 0.489896325,14.2803482 C0.489896325,15.1570148 1.20056299,15.8676815 2.07722966,15.8676815" id="Fill-8-Copy"></path>
                            </g>
                        </g>
                    </g>
                </g>
            </g>
        </g>
    </g>
</svg>