<?xml version="1.0" encoding="UTF-8" standalone="no"?>
<svg
   xmlns:dc="http://purl.org/dc/elements/1.1/"
   xmlns:cc="http://creativecommons.org/ns#"
   xmlns:rdf="http://www.w3.org/1999/02/22-rdf-syntax-ns#"
   xmlns:svg="http://www.w3.org/2000/svg"
   xmlns="http://www.w3.org/2000/svg"
   xmlns:sodipodi="http://sodipodi.sourceforge.net/DTD/sodipodi-0.dtd"
   xmlns:inkscape="http://www.inkscape.org/namespaces/inkscape"
   width="32"
   height="32"
   viewBox="0 0 32 32"
   version="1.1"
   id="svg272"
   sodipodi:docname="Exclusion_Notification_Info_-_dark.svg"
   inkscape:version="0.92.3 (2405546, 2018-03-11)">
  <metadata
     id="metadata278">
    <rdf:RDF>
      <cc:Work
         rdf:about="">
        <dc:format>image/svg+xml</dc:format>
        <dc:type
           rdf:resource="http://purl.org/dc/dcmitype/StillImage" />
        <dc:title></dc:title>
      </cc:Work>
    </rdf:RDF>
  </metadata>
  <defs
     id="defs276" />
  <sodipodi:namedview
     pagecolor="#ffffff"
     bordercolor="#666666"
     borderopacity="1"
     objecttolerance="10"
     gridtolerance="10"
     guidetolerance="10"
     inkscape:pageopacity="0"
     inkscape:pageshadow="2"
     inkscape:window-width="1366"
     inkscape:window-height="745"
     id="namedview274"
     showgrid="false"
     inkscape:zoom="7.375"
     inkscape:cx="16"
     inkscape:cy="16"
     inkscape:window-x="-8"
     inkscape:window-y="-8"
     inkscape:window-maximized="1"
     inkscape:current-layer="svg272" />
  <path
    class="path-01"
    style="fill-rule:evenodd"
    d="M 16 0 C 7.163 0 0 7.163 0 16 C 0 24.837 7.163 32 16 32 C 24.837 32 32 24.837 32 16 C 32 7.163 24.837 0 16 0 z M 16.080078 7.6796875 A 1.656 1.656 0 1 1 16.080078 10.992188 A 1.656 1.656 0 0 1 16.080078 7.6796875 z M 16.066406 12.521484 C 16.871406 12.521484 17.523438 13.229562 17.523438 14.101562 L 17.523438 22.605469 C 17.523438 23.477469 16.871406 24.185547 16.066406 24.185547 C 15.261406 24.185547 14.609375 23.477469 14.609375 22.605469 L 14.609375 14.101562 C 14.609375 13.229563 15.261406 12.521484 16.066406 12.521484 z "
    id="path262" />
</svg>
