<?xml version="1.0" encoding="UTF-8"?>
<svg width="33px" height="33px" viewBox="0 0 33 33" version="1.1" xmlns="http://www.w3.org/2000/svg" xmlns:xlink="http://www.w3.org/1999/xlink">
    <!-- Generator: Sketch 51.3 (57544) - http://www.bohemiancoding.com/sketch -->
    <title>Emergency Notification</title>
    <desc>Created with Sketch.</desc>
    <defs></defs>
    <g id="Style-" stroke="none" stroke-width="1" fill="none" fill-rule="evenodd">
        <g id="Style_Icons" transform="translate(-165.000000, -1448.000000)" fill="#E4292F">
            <g id="Alerts-Notifications" transform="translate(165.000000, 1376.000000)">
                <g id="Emergency" transform="translate(0.000000, 48.000000)">
                    <g id="Icon-/-Alerts-Notifications-/-Emergency" transform="translate(0.000000, 24.000000)">
                        <g id="Page-1">
                            <path class="path-01" d="M14.9359264,3.65779145 C14.9359264,3.04359818 15.4123936,2.54587886 15.9998173,2.54587886 C16.5874846,2.54587886 17.0640736,3.04359818 17.0640736,3.65779145 L17.0640736,20.3420813 C17.0640736,20.9562745 16.5876064,21.4541211 16.0000609,21.4541211 C15.4125154,21.4541211 14.9359264,20.9562745 14.9359264,20.3420813 L14.9359264,3.65779145 Z M16.0000609,24 C17.9299236,24 19.5,22.3590538 19.5,20.3420813 L19.5,3.65779145 C19.5,1.64081892 17.9298018,0 15.9998173,0 C14.0700764,0 12.5,1.64081892 12.5,3.65779145 L12.5,20.3420813 C12.5,22.3590538 14.0701982,24 16.0000609,24 Z" id="Fill-6"></path>
                            <path class="path-02" d="M15.999521,29.5693178 C15.9956321,29.5693178 15.9917431,29.5693178 15.9878542,29.5691963 C15.3978298,29.5628765 14.9242305,29.0789277 14.9306715,28.4883935 C14.9371126,27.9019914 15.4144793,27.4306822 16.0000071,27.4306822 C16.0037745,27.4306822 16.0075419,27.4306822 16.0114309,27.4306822 C16.6014552,27.437245 17.0754192,27.9209507 17.0693427,28.5113634 C17.0626586,29.0980086 16.5849273,29.5693178 15.999521,29.5693178 M16.0381673,25.0001215 L16.0000071,25 L15.9998856,25 C14.0909046,25 12.5209901,26.5530844 12.5002086,28.4620206 C12.4793056,30.3918607 14.0319629,31.9788531 15.9616039,31.9998785 L15.999521,32 C17.9080159,32 19.478295,30.4472802 19.4998056,28.5387086 C19.5199795,26.6080178 17.9670791,25.0215115 16.0381673,25.0001215" id="Fill-8"></path>
                            <g id="Group" transform="translate(0.000000, 5.000000)">
                                <path class="path-03" d="M23.6933513,4.26337457 C23.3056798,3.91206862 22.6775488,3.91230842 22.2905387,4.26349447 C21.9031317,4.61468053 21.9031317,5.18408394 22.290671,5.53515009 C24.0482209,7.12813676 25.0160108,9.24640377 25.0160108,11.5000375 C25.0160108,13.7536712 24.0482209,15.8719382 22.290671,17.464805 C21.9031317,17.815991 21.9031317,18.3853944 22.2905387,18.7365805 C22.484176,18.9122335 22.7379944,19 22.991945,19 C23.2457634,19 23.499714,18.9122335 23.6933513,18.7367004 C25.8257429,16.8041579 27,14.2341091 27,11.5000375 C27,8.7659659 25.8257429,6.19591703 23.6933513,4.26337457" id="Fill-4"></path>
                                <path class="path-04" d="M5.73209031,1.6322482 C6.08932355,1.25883143 6.08932355,0.653383746 5.73196835,0.280094461 C5.37436921,-0.0934498025 4.795405,-0.093322313 4.43841568,0.280221951 C-1.47953288,6.46728786 -1.47941091,16.5336046 4.43841568,22.7199055 C4.61697132,22.9066777 4.85102069,23 5.08519202,23 C5.31924138,23 5.55341271,22.9065502 5.73196835,22.7199055 C6.08932355,22.3464888 6.08932355,21.7411686 5.73209031,21.3676243 C0.527388593,15.9270095 0.527388593,7.07375546 5.73209031,1.6322482" id="Fill-10"></path>
                                <path class="path-05" d="M9.70965543,4.26355337 C9.3222869,3.91224882 8.69435048,3.91212892 8.30684969,4.26331357 C6.17440511,6.19584831 5,8.7658869 5,11.4999476 C5,14.2341281 6.17440511,16.8041667 8.30684969,18.7367014 C8.50046783,18.9122338 8.75426101,19 9.00805418,19 C9.26197961,19 9.51590504,18.9121139 9.70965543,18.7364616 C10.0968917,18.385277 10.0967595,17.8158758 9.70939092,17.4646912 C7.95175085,15.8718308 6.98379241,13.7535723 6.98379241,11.4999476 C6.98379241,9.24644275 7.95175085,7.12818421 9.70939092,5.53520391 C10.0967595,5.18413915 10.0968917,4.61473802 9.70965543,4.26355337" id="Fill-12"></path>
                                <path class="path-06" d="M26.2680153,0.279952775 C25.9106819,0.653371878 25.9106819,1.25882334 26.2678934,1.63224244 C31.4727655,7.07378363 31.4727655,15.9269654 26.2680153,21.3677416 C25.9106819,21.7410332 25.9106819,22.3464847 26.2678934,22.7199038 C26.4465601,22.9066771 26.6805952,23 26.9147522,23 C27.1487873,23 27.3829443,22.9066771 27.5613671,22.7199038 C33.4794427,16.5336917 33.4795646,6.46718476 27.5616111,0.280080265 C27.2043996,-0.0933388374 26.6252268,-0.0933388374 26.2680153,0.279952775" id="Fill-1"></path>
                            </g>
                        </g>
                    </g>
                </g>
            </g>
        </g>
    </g>
</svg>