<?xml version="1.0" encoding="UTF-8"?>
<svg width="32px" height="32px" viewBox="0 0 32 32" version="1.1" xmlns="http://www.w3.org/2000/svg" xmlns:xlink="http://www.w3.org/1999/xlink">
    <!-- Generator: Sketch 51.3 (57544) - http://www.bohemiancoding.com/sketch -->
    <title>Care Notification</title>
    <desc>Created with Sketch.</desc>
    <defs></defs>
    <g id="Style-" stroke="none" stroke-width="1" fill="none" fill-rule="evenodd">
        <g id="Style_Icons" transform="translate(-631.000000, -1520.000000)">
            <g id="Alerts-Notifications" transform="translate(165.000000, 1376.000000)">
                <g id="Care" transform="translate(466.000000, 120.000000)">
                    <g id="Icon-/-Alerts-Notifications-/-Care---dark" transform="translate(0.000000, 24.000000)">
                        <path class="path-01" d="M16.0002667,28.3509854 L2.78922526,13.1210937 C2.06094229,12.1604967 1.6578776,10.6783166 1.6578776,9.47621601 C1.6578776,5.61637185 5.24084779,2.51561945 8.40397135,2.51561945 C11.3008626,2.51561945 13.4107259,3.85166238 14.6200358,5.38280973 L16.0002667,6.83728305 L17.3631185,5.38280973 C19.2186686,3.28139426 21.184082,2.51561945 23.4765625,2.51561945 C26.6403973,2.51561945 30.6746419,5.41829057 30.4469401,9.47621601 C30.3742006,10.7725226 29.8797609,12.1232751 29.0289714,13.1210937 L16.0002667,28.3509854 Z" id="Path-Copy" fill="#15A4A7"></path>
                        <path class="path-02" d="M16.0002667,28.3509854 L2.78922526,13.1210937 C2.06094229,12.1604967 1.6578776,10.6783166 1.6578776,9.47621601 C1.6578776,5.61637185 5.24084779,2.51561945 8.40397135,2.51561945 C11.3008626,2.51561945 13.4107259,3.85166238 14.6200358,5.38280973 L16.0002667,6.83728305 L17.3631185,5.38280973 C19.2186686,3.28139426 21.184082,2.51561945 23.4765625,2.51561945 C26.6403973,2.51561945 30.6746419,5.41829057 30.4469401,9.47621601 C30.3742006,10.7725226 29.8797609,12.1232751 29.0289714,13.1210937 L16.0002667,28.3509854 Z M23.2776734,1 C20.3798326,1 17.6661962,2.41486585 16,4.54261364 C14.3361152,2.41486585 11.6187449,1 8.72090413,1 C3.91274295,1 0,4.80394331 0,9.47621601 C0,11.3151032 0.595285986,13.0666156 1.7214931,14.535908 C1.74034027,14.5596739 1.75900963,14.583964 1.77661218,14.6052835 L14.7399069,29.5030129 C15.012124,29.815989 15.5770056,29.9975535 16,30 C16,30 17.0574544,30 17.2643229,29.5030129 L29.9684177,14.9145898 C31.2772289,13.3928726 32,11.4613683 32,9.47621601 C32,4.80394331 28.0870792,1 23.2776734,1" id="Fill-1-Copy" fill="#FFFFFF"></path>
                    </g>
                </g>
            </g>
        </g>
    </g>
</svg>