<?xml version="1.0" encoding="UTF-8" standalone="no"?>
<svg
   xmlns:dc="http://purl.org/dc/elements/1.1/"
   xmlns:cc="http://creativecommons.org/ns#"
   xmlns:rdf="http://www.w3.org/1999/02/22-rdf-syntax-ns#"
   xmlns:svg="http://www.w3.org/2000/svg"
   xmlns="http://www.w3.org/2000/svg"
   xmlns:sodipodi="http://sodipodi.sourceforge.net/DTD/sodipodi-0.dtd"
   xmlns:inkscape="http://www.inkscape.org/namespaces/inkscape"
   width="32"
   height="32"
   version="1.1"
   id="svg180"
   sodipodi:docname="exclusion_Notification_Error_-_dark.svg"
   inkscape:version="0.92.3 (2405546, 2018-03-11)">
  <metadata
     id="metadata186">
    <rdf:RDF>
      <cc:Work
         rdf:about="">
        <dc:format>image/svg+xml</dc:format>
        <dc:type
           rdf:resource="http://purl.org/dc/dcmitype/StillImage" />
        <dc:title></dc:title>
      </cc:Work>
    </rdf:RDF>
  </metadata>
  <defs
     id="defs184" />
  <sodipodi:namedview
     pagecolor="#ffffff"
     bordercolor="#666666"
     borderopacity="1"
     objecttolerance="10"
     gridtolerance="10"
     guidetolerance="10"
     inkscape:pageopacity="0"
     inkscape:pageshadow="2"
     inkscape:window-width="742"
     inkscape:window-height="480"
     id="namedview182"
     showgrid="false"
     inkscape:zoom="7.375"
     inkscape:cx="16"
     inkscape:cy="16"
     inkscape:window-x="0"
     inkscape:window-y="0"
     inkscape:window-maximized="0"
     inkscape:current-layer="svg180" />
  <path
    class="path-01"
    style="fill-rule:evenodd"
    d="M 10.082031 0 C 9.6300313 0 9.1851406 0.18490625 8.8691406 0.50390625 L 0.50390625 8.8671875 C 0.18390625 9.1861875 0 9.6290312 0 10.082031 L 0 21.916016 C 0 22.369016 0.18390625 22.810906 0.50390625 23.128906 L 8.8671875 31.496094 C 9.1851875 31.816094 9.6290312 32 10.082031 32 L 21.914062 32 C 22.374063 32 22.804906 31.820094 23.128906 31.496094 L 31.498047 23.128906 A 1.73 1.73 0 0 0 32 21.916016 L 32 10.082031 C 32 9.6230312 31.821094 9.1911875 31.496094 8.8671875 L 23.128906 0.50390625 A 1.705 1.705 0 0 0 21.914062 0 L 10.082031 0 z M 16.068359 7.4238281 C 16.891359 7.4238281 17.558594 8.1461094 17.558594 9.0371094 L 17.558594 17.732422 C 17.558594 18.623422 16.891359 19.347656 16.068359 19.347656 C 15.245359 19.347656 14.578125 18.623422 14.578125 17.732422 L 14.578125 9.0371094 C 14.578125 8.1461094 15.245359 7.4238281 16.068359 7.4238281 z M 16.082031 20.962891 A 1.6935 1.6935 0 1 1 16.082031 24.349609 A 1.6935 1.6935 0 0 1 16.082031 20.962891 z "
    id="path170" />
</svg>
