<?xml version="1.0" encoding="UTF-8"?>
<svg width="24px" height="24px" viewBox="0 0 24 24" version="1.1" xmlns="http://www.w3.org/2000/svg" xmlns:xlink="http://www.w3.org/1999/xlink">
    <!-- Generator: Sketch 51.3 (57544) - http://www.bohemiancoding.com/sketch -->
    <title>Search</title>
    <desc>Created with Sketch.</desc>
    <path class="path-01" d="M17.2931323,15.1607228 L23.5521788,21.4197694 C24.144796,22.0123865 24.1516928,22.9663118 23.5584088,23.5595958 C22.9692324,24.1487722 22.0118256,24.1466091 21.4185824,23.5533658 L15.1594457,17.2942292 C13.5850535,18.436437 11.6485378,19.1099534 9.55471812,19.1099534 C4.27779301,19.1099534 0,14.8320446 0,9.55497671 C0,4.27790879 4.27779301,0 9.55471812,0 C14.8316432,0 19.1094362,4.27790879 19.1094362,9.55497671 C19.1094362,11.6492373 18.4356908,13.586132 17.2931323,15.1607228 Z M9.55471812,16.0925924 C13.1652458,16.0925924 16.0921568,13.1656021 16.0921568,9.55497671 C16.0921568,5.94435129 13.1652458,3.01736107 9.55471812,3.01736107 C5.94419041,3.01736107 3.01727941,5.94435129 3.01727941,9.55497671 C3.01727941,13.1656021 5.94419041,16.0925924 9.55471812,16.0925924 Z" id="path-1"></path>
</svg>