<svg width="24" height="24" xmlns="http://www.w3.org/2000/svg" xmlns:xlink="http://www.w3.org/1999/xlink">
    <defs>
        <path class="Accordion_Expand_-_large_svg__path-01" d="M11 11V3.75c0-.414.333-.75.75-.75.414 0 .75.344.75.75V11h7.75c.414 0 .75.333.75.75 0 .414-.344.75-.75.75H12.5v7.75c0 .414-.333.75-.75.75a.755.755 0 0 1-.75-.75V12.5H3.75a.748.748 0 0 1-.75-.75c0-.414.344-.75.75-.75H11z" id="Accordion_Expand_-_large_svg__a"/>
    </defs>
    <g fill-rule="evenodd">
        <mask id="Accordion_Expand_-_large_svg__b">
            <use xlink:href="#Accordion_Expand_-_large_svg__a"/>
        </mask>
        <use xlink:href="#Accordion_Expand_-_large_svg__a"/>
        <g mask="url(#Accordion_Expand_-_large_svg__b)">
            <rect width="24" height="24"/>
        </g>
    </g>
</svg>
