<svg viewBox="0 0 22 19" xmlns="http://www.w3.org/2000/svg">
    <title>
        Hide Password
    </title>
    <path class="Android-Hide-Password_svg__path-01" d="M11 4c2.8 0 5 2.2 5 5 0 .6-.1 1.3-.4 1.8l2.9 2.9c1.5-1.3 2.7-2.9 3.4-4.7-1.7-4.4-6-7.5-11-7.5-1.4 0-2.7.3-4 .7l2.2 2.2c.6-.3 1.3-.4 1.9-.4zM1 1.3l2.3 2.3.4.4C2 5.3.7 7 0 9c1.7 4.4 6 7.5 11 7.5 1.5 0 3-.3 4.4-.8l.4.4 2.9 2.9 1.3-1.3L2.3 0 1 1.3zm5.5 5.5L8 8.3V9c0 1.7 1.3 3 3 3 .2 0 .4 0 .7-.1l1.5 1.5c-.7.4-1.4.6-2.2.6-2.8 0-5-2.2-5-5 0-.8.2-1.5.5-2.2zm4.3-.8l3.1 3.1v-.2c0-1.7-1.3-3-3-3 0 .1 0 .1-.1.1z" fill-rule="evenodd"/>
</svg>
