<svg width="137" height="137" xmlns="http://www.w3.org/2000/svg">
    <g fill-rule="evenodd">
        <path class="Android_-_Fingerprint_Auth_Success_svg__path-01" d="M101.558 25.1c-.456 0-.913-.115-1.312-.343-10.96-5.651-20.436-8.049-31.796-8.049-11.302 0-22.034 2.683-31.795 8.05-1.37.741-3.083.227-3.882-1.143-.742-1.37-.228-3.14 1.142-3.881C44.532 13.968 56.177 11 68.45 11c12.159 0 22.776 2.683 34.421 8.677 1.427.742 1.941 2.454 1.2 3.824-.515 1.028-1.485 1.599-2.513 1.599zM19.872 55.068c-.57 0-1.141-.17-1.655-.513-1.313-.914-1.599-2.683-.685-3.996 5.651-7.992 12.844-14.271 21.406-18.666 17.924-9.248 40.872-9.305 58.853-.058 8.562 4.396 15.755 10.618 21.406 18.553.914 1.255.628 3.082-.685 3.995-1.313.914-3.082.628-3.996-.685-5.137-7.192-11.645-12.843-19.35-16.782-16.384-8.391-37.333-8.391-53.66.057-7.763 3.996-14.27 9.704-19.408 16.897-.456.799-1.312 1.198-2.226 1.198zm35.677 68.9c-.742 0-1.484-.285-1.998-.856-4.966-4.967-7.649-8.163-11.473-15.07-3.94-7.022-5.994-15.584-5.994-24.775 0-16.953 14.499-30.767 32.309-30.767 17.81 0 32.31 13.814 32.31 30.767a2.826 2.826 0 0 1-2.855 2.855 2.826 2.826 0 0 1-2.854-2.855c0-13.814-11.93-25.06-26.601-25.06-14.67 0-26.6 11.246-26.6 25.06 0 8.22 1.826 15.813 5.308 21.978 3.653 6.564 6.165 9.361 10.56 13.814a2.93 2.93 0 0 1 0 4.053c-.628.57-1.37.856-2.112.856zm40.929-10.56c-6.793 0-12.787-1.713-17.696-5.08-8.505-5.766-13.586-15.128-13.586-25.06a2.826 2.826 0 0 1 2.855-2.855 2.826 2.826 0 0 1 2.854 2.855c0 8.048 4.11 15.64 11.074 20.321 4.053 2.74 8.79 4.053 14.499 4.053 1.37 0 3.653-.171 5.937-.57 1.54-.286 3.025.741 3.31 2.34.286 1.54-.742 3.025-2.34 3.31a38.981 38.981 0 0 1-6.907.686zm-11.474 11.759a3.34 3.34 0 0 1-.742-.115c-9.076-2.511-15.013-5.88-21.235-11.987C55.036 105.13 50.64 94.57 50.64 83.268c0-9.248 7.878-16.783 17.582-16.783s17.581 7.535 17.581 16.782c0 6.108 5.31 11.075 11.874 11.075 6.564 0 11.873-4.967 11.873-11.075 0-21.52-18.552-38.987-41.385-38.987-16.212 0-31.054 9.019-37.732 23.004-2.227 4.624-3.368 10.047-3.368 15.983 0 4.453.4 11.474 3.824 20.608.571 1.484-.171 3.14-1.655 3.653-1.484.57-3.14-.228-3.653-1.656-2.798-7.477-4.168-14.898-4.168-22.605 0-6.85 1.313-13.072 3.882-18.495 7.592-15.926 24.432-26.258 42.87-26.258 25.973 0 47.093 20.036 47.093 44.696 0 9.248-7.877 16.783-17.581 16.783S80.095 92.458 80.095 83.21c0-6.107-5.309-11.074-11.873-11.074-6.565 0-11.874 4.967-11.874 11.074 0 9.762 3.768 18.895 10.675 25.745 5.423 5.366 10.618 8.334 18.666 10.56 1.542.4 2.398 1.998 1.998 3.483-.285 1.312-1.484 2.169-2.683 2.169z"/>
        <path class="Android_-_Fingerprint_Auth_Success_svg__path-02" d="M100.479 39.293L52.719 87.3 35.52 70.015a4.392 4.392 0 0 0-6.234.008 4.447 4.447 0 0 0 .009 6.267l20.31 20.414a4.387 4.387 0 0 0 6.225 0l50.873-51.135a4.447 4.447 0 0 0 .01-6.267 4.392 4.392 0 0 0-6.235-.009h0z" stroke="#3F8601"/>
    </g>
</svg>
