<svg viewBox="0 0 24 24" xmlns="http://www.w3.org/2000/svg" xmlns:xlink="http://www.w3.org/1999/xlink">
    <title>
        Caret Up
    </title>
    <defs>
        <path class="Caret-Up_svg__path-01" d="M16.75 10.556c0 .15-.054.28-.162.39l-3.828 3.89a.522.522 0 0 1-.385.164.522.522 0 0 1-.385-.165l-3.828-3.889a.538.538 0 0 1-.162-.39c0-.15.054-.281.162-.391A.522.522 0 0 1 8.547 10h7.656c.148 0 .276.055.385.165.108.11.162.24.162.39z" id="Caret-Up_svg__a"/>
    </defs>
    <use transform="matrix(1 0 0 -1 0 25)" xlink:href="#Caret-Up_svg__a" fill-rule="evenodd"/>
</svg>
