<svg viewBox="0 0 24 24" xmlns="http://www.w3.org/2000/svg" xmlns:xlink="http://www.w3.org/1999/xlink">
    <title>
        Clear
    </title>
    <defs>
        <path class="Clear-X_svg__path-01" d="M12 10.574L7.723 6.297a1.006 1.006 0 0 0-1.427 0 1.006 1.006 0 0 0 0 1.426L10.575 12l-4.277 4.277a1.006 1.006 0 0 0 0 1.427c.393.394 1.029.396 1.426 0L12 13.425l4.277 4.277a1.006 1.006 0 0 0 1.427 0 1.006 1.006 0 0 0 0-1.426L13.425 12l4.277-4.277a1.006 1.006 0 0 0 0-1.427 1.006 1.006 0 0 0-1.426 0L12 10.575zM12 24C5.373 24 0 18.627 0 12S5.373 0 12 0s12 5.373 12 12-5.373 12-12 12z" id="Clear-X_svg__a"/>
    </defs>
    <g fill-rule="evenodd">
        <mask id="Clear-X_svg__b">
            <use xlink:href="#Clear-X_svg__a"/>
        </mask>
        <use xlink:href="#Clear-X_svg__a"/>
        <g mask="url(#Clear-X_svg__b)">
            <rect width="24" height="24"/>
        </g>
    </g>
</svg>
