<svg width="24" height="24" xmlns="http://www.w3.org/2000/svg">
    <g transform="translate(0 5)" fill-rule="evenodd">
        <polygon points="0.0344507659 13.6824683 23.9484814 13.6824683 23.9484814 0.0174354486 0.0344507659 0.0174354486"/>
        <polygon points="6.01297155 13.6824683 17.9699606 13.6824683 17.9699606 0.0174354486 6.01297155 0.0174354486"/>
        <path d="M11.991 1.806l-.815 1.521c-.093.165-.259.15-.425.058l-.59-.306.44 2.337c.092.427-.205.427-.351.242L9.22 4.504l-.168.586c-.02.077-.104.158-.232.139l-1.303-.274.342 1.245c.074.276.13.391-.074.464l-.464.219 2.243 1.822a.294.294 0 0 1 .102.305l-.196.645c.773-.09 1.465-.223 2.238-.306.068-.007.182.105.182.184l-.103 2.361h.376l-.06-2.355c0-.08.104-.197.172-.19.773.083 1.465.217 2.238.306l-.197-.645a.294.294 0 0 1 .103-.305l2.243-1.822-.464-.219c-.205-.073-.148-.188-.074-.464l.342-1.245-1.303.274c-.128.02-.212-.062-.232-.139l-.167-.586-1.03 1.154c-.147.185-.444.185-.352-.242l.44-2.337-.59.306c-.166.092-.332.107-.425-.058l-.816-1.521"/>
    </g>
</svg>
