<svg width="32" height="32" xmlns="http://www.w3.org/2000/svg" xmlns:xlink="http://www.w3.org/1999/xlink">
    <defs>
        <path d="M0 12.5c0-.828.667-1.5 1.501-1.5H22.5c.829 0 1.501.666 1.501 1.5 0 .828-.667 1.5-1.501 1.5H1.5C.672 14 0 13.334 0 12.5zM0 20c0-.828.667-1.5 1.501-1.5H22.5c.829 0 1.501.666 1.501 1.5 0 .828-.667 1.5-1.501 1.5H1.5C.672 21.5 0 20.834 0 20zm0 7.5c0-.828.667-1.5 1.501-1.5H22.5c.829 0 1.501.666 1.501 1.5 0 .828-.667 1.5-1.501 1.5H1.5C.672 29 0 28.334 0 27.5z" id="Header_Back_Arrow_1_svg__a"/>
    </defs>
    <g fill-rule="evenodd">
        <rect width="32" height="32"/>
        <use xlink:href="#Header_Back_Arrow_1_svg__a"/>
        <use xlink:href="#Header_Back_Arrow_1_svg__a"/>
    </g>
</svg>
