<svg width="32" height="32" xmlns="http://www.w3.org/2000/svg">
    <g fill-rule="evenodd">
        <path d="M16 32C7.163 32 0 24.837 0 16S7.163 0 16 0s16 7.163 16 16-7.163 16-16 16zm0-1.391c8.068 0 14.609-6.54 14.609-14.609 0-8.068-6.54-14.609-14.609-14.609C7.932 1.391 1.391 7.931 1.391 16c0 8.068 6.54 14.609 14.609 14.609z"/>
        <path d="M15.564 25.007c-.483 0-.904-.156-1.264-.47-.36-.313-.54-.75-.54-1.314 0-.5.173-.92.522-1.26.348-.341.776-.512 1.282-.512.499 0 .919.17 1.259.512.34.34.51.76.51 1.26 0 .555-.177.991-.534 1.309a1.802 1.802 0 0 1-1.235.475zM9.77 11.973c0-.753.24-1.516.724-2.29.483-.772 1.187-1.413 2.113-1.92.927-.508 2.007-.761 3.242-.761 1.148 0 2.162.212 3.04.636.88.424 1.558 1.001 2.037 1.73.479.73.718 1.523.718 2.379 0 .674-.136 1.265-.41 1.772a5.423 5.423 0 0 1-.973 1.314c-.376.369-1.051.99-2.025 1.861a8.25 8.25 0 0 0-.647.648 2.633 2.633 0 0 0-.362.512c-.08.154-.14.309-.184.464-.044.154-.11.426-.196.814-.15.825-.622 1.237-1.413 1.237-.412 0-.758-.135-1.04-.404-.28-.27-.421-.67-.421-1.201 0-.666.103-1.243.309-1.73.206-.488.479-.917.82-1.285.34-.369.799-.807 1.377-1.314.506-.444.872-.78 1.098-1.005a3.41 3.41 0 0 0 .57-.755c.154-.278.232-.58.232-.904 0-.635-.236-1.17-.707-1.606-.47-.436-1.079-.654-1.823-.654-.87 0-1.512.22-1.923.66-.412.44-.76 1.088-1.045 1.945-.27.896-.78 1.343-1.532 1.343-.444 0-.818-.156-1.123-.47-.304-.312-.457-.651-.457-1.016z"/>
    </g>
</svg>
