<svg viewBox="0 0 112 112" xmlns="http://www.w3.org/2000/svg" xmlns:xlink="http://www.w3.org/1999/xlink">
    <title>
        Icon / iOS / iOS - Touch ID ESI
    </title>
    <defs>
        <path class="iOS-TouchID-2_svg__path-01" d="M56 112C25.072 112 0 86.928 0 56S25.072 0 56 0s56 25.072 56 56-25.072 56-56 56zm0-5.906c27.666 0 50.094-22.428 50.094-50.094S83.666 5.906 56 5.906 5.906 28.334 5.906 56 28.334 106.094 56 106.094zm19.625-23.315A28.842 28.842 0 0 1 56 90.453a28.842 28.842 0 0 1-19.625-7.674 2.953 2.953 0 0 1 4.008-4.339A22.951 22.951 0 0 0 56 84.547a22.951 22.951 0 0 0 15.617-6.107 2.953 2.953 0 0 1 4.008 4.339zm-13.719-19.56v-21a2.953 2.953 0 1 0-5.906 0v21c0 .904-.736 1.64-1.64 1.64h-2.407a2.953 2.953 0 1 0 0 5.907h2.406c4.162 0 7.547-3.386 7.547-7.547M82.25 50.477a2.79 2.79 0 0 1-5.578 0v-8.422a2.79 2.79 0 0 1 5.578 0v8.422zm-49.055 2.789a2.79 2.79 0 0 1-2.789-2.79v-8.421a2.79 2.79 0 0 1 5.578 0v8.422a2.79 2.79 0 0 1-2.789 2.789z" id="iOS-TouchID-2_svg__a"/>
    </defs>
    <g fill-rule="evenodd">
        <mask id="iOS-TouchID-2_svg__b">
            <use xlink:href="#iOS-TouchID-2_svg__a"/>
        </mask>
        <use xlink:href="#iOS-TouchID-2_svg__a"/>
        <g mask="url(#iOS-TouchID-2_svg__b)">
            <rect width="112" height="112"/>
        </g>
    </g>
</svg>
