<svg viewBox="0 0 112 112" xmlns="http://www.w3.org/2000/svg" xmlns:xlink="http://www.w3.org/1999/xlink">
    <title>
        Icon / iOS / iOS - Touch ID ESI
    </title>
    <defs>
        <path class="iOS-TouchID-1_svg__path-01" d="M112 93.844V81.266a2.844 2.844 0 0 0-5.688 0v12.578c0 6.875-5.593 12.469-12.468 12.469H81.266a2.844 2.844 0 0 0 0 5.687h12.578C103.855 112 112 103.855 112 93.844m-78.422 15.312a2.844 2.844 0 0 0-2.844-2.844H18.156c-6.875 0-12.468-5.593-12.468-12.468V81.266a2.844 2.844 0 0 0-5.688 0v12.578C0 103.855 8.145 112 18.156 112h12.578a2.844 2.844 0 0 0 2.844-2.844M5.688 30.734V18.156c0-6.875 5.593-12.468 12.468-12.468h12.578a2.844 2.844 0 0 0 0-5.688H18.156C8.145 0 0 8.145 0 18.156v12.578a2.844 2.844 0 0 0 5.688 0m106.312 0V18.156C112 8.145 103.855 0 93.844 0H81.266a2.844 2.844 0 0 0 0 5.688h12.578c6.875 0 12.469 5.593 12.469 12.468v12.578a2.844 2.844 0 0 0 5.687 0M75.625 82.78a2.953 2.953 0 0 0-4.008-4.339A22.951 22.951 0 0 1 56 84.547a22.951 22.951 0 0 1-15.617-6.107 2.953 2.953 0 0 0-4.008 4.339A28.842 28.842 0 0 0 56 90.453a28.842 28.842 0 0 0 19.625-7.674m-13.719-19.56v-21a2.953 2.953 0 1 0-5.906 0v21c0 .904-.736 1.64-1.64 1.64h-2.407a2.953 2.953 0 1 0 0 5.907h2.406c4.162 0 7.547-3.386 7.547-7.547M82.25 50.477v-8.422a2.79 2.79 0 0 0-5.578 0v8.422a2.79 2.79 0 0 0 5.578 0m-49.055 2.789a2.79 2.79 0 0 1-2.789-2.79v-8.421a2.79 2.79 0 0 1 5.578 0v8.422a2.79 2.79 0 0 1-2.789 2.789" id="iOS-TouchID-1_svg__a"/>
    </defs>
    <g fill-rule="evenodd">
        <mask id="iOS-TouchID-1_svg__b">
            <use xlink:href="#iOS-TouchID-1_svg__a"/>
        </mask>
        <use xlink:href="#iOS-TouchID-1_svg__a"/>
        <g mask="url(#iOS-TouchID-1_svg__b)">
            <rect width="112" height="112"/>
        </g>
    </g>
</svg>
