<svg xmlns="http://www.w3.org/2000/svg" viewBox="0 0 118 117">
    <path class="iOS-TouchID_svg__path-01" d="M44.645 2.584c-7.652 1.852-17.9 7.297-24.342 12.932C14.635 20.475 7 31.148 7 34.114c0 3.542 3.414 2.054 5.858-2.553 3.529-6.652 14.851-17.062 22.396-20.593 6.11-2.859 17.656-5.913 22.496-5.951C59.328 5.005 60 4.402 60 3c0-1.731-.639-1.989-4.75-1.917-2.612.046-7.385.721-10.605 1.501M67 3.7c0 1.567 1.283 2.329 6.246 3.709 3.436.955 8.809 3.102 11.94 4.771 7.783 4.148 18.078 15.022 21.846 23.074 2.981 6.372 5.917 17.717 5.951 22.996.013 2.078.506 2.75 2.017 2.75 1.721 0 1.998-.662 1.985-4.75-.06-19.478-13.431-39.96-32.071-49.13-4.628-2.276-10.552-4.421-13.164-4.765C67.477 1.791 67 1.926 67 3.7m-19.497 7.916c-6.784 1.64-9.617 3.67-7.74 5.547.903.903 2.174.846 5.457-.243 2.615-.868 8.365-1.417 14.78-1.412 9.643.007 11.031.259 17 3.086 15.147 7.174 23.343 19.02 26.572 38.406 1.888 11.331 2.574 12.954 4.722 11.171 1.074-.891 1.194-2.493.545-7.241-2.408-17.608-6.535-27.235-15.535-36.234-12.191-12.191-29.283-17.072-45.801-13.08M24.832 24.75C15.151 34.922 10.61 45.479 10.743 57.5c.252 22.912.927 34.89 1.983 35.242 3.228 1.076 4.198-8.432 2.881-28.242-.704-10.61-.566-12.724 1.193-18.248 2.497-7.844 7.15-15.158 12.814-20.144C32.026 23.985 34 21.517 34 20.624c0-3.227-3.796-1.518-9.168 4.126m22.454-3.299C37.038 24.653 27.872 32.774 23.16 42.825c-2.621 5.591-2.656 5.949-2.374 24.175.232 14.968-.044 19.79-1.444 25.256-1.265 4.939-1.433 7.053-.623 7.863 1.783 1.783 3.142.159 4.95-5.92 1.723-5.788 2.009-13.653 1.226-33.699-.358-9.187-.173-10.463 2.278-15.696 3.406-7.274 10.371-14.234 17.631-17.62 4.952-2.31 6.992-2.659 15.613-2.671 7.008-.009 10.038-.378 10.331-1.257 1.06-3.178-15.093-4.421-23.462-1.805m28.721 5.299c.004.962 1.596 2.833 3.539 4.156 12.262 8.351 17.269 25.481 16.16 55.287-.322 8.67-.254 15.968.152 16.219 1.978 1.223 3.285-1.852 4.247-9.986 2.009-17.009-1.245-42.401-6.725-52.469-4.995-9.178-17.394-18.604-17.373-13.207M51 29.935C42.675 32.477 35.951 38.131 31.897 46c-1.864 3.619-2.314 6.067-2.296 12.5.025 9.372 1.2 26.634 1.857 27.291.251.251 1.213.165 2.139-.19 1.506-.578 1.602-1.833.906-11.874-1.258-18.17-1.035-20.978 2.127-26.788 8.313-15.274 28.074-18.028 41.034-5.719 3.078 2.924 5.336 3.054 5.336.306 0-2.253-8.801-9.27-13.734-10.951-4.809-1.638-13.946-1.959-18.266-.64m2.335 8.703c-2.499.552-3.778 2.97-2.117 3.997.622.384 3.76.592 6.973.461 6.822-.279 11.513 2.029 14.644 7.204 5.652 9.345 5.502 42.157-.269 58.513-1.476 4.183-.693 6.833 1.743 5.899 1.527-.586 3.442-6.243 5.826-17.212 1.688-7.763 1.687-32.238 0-40-2.498-11.489-9.437-18.322-19.276-18.981-2.948-.198-6.333-.144-7.524.119M2.868 43.75c-4.022 10.215-.504 40.2 4.175 35.59.902-.889.766-3.285-.583-10.264-1.519-7.865-1.597-10.264-.568-17.619.655-4.682.921-8.951.59-9.485-1.073-1.737-2.508-1.031-3.614 1.778m38.146 4.467c-2.793 4.594-3.385 10.383-1.963 19.201 1.683 10.431.718 22.243-2.581 31.582-3.943 11.162-4.061 12-1.693 12 1.536 0 2.594-1.476 4.483-6.25 5.036-12.727 6.038-22.176 4.336-40.904-.822-9.044-.738-9.88 1.333-13.232 1.217-1.968 1.928-4.036 1.582-4.596-1.2-1.942-3.55-1.002-5.497 2.199m10.752 2.701L48.5 53.836V92.5l-3.562 10.283c-3.032 8.752-3.351 10.459-2.142 11.463 1.976 1.64 3.357-.486 6.507-10.017 3.644-11.026 5.091-23.437 4.091-35.099-1.025-11.963-.886-13.207 1.725-15.38 5.467-4.55 10.1-.365 11.73 10.595C67.482 68.6 68 73.815 68 75.934c0 3.576 1.829 5.904 3.402 4.33 1.775-1.774-.001-20.305-2.546-26.561-2.49-6.122-11.68-7.619-17.09-2.785m32.526 1.832c.305 2.063 1.09 7.35 1.744 11.75 1.411 9.49.741 25.932-1.48 36.338-.861 4.036-1.312 7.748-1.002 8.25 1.357 2.195 3.44.638 4.467-3.338.604-2.338 1.326-5.035 1.604-5.994.278-.959.856-6.264 1.284-11.79.829-10.698.095-23.812-1.858-33.221-.986-4.749-1.55-5.745-3.254-5.745-1.813 0-1.994.45-1.505 3.75M57.58 57.871c-.296.479-.16 4.971.302 9.983.784 8.496.146 22.187-1.351 29.005-.749 3.41.945 5.098 3.021 3.009 3.154-3.172 4.463-31.655 1.866-40.618-.65-2.247-2.82-3.026-3.838-1.379M106 81.5c0 5.792.225 6.603 1.75 6.31 1.434-.276 1.75-1.417 1.75-6.31s-.316-6.034-1.75-6.31c-1.525-.293-1.75.518-1.75 6.31m-38.36 7.25c-.271.963-.803 3.775-1.18 6.25-.378 2.475-1.797 8.041-3.154 12.369-1.779 5.671-2.164 8.173-1.38 8.957 1.685 1.685 3.559-.955 5.908-8.326 2.516-7.893 4.484-18.676 3.654-20.019-.982-1.589-3.313-1.124-3.848.769m-40.67 9.839c-1.616 4.857-1.898 6.883-1.074 7.707 1.601 1.601 3.57-.749 5.511-6.581C33.479 93.492 33.416 92 31.082 92c-1.476 0-2.425 1.522-4.112 6.589m25.459 11.957c-1.749 4.581-1.008 7.548 1.499 5.998 1.583-.978 4.226-7.699 3.635-9.241-1.03-2.685-3.455-1.153-5.134 3.243" fill-rule="evenodd"/>
</svg>
