<svg viewBox="0 0 33 32" xmlns="http://www.w3.org/2000/svg" xmlns:xlink="http://www.w3.org/1999/xlink">
    <title>
        Orders
    </title>
    <defs>
        <path class="iOS-Orders_svg__path-01" d="M4.255 25.006H2.297c-.7 0-1.266-.55-1.266-1.227V8.227C1.031 7.55 1.598 7 2.297 7h17.562c.699 0 1.265.55 1.265 1.227V12h3.907c.562 0 1.057.36 1.215.883l.915 3.108 3.535.037c.336 0 .659.128.897.359.237.23.371.542.371.868l.005 6.524c0 .677-.567 1.227-1.266 1.227h-.935c-.465 1.716-2.075 2.983-3.99 2.983-1.917 0-3.527-1.267-3.991-2.983h-9.55c-.465 1.716-2.075 2.983-3.991 2.983s-3.526-1.267-3.99-2.983zm7.992-1.993h6.884V9.002H3.086v14.011h1.158c.45-1.737 2.07-3.024 4.002-3.024 1.931 0 3.552 1.287 4.001 3.024zM29.775 23h.133V18h-3.31a1.26 1.26 0 0 1-1.215-.883l-.91-3.126h-3.35V23h.656c.454-1.731 2.072-3.011 3.998-3.011 1.926 0 3.544 1.28 3.998 3.01zm-21.53 2.989c1.14 0 2.063-.896 2.063-2 0-1.105-.923-2-2.062-2-1.14 0-2.063.895-2.063 2 0 1.104.924 2 2.063 2zm17.532 0c1.14 0 2.063-.896 2.063-2 0-1.105-.924-2-2.063-2-1.139 0-2.062.895-2.062 2 0 1.104.923 2 2.062 2z" id="iOS-Orders_svg__a"/>
    </defs>
    <g fill-rule="evenodd">
        <mask id="iOS-Orders_svg__b">
            <use xlink:href="#iOS-Orders_svg__a"/>
        </mask>
        <use xlink:href="#iOS-Orders_svg__a"/>
        <g mask="url(#iOS-Orders_svg__b)">
            <rect width="33" height="32"/>
        </g>
    </g>
</svg>
