<svg width="112" height="112" xmlns="http://www.w3.org/2000/svg" xmlns:xlink="http://www.w3.org/1999/xlink">
    <defs>
        <path d="M56 112C25.072 112 0 86.928 0 56S25.072 0 56 0s56 25.072 56 56-25.072 56-56 56zm0-5.906c27.666 0 50.094-22.428 50.094-50.094S83.666 5.906 56 5.906 5.906 28.334 5.906 56 28.334 106.094 56 106.094zm20.503-67.59a2.923 2.923 0 1 1 4.128 4.14L49.733 73.391a2.919 2.919 0 0 1-4.128 0l-14.16-14.236a2.923 2.923 0 0 1 4.128-4.14L47.669 67.19l28.834-28.686z" id="iOS_-_Touch_ID_ESI_3_svg__a"/>
    </defs>
    <g fill-rule="evenodd">
        <mask id="iOS_-_Touch_ID_ESI_3_svg__b">
            <use xlink:href="#iOS_-_Touch_ID_ESI_3_svg__a"/>
        </mask>
        <use xlink:href="#iOS_-_Touch_ID_ESI_3_svg__a"/>
        <g mask="url(#iOS_-_Touch_ID_ESI_3_svg__b)">
            <rect width="112" height="112"/>
        </g>
    </g>
</svg>
