<svg width="33" height="32" xmlns="http://www.w3.org/2000/svg" xmlns:xlink="http://www.w3.org/1999/xlink">
    <defs>
        <path d="M16.5 5C9.665 5 4.125 10.373 4.125 17S9.665 29 16.5 29s12.375-5.373 12.375-12C28.867 10.376 23.331 5.008 16.5 5zm0 21.99c-5.69 0-10.301-4.473-10.301-9.99S10.81 7.01 16.5 7.01c5.69 0 10.301 4.473 10.301 9.99-.006 5.514-4.614 9.983-10.301 9.99zm-.187-4.157c.316 0 .594-.104.835-.312.24-.207.361-.493.361-.857 0-.328-.115-.603-.345-.827a1.174 1.174 0 0 0-.851-.335c-.342 0-.631.112-.867.335a1.094 1.094 0 0 0-.353.827c0 .369.122.656.365.861.244.206.529.308.855.308zm-3.918-8.544c0 .239.103.46.31.666.205.205.458.308.758.308.509 0 .854-.294 1.036-.88.192-.562.428-.987.706-1.276.278-.288.712-.432 1.3-.432.504 0 .915.143 1.233.428.318.286.478.637.478 1.053 0 .213-.052.41-.157.592a2.244 2.244 0 0 1-.385.496c-.153.148-.4.367-.743.658-.39.333-.7.62-.931.862a2.87 2.87 0 0 0-.554.842c-.14.32-.209.698-.209 1.134 0 .348.095.61.285.788.19.176.424.265.703.265.535 0 .853-.27.955-.811.059-.255.103-.433.133-.534.029-.102.07-.203.124-.304.053-.102.135-.213.245-.335.11-.123.255-.264.437-.425a47.54 47.54 0 0 0 1.37-1.22c.253-.242.473-.53.657-.862.185-.333.277-.72.277-1.162 0-.561-.161-1.08-.485-1.559-.324-.478-.783-.856-1.377-1.134-.594-.278-1.28-.417-2.055-.417-.835 0-1.566.166-2.192.499-.626.332-1.102.752-1.429 1.259-.326.506-.49 1.007-.49 1.5z" id="iOS_Support_svg__a"/>
    </defs>
    <g fill-rule="evenodd">
        <rect width="33" height="32"/>
        <mask id="iOS_Support_svg__b">
            <use xlink:href="#iOS_Support_svg__a"/>
        </mask>
        <use xlink:href="#iOS_Support_svg__a"/>
        <g mask="url(#iOS_Support_svg__b)">
            <rect width="33" height="32"/>
        </g>
    </g>
</svg>
