<svg width="32" height="32" xmlns="http://www.w3.org/2000/svg">
    <g fill-rule="evenodd">
        <path d="M16 28.351L2.79 13.121c-.73-.96-1.132-2.443-1.132-3.645 0-3.86 3.583-6.96 6.746-6.96 2.897 0 5.007 1.336 6.216 2.867L16 6.837l1.363-1.454c1.856-2.102 3.821-2.867 6.114-2.867 3.163 0 7.198 2.902 6.97 6.96-.073 1.297-.567 2.647-1.418 3.645L16 28.351z"/>
        <path d="M16 28.351L2.79 13.121c-.73-.96-1.132-2.443-1.132-3.645 0-3.86 3.583-6.96 6.746-6.96 2.897 0 5.007 1.336 6.216 2.867L16 6.837l1.363-1.454c1.856-2.102 3.821-2.867 6.114-2.867 3.163 0 7.198 2.902 6.97 6.96-.073 1.297-.567 2.647-1.418 3.645L16 28.351zM23.278 1C20.38 1 17.666 2.415 16 4.543 14.336 2.415 11.619 1 8.72 1 3.914 1 0 4.804 0 9.476c0 1.84.595 3.59 1.721 5.06l.056.07L14.74 29.502c.272.313.837.495 1.26.497 0 0 1.057 0 1.264-.497l12.704-14.588A8.353 8.353 0 0 0 32 9.476C32 4.804 28.087 1 23.278 1"/>
    </g>
</svg>
