<svg width="32" height="32" xmlns="http://www.w3.org/2000/svg">
    <g fill-rule="evenodd">
        <path d="M27.999 30.796H3.679c-1.392 0-2.788-.145-3.374-1.146-.585-1.001-.262-2.51.41-3.75L13.26 2.982C13.936 1.723 14.72 1 15.846 1c1.127 0 1.846.722 2.52 1.983l12.418 22.916c.665 1.24 1.074 2.75.488 3.75-.586 1.002-1.882 1.147-3.273 1.147zM14.667 3.207L1.844 26.702c-.342.556-.806 1.426-.514 2.053.292.627.952.689 1.803.689l25.025.08c.767 0 1.59.007 2.01-.655.421-.663-.13-1.55-.352-1.965L16.95 3.207c-.196-.358-.533-.868-1.089-.868-.556 0-1.001.51-1.194.868z"/>
        <g>
            <path d="M14.333 19.998v-8.151c0-.836.626-1.514 1.397-1.514.772 0 1.397.678 1.397 1.514v8.15c0 .836-.625 1.514-1.397 1.514-.771 0-1.397-.678-1.397-1.513zM15.744 26.201a1.587 1.587 0 1 0 0-3.175 1.587 1.587 0 0 0 0 3.175"/>
        </g>
    </g>
</svg>
