<svg viewBox="0 0 32 32" xmlns="http://www.w3.org/2000/svg">
    <title>
        Icon / Alerts Notifications / Success - light
    </title>
    <g fill-rule="evenodd">
        <path class="Notification-Success_-_light_svg__path-01" d="M16 32C7.163 32 0 24.837 0 16S7.163 0 16 0s16 7.163 16 16-7.163 16-16 16zm0-1.391c8.068 0 14.609-6.54 14.609-14.609 0-8.068-6.54-14.609-14.609-14.609C7.932 1.391 1.391 7.931 1.391 16c0 8.068 6.54 14.609 14.609 14.609z"/>
        <path class="Notification-Success_-_light_svg__path-02" d="M22.569 9.427c-.493.5-8.946 8.912-8.946 8.912l-3.045-3.009c-.508-.474-1.403-.706-2.12 0-.719.707-.492 1.548 0 2.075l4.202 4.227a1.352 1.352 0 0 0 1.855 0l10.174-10.196c.335-.334.531-1.376-.117-2.01-.648-.633-1.51-.5-2.003 0z"/>
    </g>
</svg>
