<svg viewBox="0 0 32 32" xmlns="http://www.w3.org/2000/svg">
    <title>
        Icon / Alerts Notifications / Info - light
    </title>
    <g fill-rule="evenodd">
        <path class="Notification-Info-Light_svg__path-01" d="M16 32C7.163 32 0 24.837 0 16S7.163 0 16 0s16 7.163 16 16-7.163 16-16 16zm0-1.391c8.068 0 14.609-6.54 14.609-14.609 0-8.068-6.54-14.609-14.609-14.609C7.932 1.391 1.391 7.931 1.391 16c0 8.068 6.54 14.609 14.609 14.609z"/>
        <path class="Notification-Info-Light_svg__path-02" d="M14.609 22.606v-8.505c0-.872.652-1.58 1.457-1.58s1.458.708 1.458 1.58v8.505c0 .872-.653 1.58-1.458 1.58-.805 0-1.457-.708-1.457-1.58z"/>
        <path class="Notification-Info-Light_svg__path-03" d="M16.08 10.992a1.656 1.656 0 1 0 0-3.312 1.656 1.656 0 0 0 0 3.312"/>
    </g>
</svg>
