<svg xmlns="http://www.w3.org/2000/svg" width="32" height="32">
    <path class="Notification-Help-Dark_svg__path-01" d="M16 0C7.163 0 0 7.163 0 16s7.163 16 16 16 16-7.163 16-16S24.837 0 16 0zm-.15 7.002c1.148 0 2.16.213 3.039.637.88.424 1.558 1 2.037 1.728.479.73.719 1.523.719 2.38 0 .673-.137 1.266-.41 1.773a5.423 5.423 0 0 1-.973 1.312c-.376.369-1.052.99-2.026 1.861a8.25 8.25 0 0 0-.646.649 2.633 2.633 0 0 0-.363.512c-.08.154-.14.31-.184.464-.044.154-.11.427-.195.815-.15.825-.623 1.236-1.414 1.236-.412 0-.757-.135-1.04-.404-.28-.27-.421-.67-.421-1.201 0-.666.102-1.244.308-1.73.206-.489.48-.918.82-1.286.34-.369.8-.805 1.378-1.312.506-.444.871-.781 1.097-1.006a3.41 3.41 0 0 0 .57-.754 1.84 1.84 0 0 0 .233-.905c0-.635-.236-1.17-.707-1.607-.47-.436-1.078-.652-1.822-.652-.87 0-1.513.22-1.924.66-.412.44-.76 1.086-1.045 1.943-.27.896-.78 1.344-1.531 1.344-.444 0-.818-.157-1.123-.47-.304-.313-.457-.651-.457-1.016 0-.753.24-1.515.724-2.29.483-.771 1.187-1.412 2.113-1.92.927-.507 2.008-.761 3.243-.761zm-.286 14.45c.5 0 .918.169 1.258.51.34.34.51.76.51 1.26 0 .556-.176.991-.533 1.31a1.802 1.802 0 0 1-1.235.476 1.86 1.86 0 0 1-1.263-.47c-.36-.314-.541-.751-.541-1.315 0-.5.172-.92.521-1.26a1.765 1.765 0 0 1 1.283-.512z" fill-rule="evenodd"/>
</svg>
