<?xml version="1.0" encoding="UTF-8"?>
<svg width="24px" height="24px" viewBox="0 0 24 24" version="1.1" xmlns="http://www.w3.org/2000/svg" xmlns:xlink="http://www.w3.org/1999/xlink">
    <!-- Generator: Sketch 51.3 (57544) - http://www.bohemiancoding.com/sketch -->
    <title>Icon / Flag / Canada</title>
    <desc>Created with Sketch.</desc>
    <defs></defs>
    <g id="Style-" stroke="none" stroke-width="1" fill="none" fill-rule="evenodd">
        <g id="Style_Icons" transform="translate(-165.000000, -2568.000000)">
            <g id="Flag" transform="translate(165.000000, 2512.000000)">
                <g id="Icon-/-Flag-/-Canada" transform="translate(0.000000, 56.000000)">
                    <g transform="translate(0.000000, 5.000000)">
                        <polygon id="Fill-73" fill="#D9272A" points="0.0344507659 13.6824683 23.9484814 13.6824683 23.9484814 0.0174354486 0.0344507659 0.0174354486"></polygon>
                        <polygon id="Fill-74" fill="#FFFFFE" points="6.01297155 13.6824683 17.9699606 13.6824683 17.9699606 0.0174354486 6.01297155 0.0174354486"></polygon>
                        <path d="M11.9913348,1.80556674 L11.1755449,3.32712473 C11.0829584,3.49244639 10.9171116,3.47716411 10.7512123,3.38478775 L10.1606127,3.07893217 L10.6008053,5.41601751 C10.6933917,5.84297593 10.3964114,5.84297593 10.2498381,5.65832823 L9.21909847,4.50449015 L9.05178118,5.09046827 C9.03245514,5.16740481 8.94764114,5.24822757 8.82034136,5.22895405 L7.51698906,4.95492341 L7.85929103,6.19950985 C7.93260394,6.4764814 7.98979431,6.59112473 7.78534792,6.66417505 L7.32078775,6.88253829 L9.56444639,8.7049628 C9.65319912,8.77391685 9.69810066,8.8979081 9.66648578,9.01018818 L9.47012691,9.65461707 C10.2426433,9.56554923 10.9348096,9.43152735 11.7077462,9.34902407 C11.775965,9.34177681 11.8901882,9.45437199 11.8897155,9.53340919 L11.7873611,11.8942845 L12.1630109,11.8942845 L12.1038249,9.53850328 C12.1034048,9.45941357 12.2070197,9.34177681 12.275291,9.34902407 C13.0481225,9.43152735 13.7402888,9.56554923 14.5128578,9.65461707 L14.3164464,9.01018818 C14.284884,8.8979081 14.3297856,8.77391685 14.4185383,8.70501532 L16.6621969,6.88253829 L16.1976368,6.66417505 C15.9931904,6.59112473 16.0503282,6.4764814 16.1236411,6.19950985 L16.4659956,4.95492341 L15.1626958,5.22895405 C15.0353435,5.24822757 14.9505295,5.16740481 14.9312035,5.09046827 L14.7638862,4.50449015 L13.7331466,5.65838074 C13.5865733,5.84297593 13.289593,5.84297593 13.3821269,5.41601751 L13.822372,3.07893217 L13.2317199,3.38478775 C13.0659256,3.47716411 12.9000263,3.49244639 12.8074398,3.32712473 L11.9913348,1.80556674" id="Fill-75" fill="#D9272A"></path>
                    </g>
                </g>
            </g>
        </g>
    </g>
</svg>